<?xml version="1.0" encoding="UTF-8"?>
<svg id="Layer_2" data-name="Layer 2" xmlns="http://www.w3.org/2000/svg" viewBox="0 0 12.81 10.66">
  <defs>
    <style>
      .cls-1 {
        fill: #f64e25;
        stroke-width: 0px;
      }
    </style>
  </defs>
  <g id="desktop">
    <path id="_222319736" data-name=" 222319736" class="cls-1" d="M7.1,2.22c.41-.21.89-.36,1.43-.41.75-.07,1.61.05,2.52.52h0c.71.37,1.19.89,1.48,1.49.33.71.36,1.52.13,2.33-.21.74-.66,1.49-1.3,2.15h0c-.99,1.04-2.47,1.89-4.3,2.21-1.08.19-1.88.2-2.64-.04-.76-.24-1.41-.72-2.18-1.51-1-1.02-1.71-2.28-2.04-3.55C-.12,4.12-.07,2.81.45,1.71v-.02c.35-.69.89-1.17,1.54-1.44h0C2.47.05,3-.03,3.55,0c.53.04,1.07.18,1.58.44.74.37,1.44.96,1.96,1.78ZM8.68,3.47c-.59.06-1.04.31-1.29.56l-.87.87-.48-1.15c-.36-.88-.98-1.49-1.64-1.81-.32-.16-.65-.25-.96-.27-.29-.02-.56.02-.8.12h0c-.28.12-.52.33-.68.65h0c-.34.73-.36,1.64-.12,2.57.26.99.82,1.99,1.61,2.8.58.6,1.03.94,1.5,1.09.46.15,1.03.13,1.85-.02,1.45-.26,2.61-.92,3.38-1.72h0c.45-.47.76-.98.9-1.47.12-.43.12-.83-.04-1.17-.13-.27-.37-.52-.74-.71h0c-.6-.3-1.14-.38-1.61-.34Z"/>
  </g>
</svg>