<svg xmlns="http://www.w3.org/2000/svg" xmlns:xlink="http://www.w3.org/1999/xlink" viewBox="0 0 89.57 89.57" xmlns:v="https://vecta.io/nano"><style><![CDATA[.W{fill:#a9a9a9}.X{fill:#3b3b3b}.Y{fill:#eee}.Z{fill:#6e6e6e}.a{fill:#7a7a7a}.b{fill:#b7b7b7}.c{fill:#999}.d{fill:#3e3e3e}.e{fill:#b5b5b5}.f{fill:#a3a3a3}.g{fill:#676767}.h{fill:#858585}]]></style><defs><clipPath id="A"><circle cx="44.78" cy="44.78" r="44.78" stroke-width="0" fill="none"/></clipPath><path id="B" d="M70.32 59.43l.16-.73.27.72.49-.26-.27.52.71.07-.76.27.3.54-.53-.29-.17.57-.27-.6-.46.24.32-.47-.68-.19.65-.17-.42-.39.66.17z"/><path id="C" d="M53.36 13.36l.37-.4-.1.56.4.01-.36.23.42.31-.57-.11-.01.45-.23-.38-.32.29.06-.47-.38-.02.37-.18-.35-.37.47.13-.12-.4.35.35z"/><path id="D" d="M32.07 18.66l.2-.31v.39l.27-.04-.21.2.31.16-.4-.01.05.3-.2-.23-.18.24-.02-.33-.25.03.23-.16-.29-.21.34.03-.13-.25.28.19z"/></defs><g clip-path="url(#A)"><g fill="#c2c2c2"><path d="M14.33 25.19S28.45 8.51 34.27 13.7s-.93 11.42 4.63 9.1 8.84-14.36 22.47-5.7c9 5.72.44 19.7 4.2 19.77s8.21-3.31 12.2 3.99-7.85 17.19-4.54 18.73 9.43 7.57.59 13.42-20.1 5.08-17.35-2.05-4.36 5.43-18.09 4.05c-13.74-1.38-1.45-16.53-7.97-14.19s-11.51 9.64-16.08-.48 16.29-20.56 4.52-24.12-4.52-11.03-4.52-11.03z" opacity=".4"/><circle cx="45.35" cy="44.76" r="15.84"/></g><g fill="#8d8d8d"><path d="M37.65 58.67l2.71-1.27c1.38-.62 1.05-1.29 2.34-1.36s2.11 2.34 3.42 2.21 2.16-.84 3.33-.6 2.37 1.58 2.37 1.58-2.88 2.08-8.03 1.3-6.13-1.86-6.13-1.86zm13.22-17.91s1.96-.87 3.22-.52 2.71.72 4 1.84-.09 4.64 1.4 5.43-2.9 4.43-3.19 5.17-.74 1.35-1.49 1.54-1.47.98-2.69 1.38-1.66-2.43-1.27-3.33 1.48-2.14 1.76-2.9.02-3.1-.11-3.22-1.97.33-2.95-.48-.45-4.38 1.33-4.92zM39.61 30s-1.62 1.51-.68 1.94 2.29-.62 2.34.82-.68 1.32-1.1 1.59-1.91.15-1.97 1.25.2 2.44.2 2.44.39-2.25 1.16-1.96 1.63.65 1.73 1.31.32 2.22.23 3.09-1.97.63-2.5.89-1.33.15-2.2 1.18-1.08.7-.87 1.03-.75 1.6-1.27 1.51l-.79-.11c-.79-.11-.71.6-.55.75s1.48.23 1.83 1.53-.79-.34-1.9-.29-3.7-.99-3.7-.99-1.18-12.15 10.05-15.99zm-6.55 17.78s.72.39 1.86.6 1.45-.48 1.86.54 1.86 1.56 1.86 1.56 1.86.58 1.96 1 .1 2.07-.41 2.59-1.76 1.23-1.76 1.96.72.83 0 .73-3.51-1.63-3.82-2.31 0-2.43-.62-2.85-1.21-1.78-.93-3.82zm11.37-16.94s-1.15.91-1.46 1.43.83.94 0 1.87-.72 1.76-.72 1.76 1.17.1 2.18 0 1.12 0 1.64-.52.41-1.76.72-2.68.1-2.41-.41-2.7-1.95.84-1.95.84zm8.05-.23s-1.39 1.97-1.27 2.34.29 1.09-.31 1.82-1.31-.01-1.47 1.18.03 1.36.55 2.51.43-.39 1.05-1.22 1.57-.84 2.28-1.3.29-2.01 1.12-2.32 1.49-.68 1.49-.68-1.49-1.59-3.43-2.34z"/><path d="M52.05,39.13s-.25-.73.81-1.41,1.84-.68,2.12-1.2.77-2.4.93-3.57c0,0,4.72,3.24,5.23,10.53,0,0-1.49-.2-1.67-.79s-1.46-1.58-1.96-2.53-.78-1.59-.9-1.94c-.08-.23-.56.12-1.18.47-.31.18-.66.35-1.01.45-1.03.28-1.86-.18-2.37,0Z"/><path d="M54.94 39.37s.31-.26.64-.24.7.52 1 .78.99.43.66.52-1.02-.09-1.57-.4-.92-.55-.74-.66zm-7.5-6.72s-.4.5-.4.93-.19.97 0 1 .5-.47.83-1.12.21-.9.12-1-.46.07-.55.19zm12.2 18.95s-1.45.45-1.81.69-.12.7-.5 1.32-1.38 1.07-1.42 1.64 0 1.32 0 1.32 2.39-1.98 3.73-4.97z"/></g><path d="M64.41 62.86s3.41-1.16 5.93 1.6 1.34 5.88-.64 7.28c-3.04 2.14-9.06-1.15-7.33-7.28l2.04-1.6z" class="b"/><path d="M69.37,65.52s-1.7-2.21-2.97-2.63-3.77,2.23-4.1,3.44,2.75,3.81,2.75,3.81l4.31-4.62Z" class="X"/><path d="M62.08 59.62l-4.55-3.77-.08-.61-.43 1.09 3.88 4.4 1.18-1.11z" class="W"/><path d="M57.53,55.85l-.51.48-.44-.47,1.21-1.13s-.06.69-.26,1.12Z" class="b"/><path d="M59.57 61.97l-3.46-4.79-.6-.11 1.11-.37 4.14 4.16-1.19 1.11z" class="W"/><path d="M58.61 61.33l-.75-.93 1.31-1.22.91.77-.73-.94 1.25-1.17.97.8-2.96 2.69z" fill="#454545"/><path d="M56.11,57.18l.51-.48-.44-.47-1.21,1.13s.69-.02,1.14-.19Z" class="b"/><path d="M61.97 58.28l-3.76 3.41 4.63 5.11 3.52-3.18-4.39-5.34z" fill="#6d6d6d"/><path d="M66.76 62.29l1.42-7.59c.04-.76-.36.34-.36.34s-.06-.72-.18-.68-.21.66-.21.66-.06-.75-.28-.71c-.15.03-.16.77-.16.77s-.3-.65-.42-.56.05 1.12-.02 1.37l-1.45 5.87 1.65.54z" class="W"/><path d="M64.29,61.64l.74-2.6,2.32.49s-.51,3.64-1,4.09l-2.06-1.97Z" class="Z"/><path d="M61.77 66.87l-7.64 1.14c-.76 0 .35-.35.35-.35s-.72-.09-.68-.21.67-.18.67-.18-.74-.09-.7-.3c.03-.15.77-.13.77-.13s-.64-.33-.54-.44 1.11.09 1.37.03l5.92-1.23.48 1.67z" class="W"/><path d="M61.12,64.51l-2.66.48.25,2.36s3.68-.14,4.17-.59l-1.76-2.25Z" class="Z"/><g class="W"><path d="M64.072 65.507l1.104-1 .544.6-1.104 1z"/><circle cx="67.22" cy="67.88" r="3.5"/></g><g class="X"><path d="M66.35 67.74l1.05.26-.18-1.07-.32.1.22.67-.7-.23-.07.27zm.35 1.63s-.31-.68-.64-.57.24.86.24.86l-.25.07s-.52-.75-.13-1.07.99.52.99.52l-.22.2zm2.2-2.08s-.41-.63-.71-.48.35.82.35.82l-.24.1s-.62-.67-.27-1.04 1.06.38 1.06.38l-.19.23z"/><path d="M65.99,67.87s-.31-.86.2-1.17,1-.02,1-.02l.08-.22s-.76-.35-1.3.23-.19,1.25-.19,1.25l.21-.06Z"/></g><g class="a"><circle cx="65.3" cy="68.48" r=".53"/><circle cx="67.92" cy="66.07" r=".53"/></g><g class="W"><circle cx="64.3" cy="70.58" r=".78"/><circle cx="70.04" cy="65.28" r=".78"/></g><g class="X"><path d="M65.07 70.7s1.63-1.33 4.56-.12c0 0-.86-3.26.56-4.53 0 0 2.09 2.1.07 4.42-2.5 2.87-5.19.23-5.19.23zm4.38-5.5s.43.77.86.52.16-.8.16-.8l-.13.04s.13.48-.07.58-.69-.48-.69-.48l-.12.15zm-5.24 4.83s.84.27.68.74-.76.31-.76.31v-.14s.51.03.56-.18-.6-.58-.6-.58l.12-.15z"/></g><path d="M62.56 58.94l-.85-.94-3.81 3.46.9.88 3.76-3.4z" fill="#454545"/><path d="M64.41 61.25l-3.63 3.28-5.91-5.52 4.9-4.44 4.64 6.68z" class="Z"/><path d="M66.76,62.65s-4.38-3.86-8.79-.75c0,0,1.63,1.93,2.81,2.62,0,0,4.09-.03,4.98-.37s.99-1.5.99-1.5Z" class="b"/><path d="M68.742 69.552l-.639-.031.031-.639.639.031z" fill="#6d6d6d"/><g class="b"><path d="M68.05 56.13l-1.63-.37-.03.83 1.41.32.25-.78zM55.02 67.94l-.21-1.66.82.05.19 1.43-.8.18z"/></g><path d="M28.17 30.49l4.55 3.76.07.61.44-1.08-3.88-4.4-1.18 1.11z" class="W"/><path d="M32.72,34.25l.51-.48.44.47-1.21,1.13s.06-.69.26-1.12Z" class="X"/><path d="M30.68 28.14l3.46 4.79.6.11-1.11.36-4.14-4.15 1.19-1.11z" class="W"/><path d="M31.64 28.78l2.16 3.05-.97.92-2.66-2.59 2.36 2.87-.93.87-2.93-2.43 2.97-2.69z" class="c"/><path d="M34.14,32.93l-.51.48.44.47,1.21-1.13s-.69.02-1.14.19Z" class="X"/><path d="M28.28 31.82l3.75-3.4-4.63-5.11-3.51 3.18 4.39 5.33z" class="c"/><path d="M23.49 27.82l-1.42 7.59c-.04.76.36-.34.36-.34s.06.72.18.68.21-.66.21-.66.06.75.28.71c.15-.03.16-.77.16-.77s.31.65.42.56-.05-1.12.02-1.37l1.45-5.87-1.65-.54z" class="W"/><path d="M25.95,28.47l-1.69,5.69-1.95-.22s.76-5.23,1.58-7.45l2.06,1.97Z" class="c"/><path d="M28.47 23.24l7.64-1.14c.76 0-.35.35-.35.35s.72.09.68.21-.67.18-.67.18.74.09.7.3c-.03.15-.77.13-.77.13s.64.33.54.44-1.11-.09-1.37-.03l-5.92 1.23-.48-1.67z" class="W"/><path d="M29.12,25.59l5.68-1.34-.28-1.97s-6.32.58-7.12,1.02l1.72,2.29Z" class="c"/><g class="W"><path d="M24.517 24.998l1.104-1.001.544.6-1.104 1.001z"/><circle cx="23.02" cy="22.23" r="3.5"/></g><g class="X"><path d="M23.89 22.37l-1.05-.26.18 1.07.32-.1-.22-.67.7.23.07-.27zm-.35-1.63s.32.68.64.57-.24-.86-.24-.86l.25-.07s.52.75.13 1.07-.99-.52-.99-.52l.22-.2zm-2.2 2.09s.41.63.71.48-.35-.82-.35-.82l.24-.1s.62.67.27 1.04-1.06-.38-1.06-.38l.19-.23z"/><path d="M24.25,22.24s.31.86-.2,1.17-1,.02-1,.02l-.08.22s.76.35,1.3-.23.19-1.25.19-1.25l-.21.06Z"/></g><g class="a"><circle cx="24.94" cy="21.63" r=".53"/><circle cx="22.32" cy="24.05" r=".53"/></g><g class="W"><circle cx="25.94" cy="19.53" r=".78"/><circle cx="20.2" cy="24.83" r=".78"/></g><g class="X"><path d="M25.17 19.41s-1.63 1.33-4.56.12c0 0 .86 3.26-.56 4.54 0 0-2.09-2.1-.07-4.42 2.5-2.87 5.19-.23 5.19-.23zm-4.38 5.51s-.43-.77-.86-.52-.15.8-.15.8l.13-.04s-.13-.48.07-.58.69.48.69.48l.12-.15zm5.24-4.84s-.84-.27-.68-.74.76-.31.76-.31v.14s-.51-.03-.56.18.6.58.6.58l-.12.15z"/></g><path d="M25.84 28.86l2.7 3.25 3.81-3.46-3.67-3.9-2.84 4.11z" class="c"/><path d="M21.483 20.571l.639.031-.031.639-.639-.031z" class="Z"/><path d="M18.01 25.23l8.28-7.79-7.12.43-1.16 7.36z" class="e"/><g class="X"><path d="M22.41 33.31l2.03.27-.18.58-1.95-.22.1-.63zm12.38-9.06l-.28-1.96-.72.07.17 2.09.83-.2zm-10.45 1.17l1.68-1.58.53.57-1.74 1.63-.47-.62zm1.4.99l1.04-.97.24.26-1.07 1.01-.21-.3zm1.04 1.11l1.04-.97.25.26L27 27.82l-.22-.3zm.87.92l1.04-.97.25.26-1.08 1.01-.21-.3zm.81.87l1.04-.98.25.26-1.08 1.01-.21-.29z"/><path d="M25.197 24.966l.167-.158 5.16 5.484-.167.158z"/><path d="M28.179 31.731l3.75-3.529.411.437-3.75 3.529zM13.82 48.45s.76-.18 1.11.6c0 0 .42-.02.16-.76 0 0 .34.23.41.51 0 0 1.14-.81-.02-1.68s-1.67 1.33-1.67 1.33zm.06-7.38s.75.19 1.12-.58c0 0 .42.03.14.76 0 0 .34-.22.42-.5 0 0 1.13.83-.05 1.68s-1.64-1.36-1.64-1.36z"/></g><path d="M10.7,47.94l.06-6.24s-2.79.47-3,1.91c-.23,1.58-.23,3.48,2.95,4.33Z" class="a"/><path d="M23.01 46.58l5.85-.79.5.35-.5-1.05-5.87-.14.02 1.63z" class="X"/><path d="M28.86 45.79v-.7h.64v1.65s-.45-.51-.64-.95z" class="Z"/><path d="M22.98 43.13l5.87.71.49-.36-.49 1.06-5.86.22-.01-1.63z" class="X"/><path d="M24.1 42.86l1.19.09.01 1.79-1.18.14 1.18.1.02 1.71-1.25.18.03-4.01z" fill="#464646"/><g class="Z"><path d="M28.85 43.84v.7h.65v-1.65s-.47.52-.65.96zm-4.79 3.56l.05-5.07-6.9-.06-.04 4.74 6.89.39z"/></g><path d="M17.87 48.2l4.61 6.19c.53.54 0-.5 0-.5s.57.44.62.33-.35-.6-.35-.6.59.46.71.28c.08-.13-.45-.64-.45-.64s.68.22.69.07-.85-.72-.99-.94l-3.33-5.05-1.51.85z" class="W"/><path d="M20.02,46.83l1.41,2.31-1.93,1.38s-2.34-2.84-2.33-3.51l2.85-.18Z" class="Z"/><path d="M17.89 41.43l4.34-6.38c.51-.56.02.5.02.5s.55-.47.61-.36-.32.62-.32.62.57-.49.7-.31c.09.12-.43.65-.43.65s.67-.24.69-.1-.82.76-.95.98l-3.11 5.19-1.55-.78z" class="W"/><path d="M20.06,42.56l1.45-2.28-1.91-1.41s-2.39,2.8-2.39,3.47l2.85.23Z" class="Z"/><g class="W"><path d="M16.498 45.511l.014-1.49.81.007-.014 1.49z"/><circle cx="13.45" cy="44.75" r="3.5"/></g><g class="X"><path d="M14.14 44.21l-.9.59.9.59.15-.29-.64-.3.64-.36-.15-.23zm-1.43-.85s.71.23.86-.08-.79-.41-.79-.41l.12-.23s.9.13.87.63-1.06.37-1.06.37v-.29zm.03 3.03s.74.13.84-.2-.84-.29-.84-.29l.09-.24s.91 0 .95.51-1 .52-1 .52l-.04-.29z"/><path d="M14.29,43.86s.84.36.73.94-.66.75-.66.75l.11.21s.77-.32.71-1.11-.79-.98-.79-.98l-.1.19Z"/></g><g class="a"><circle cx="14.31" cy="42.94" r=".53"/><circle cx="14.31" cy="46.49" r=".53"/></g><g class="W"><circle cx="13.45" cy="40.77" r=".78"/><circle cx="13.44" cy="48.58" r=".78"/></g><g class="X"><path d="M12.84 41.25s-.32 1.89-2.4 3.44c0 0 2.37 1.58 2.34 3.48 0 0-2.46.08-2.8-2.98-.41-3.78 2.86-3.94 2.86-3.94zm1.07 6.96s-.85-.21-.96.28.49.66.49.66l.06-.12s-.44-.23-.38-.44.82-.18.82-.18l-.03-.19zm0-7.13s-.76.44-1 0 .29-.77.29-.77l.09.1s-.36.35-.24.53.84-.05.84-.05l.03.19z"/></g><path d="M23.18 47.39l1.26.01.05-5.14-1.26.06-.05 5.07z" fill="#464646"/><path d="M11.193 44.736l.457-.448.448.457-.457.448z" class="Z"/><path d="M12.34,50.87l.11-12.08-2.21-.6s-1.27,5.97.07,13.29l2.03-.61Z" class="e"/><g class="Z"><path d="M12.03 50.45l-1.81-.64 1.83-1.16-.02 1.8zm.11-11.37l-1.82.6 1.8 1.2.02-1.8zm-.09 9.49l-1.97-.92 1.99-.88-.02 1.8zm.02-2.02l-1.97-.92 1.99-.88-.02 1.8zm.03-3.76l-1.97-.92 1.99-.88-.02 1.8z"/><path d="M12.09 44.75l-1.97-.92 1.98-.88-.01 1.8z"/></g><path d="M20.77 52.16s5.4-1.27 5.51-7.1-5.57-7.83-5.57-7.83l-3.74 5.04.2 5.07c.92 1.45 3.61 4.82 3.61 4.82z" class="e"/><g class="Z"><path d="M17.62 48.01s1.3-1.55 1.11-3.4c-.21-2.03-1.37-3.03-1.37-3.03l.76-1.06s2.12 1.58 1.99 4.48-1.63 4.2-1.63 4.2l-.87-1.19zm1.41 1.92s2.61-1.26 2.73-4.91-2.99-5.34-2.99-5.34l.89-1.14s3.71 2.28 3.33 6.42-3.36 5.75-3.36 5.75l-.6-.78zm1.29 1.65s4.7-2.16 4.6-6.8-4.47-7.17-4.47-7.17l.47-.69s5.16 1.7 5.44 7.83-5.35 7.73-5.35 7.73l-.69-.89zm-3.3-5.37l-.07-2.72a1.89 1.89 0 0 0 .66 1.32c.06.87-.59 1.4-.59 1.4z"/></g><circle cx="20.88" cy="50.53" r=".3" class="Y"/><circle cx="22.28" cy="49.12" r=".3" class="a"/><g class="Y"><circle cx="23.27" cy="47.39" r=".3"/><circle cx="23.44" cy="42.74" r=".3"/></g><circle cx="22.36" cy="40.56" r=".3" class="a"/><g class="Y"><circle cx="21.19" cy="38.87" r=".3"/><circle cx="20.84" cy="44.74" r=".3"/></g><circle cx="18.2" cy="44.91" r=".3" class="a"/><g class="Y"><circle cx="17.6" cy="46.53" r=".3"/><circle cx="17.42" cy="43.08" r=".3"/></g><circle cx="20.62" cy="47.07" r=".3" class="a"/><circle cx="19.59" cy="48.64" r=".3" class="Y"/><circle cx="20.4" cy="42.71" r=".3" class="a"/><circle cx="19.05" cy="40.85" r=".3" class="Y"/><circle cx="23.83" cy="45.03" r=".3" class="a"/><path d="M41.42 72.29l-6.03-4.82c-.52-.55.5.02.5.02s-.42-.59-.31-.64.59.37.59.37-.44-.61-.25-.72c.13-.08.62.48.62.48s-.19-.69-.05-.7.69.88.91 1.03l4.93 3.5-.9 1.48z" class="W"/><path d="M42.87,70.19l-3.85-4.1-2.26,2.51s5.17,4.41,5.83,4.43l.27-2.84Z" class="f"/><path d="M36.77 68.6l2.25-2.51.6.63-2.2 2.43-.65-.55z" class="Y"/><g class="c"><path d="M47.43 81.92l-2.11-.95.01-.26 2.33.71-.23.5zm-4.91-.12l2.16-.84v-.26l-2.37.59.21.51z"/></g><g class="X"><circle cx="44.99" cy="77.65" r="3.7"/><circle cx="44.9" cy="81.14" r="1.14"/></g><g class="W"><path d="M46.99 67.31l-.69-5.87.36-.49-1.06.48-.23 5.86 1.62.02z"/><path d="M46.3 61.44h-.7v-.65l1.65.02s-.52.46-.96.63zm-2.75 5.83l.8-5.85-.35-.5 1.05.5.13 5.87-1.63-.02z"/><path d="M44.35 61.42h.7v-.63l-1.65-.02s.51.46.95.65z"/></g><path d="M47.81 67.14l-5.07-.13-.15 6.02 4.74.12.48-6.01z" class="f"/><path d="M48.54 72.47l6.27-4.51c.55-.52-.5 0-.5 0s.45-.57.34-.62-.61.34-.61.34.47-.58.29-.7c-.12-.08-.64.44-.64.44s.23-.68.09-.69-.74.84-.96.98l-5.1 3.25.82 1.53z" class="W"/><path d="M47.2,70.3l4.05-3.9,2.13,2.62s-5.38,4.15-6.05,4.13l-.13-2.85Z" class="f"/><g class="W"><path d="M44.338 73.752l.02-.81 1.49.038-.02.81z"/><circle cx="45.01" cy="76.83" r="3.5"/></g><g class="X"><path d="M44.48 76.13l.58.91.61-.89-.3-.15-.3.63-.36-.64-.23.14zm-.87 1.42s.24-.71-.07-.86-.42.78-.42.78l-.23-.12s.14-.9.65-.86.36 1.06.36 1.06h-.29zm3.03.01s.14-.73-.19-.84-.31.83-.31.83l-.24-.09s.02-.91.52-.94.5 1 .5 1l-.29.04z"/><path d="M44.13,75.98s.37-.83.95-.71.74.67.74.67l.21-.11s-.31-.78-1.1-.73-.99.77-.99.77l.19.1Z"/></g><g class="a"><circle cx="43.21" cy="75.94" r=".53"/><circle cx="46.77" cy="76" r=".53"/></g><g class="W"><circle cx="41.03" cy="76.77" r=".78"/><circle cx="48.85" cy="76.9" r=".78"/></g><g class="X"><path d="M48.48 76.43s-.22.85.26.97.67-.47.67-.47l-.12-.06s-.24.44-.45.37-.17-.82-.17-.82l-.19.02zm-7.13-.12s.42.77-.02 1-.76-.3-.76-.3l.1-.09s.34.36.52.25-.04-.84-.04-.84l.19-.02z"/></g><path d="M47.81 67.14l.14-5.63-5.07-.01-.14 5.51 5.07.13z" class="f"/><g class="X"><path d="M48.04 78.01s0-1.11-.24-1.73l.29-.1s.52 1.36.35 2.38l-.4-.54zm-6.17-.16s-.02-1.07.25-1.68l-.21-.16s-.4.68-.42 1.55l.37.29z"/><path d="M41.5 77.56l3.5.37.16.77.02-.76 3.14-.08s-.27 2.29-3.13 2.69-3.7-2.98-3.7-2.98z"/></g><path d="M46.1 73.12l-2.18-.06 1.23-1.62.95 1.68z" class="W"/><g class="Y"><path d="M46.41 69.47l-2.49 3.59-.63-.01 2.55-3.68.57.1z"/><path d="M46.1 73.12l-1.3-1.91.38-.35 1.48 2.27-.56-.01z"/></g><path d="M47.74 70.06l-5.07-.15.06-2.34 5.07.13-.06 2.36z" class="X"/><path d="M42.687 68.909l.012-.49 5.078.129-.012.49z" class="c"/><g class="Y"><path d="M46.96 61.51l-.16 6.16-.54-.01.15-6.15h.55zm6.42 7.51l-2.13-2.62-.62.6 2.06 2.54.69-.52z"/></g><path d="M47.14 60.78l-1.66-.03" class="W"/><g class="X"><path d="M47.26 60.877l-1.66-.023.003-.25 1.66.023zm-2.21-.03l-1.66-.023.003-.25 1.66.023z"/></g><path d="M42.21 12.43s-.41-2.68 2.21-3.71c2.63-1.04 4.04 1.19 4.04 1.19s.9.9.67 2.6c0 0-4.52-1.28-6.93-.07z" class="b"/><path d="M43.8 22.65l.78 5.86-.36.5 1.06-.5.14-5.86H43.8z" class="W"/><path d="M44.58 28.51h.7v.64h-1.65s.52-.45.95-.64z" class="d"/><path d="M47.24 22.64l-.71 5.86.36.49-1.06-.48-.22-5.86 1.63-.01z" class="W"/><path d="M46.53 28.5h-.7v.64h1.65s-.52-.47-.96-.64z" class="d"/><path d="M42.98 23.71l5.06.06.08-6.9-4.74-.05-.4 6.89z" class="Y"/><path d="M42.18 17.52l-6.2 4.6c-.54.53.5 0 .5 0s-.45.57-.33.62.6-.35.6-.35-.46.59-.28.71c.13.08.64-.45.64-.45s-.22.68-.08.69.72-.85.94-.99l5.05-3.32-.85-1.51z" class="W"/><path d="M43.55,19.67l-2.31,1.41-1.37-1.93s2.85-2.33,3.51-2.32l.17,2.85Z" class="Y"/><path d="M48.96 17.54l6.38 4.35c.56.51-.5.02-.5.02s.47.56.36.61-.62-.32-.62-.32.48.57.31.7c-.12.09-.65-.43-.65-.43s.24.67.1.69-.76-.82-.98-.96l-5.18-3.12.78-1.55z" class="W"/><path d="M47.83,19.71l2.28,1.46,1.42-1.9s-2.8-2.39-3.46-2.4l-.23,2.85Z" class="Y"/><g class="W"><path d="M44.858 16.964l.009-.81 1.49.016-.009.81z"/><circle cx="45.64" cy="13.1" r="3.5"/></g><g class="X"><path d="M46.18 13.8l-.59-.91-.59.9.29.15.3-.64.36.64.23-.14zm.86-1.44s-.23.71.08.86.41-.79.41-.79l.23.12s-.13.9-.64.87-.37-1.06-.37-1.06h.29zm-3.04.03s-.13.74.2.84.3-.84.3-.84l.24.09s0 .91-.51.95-.52-1-.52-1l.29-.04z"/><path d="M46.53,13.94s-.36.84-.94.72-.75-.66-.75-.66l-.21.11s.32.77,1.11.71.98-.79.98-.79l-.19-.1Z"/></g><g class="a"><circle cx="47.45" cy="13.96" r=".53"/><circle cx="43.9" cy="13.96" r=".53"/></g><g class="W"><circle cx="49.62" cy="13.11" r=".78"/><circle cx="41.81" cy="13.09" r=".78"/></g><path d="M49.14,12.49s-1.13-2.2-5.24-2.42c0,0,.23,2.38-1.68,2.35,0,0-.07-1.91,1.5-2.84.38-.22.86-.39,1.46-.46,3.78-.41,3.97,3.36,3.97,3.36Z" class="b"/><g class="X"><path d="M42.18 13.55s.21-.85-.28-.96-.66.48-.66.48l.12.06s.23-.44.44-.38.18.82.18.82l.19-.03zm7.13.02s-.44-.76 0-1 .77.29.77.29l-.1.09s-.35-.36-.53-.24.05.84.05.84l-.19.03z"/></g><g class="g"><path d="M44.08 16.82h.53v6.22h-.53zm2.65 0h.53v6.22h-.53z"/></g><path d="M44.74 16.83h1.69l-.82 1.3-.87-1.3z" class="W"/><path d="M45.68 18.89l-1.36 1.04 1.36 1.04 1.36-1.04-1.36-1.04z" class="g"/><g class="d"><path d="M47.51 23.76l-.08 1.18-1.79.01-.15-1.18-.09 1.19-1.72.01-.17-1.25 4 .04z"/><path d="M42.99 22.83l-.02 1.26 5.15.06-.07-1.26-5.06-.06z"/></g><g class="Y"><path d="M44.32 26.52h1.01l-.05 1.99h-.7l-.26-1.99zm1.43 0h1.02l-.24 1.98-.7.01-.08-1.99z"/></g><path d="M43.18,9.4s1.68,2.2,4.06,2.56c0,0,1.54-3.63-4.06-2.56Z" class="b"/><path d="M40.86 11.04h9.66l-1.76-.74-1.28-3.01-1.9.6-1.95-.6-1.21 3.01-1.56.74z" class="g"/><path d="M42.42 10.3h6.34l-.46-1.09h-5.45l-.43 1.09z" class="d"/><g class="h"><path d="M72.4,45.81l9.49.51s.02,2.67-2.43,3.74-7.96-.31-7.96-.31l.91-3.95Z"/><path d="M72.4,45.84l9.49.51s.31-2.65-2.02-3.98-7.95-.56-7.95-.56l.47,4.02Z"/></g><g fill="#4e4e4e"><path d="M76.56 42.64s-1.53-.14-2.18.19-1.42.66-1.5 2.99l3.5.19.18-3.37zm-.37 6.81s-1.54-.03-2.15-.43-1.34-.81-1.17-3.14l3.5.19-.18 3.37z"/></g><path d="M67.59 43.74l-5.89.46-.48-.38.44 1.08 5.85.46.08-1.62z" class="W"/><path d="M61.7,44.2l-.03.7-.64-.03.08-1.65s.43.54.59.99Z" class="X"/><path d="M67.42 47.18l-5.82-1.04-.51.34.55-1.03 5.86.1-.08 1.63z" class="W"/><path d="M61.6,46.14l.03-.7-.64-.03-.08,1.65s.48-.49.69-.93Z" class="X"/><path d="M61.83 42.04l-.38 6.75 11.69-.42.3-4.73-11.61-1.6z" class="Y"/><path d="M72.81 42.4l-4.26-6.44c-.5-.57-.03.49-.03.49s-.55-.48-.61-.37.31.62.31.62-.56-.49-.69-.32c-.09.12.42.66.42.66s-.67-.25-.69-.11.81.77.94 1l3.04 5.23 1.56-.76z" class="W"/><path d="M70.59,43.65l-2.98-5.11,1.82-1.31s4.06,5.73,4.01,6.4l-2.86.02Z" class="Y"/><path d="M72.41 49.17l-4.69 6.13c-.54.53 0-.5 0-.5s-.58.44-.63.32.36-.6.36-.6-.6.45-.71.27c-.08-.13.46-.63.46-.63s-.69.21-.69.07.86-.71 1.01-.93l3.39-5 1.5.87z" class="W"/><path d="M70.31,47.92l-3.48,4.86,1.67,1.55s4.59-5.35,4.64-6.02l-2.83-.39Z" class="Y"/><g class="W"><path d="M73.119 46.584l.097-1.487.808.053-.097 1.487z"/><circle cx="77.03" cy="46.1" r="3.5"/></g><g class="X"><path d="M76.31 46.6l.93-.54-.87-.64-.16.28.62.34-.65.32.13.24zm1.38.93s-.7-.27-.86.03.77.45.77.45l-.13.22s-.89-.18-.84-.68 1.08-.31 1.08-.31l-.02.29zm.14-3.03s-.73-.17-.85.15.82.34.82.34l-.1.24s-.91-.06-.92-.56 1.02-.46 1.02-.46l.02.29z"/><path d="M76.14,46.94s-.82-.4-.67-.98.7-.71.7-.71l-.1-.22s-.79.28-.77,1.07.73,1.02.73,1.02l.11-.19Z"/></g><g class="a"><circle cx="76.07" cy="47.86" r=".53"/><circle cx="76.27" cy="44.31" r=".53"/></g><g class="h"><path d="M76.61 41.66c4.71.21 4.56 4.63 4.56 4.63l-1.34-.07c-.21-1.65-.91-.8-1.21-2.31-.24-1.19-1.38-1.29-1.86-1.28l-.21.01.05-.97z"/><path d="M76.14,50.4c4.7.3,5.04-4.11,5.04-4.11l-1.34-.07c-.39,1.62-.99.7-1.45,2.17-.36,1.16-1.54,1.2-2.01,1.14-.13-.02-.21.47-.21.47l-.02.4Z"/></g><path d="M78.01 50.42s1.96-1.08 2.13-4.16-1.67-4.39-1.67-4.39c.32.03.75.21.75.21s1.52.9 1.39 4.25-2.06 4.01-2.06 4.01-.27.07-.54.08z" class="X"/><g class="b"><path d="M68.3 25.76s-.42.64.18 1.29 1.67-.9 1.53-1.48-1.56-.34-1.71.19zm-3-3.26s-.67.37-1.27-.28 1.04-1.59 1.6-1.4.21 1.59-.33 1.68zm1.21-2.67s1.69-2.12 4.23-.89 1.86 3.78 1.86 3.78-.05 1.27-1.45 2.25c0 0-2.12-4.19-4.64-5.14z"/></g><path d="M60.05 27.93l-3.78 4.54-.61.07 1.09.44 4.41-3.87-1.11-1.18z" class="W"/><path d="M56.27,32.47l.48.51-.47.43-1.13-1.21s.69.07,1.12.26Z" class="X"/><path d="M62.4 30.45l-4.81 3.44-.11.6-.36-1.11 4.17-4.13 1.11 1.2z" class="W"/><g class="X"><path d="M57.59 33.89l-.48-.51-.47.44 1.13 1.21s-.02-.69-.18-1.14zm1.13-5.85l3.39 3.76 5.13-4.61-3.18-3.53-5.34 4.38z"/></g><path d="M62.74 23.26l-7.59-1.45c-.76-.04.34.36.34.36s-.72.06-.68.18.66.21.66.21-.75.06-.71.28c.03.15.76.16.76.16s-.65.3-.56.41 1.12-.04 1.37.02l5.87 1.47.54-1.65z" class="W"/><path d="M62.08,25.72l-2.6-.75.49-2.32s3.64.52,4.09,1.01l-1.98,2.06Z" class="X"/><path d="M67.31 28.26l1.12 7.64c0 .76-.35-.35-.35-.35s-.09.72-.21.68-.18-.67-.18-.67-.09.74-.31.7c-.15-.03-.13-.77-.13-.77s-.33.63-.44.54.09-1.11.04-1.37l-1.21-5.92 1.67-.47z" class="W"/><path d="M64.94,28.9l.47,2.66,2.36-.25s-.13-3.68-.58-4.17l-2.25,1.76Z" class="X"/><g class="W"><path d="M64.965 24.858l.602-.542.997 1.107-.602.542z"/><circle cx="68.33" cy="22.81" r="3.5"/></g><g class="X"><path d="M68.19 23.68l.26-1.05-1.07.18.1.31.67-.21-.23.7.27.07zm1.63-.34s-.68.31-.58.64.86-.23.86-.23l.07.25s-.75.51-1.07.12.53-.99.53-.99l.2.22zm-2.08-2.21s-.63.4-.48.71.82-.35.82-.35l.1.24s-.68.61-1.05.27.38-1.05.38-1.05l.23.19z"/><path d="M68.32,24.04s-.86.3-1.17-.2-.02-1-.02-1l-.22-.08s-.35.76.23,1.3,1.24.19,1.24.19l-.06-.21Z"/></g><g class="a"><circle cx="68.92" cy="24.73" r=".53"/><circle cx="66.52" cy="22.11" r=".53"/></g><g class="W"><circle cx="71.02" cy="25.74" r=".78"/><circle cx="65.74" cy="19.99" r=".78"/></g><path d="M71.15,24.98s-1.53-1.85-.57-4.23c0,0-1.48,1.74-4.07-.92,0,0,1.36-1.35,3.1-.82.42.13.87.37,1.32.77,2.86,2.51.22,5.19.22,5.19Z" class="b"/><g class="X"><path d="M65.65 20.57s.77-.42.52-.86-.8-.16-.8-.16l.04.13s.48-.13.58.07-.48.69-.48.69l.15.12zm4.82 5.26s.27-.84.74-.67.31.76.31.76h-.14s.03-.51-.18-.56-.58.6-.58.6l-.15-.12z"/></g><g class="d"><path d="M61.75 31.41l-.93.74-1.21-1.31.77-.91-.94.73-1.17-1.25.8-.98 2.68 2.98z"/><path d="M59.37 27.45l-.93.84 3.44 3.82.88-.9-3.39-3.76z"/></g><g class="Y"><path d="M57.56 30.93l.68.74-1.49 1.31-.48-.51 1.29-1.54zm.97 1.05l.69.75-1.63 1.16-.47-.51 1.41-1.4zm7.98-12.15s1.68-.68 3.6.64 1.04 4.51 1.04 4.51 1.32.16 2.26-.05c1.06-.24-.62-.83-.62-.83s1.29-3.6.51-4.88c-1.33-2.2-5.63-.54-5.63-.54s-.27-1.64-.78-1.34-.38 2.49-.38 2.49z"/></g><g class="b"><path d="M62.86,23.34s1.74-.18,1.3-1.26-1.68.05-1.8.56.5.7.5.7Z"/><path d="M62.69 25.09s1.14-1.18.15-1.88c-.59-.42-1.56.62-1.16 1.57l.36-.34.04.56.45-.42.15.5zm4.57 3.03s.32-1.72 1.37-1.19-.19 1.67-.71 1.75-.66-.56-.66-.56z"/><path d="M65.5 28.14s1.27-1.04 1.89 0c.37.63-.75 1.5-1.66 1.03l.36-.33-.56-.09.45-.42-.49-.19zm1.64-8.13s-1.12.88-1.32 1.21l-.31-.2s.4-.86.99-1.2.64.18.64.18zm3.9 4.25s-.97 1.04-1.32 1.21l.17.32s.89-.33 1.27-.89-.13-.65-.13-.65z"/></g><path d="M54.79,29.39l5.94,6.46s3.64-3.21,3.21-5.71l-3.35-3.64s-2.88-.18-5.8,2.89Z" class="X"/><g class="Y"><path d="M64.64 24.3l1.83 1.97s-1.16 1.91-2.36.58c-1.46-1.61.53-2.55.53-2.55zm-8.22 5.39l4.21 4.57s2.61-3.04 2.71-4.96l-1.96-2.13s-1.76-.15-4.96 2.52z"/></g><g class="h"><path d="M64.78 24.46s-1.41 1.16-.75 2c.93 1.17 2.24-.39 2.24-.39l.18.2s-1.2 2-2.55.48.66-2.52.66-2.52l.21.24zm-4.18 2.037l.324-.298 3.345 3.635-.324.298z"/></g><g class="b"><path d="M23.52 71.27s.77-.1 1.05.71c0 0 .42.02.23-.74 0 0 .31.26.36.55 0 0 1.21-.69.15-1.68s-1.79 1.16-1.79 1.16zm-4.6-4.82s.14-.76-.66-1.08c0 0 0-.42.75-.2 0 0-.25-.33-.53-.39 0 0 .75-1.18 1.68-.07s-1.24 1.74-1.24 1.74z"/><path d="M24.62 70.34s-1.65 2.15-4.21.97-1.94-3.74-1.94-3.74.02-1.27 1.41-2.28c0 0 2.2 4.15 4.74 5.05z"/></g><path d="M30.91 62.12l3.69-4.62.61-.08-.99-.45-4.44 3.98 1.13 1.17z" class="W"/><path d="M34.6,57.5l-.49-.5.46-.44,1.15,1.19s-.69-.05-1.13-.24Z" class="d"/><path d="M28.52 59.64l4.73-3.53.11-.61.38 1.11-4.09 4.21-1.13-1.18z" class="W"/><path d="M33.25,56.11l.49.5.46-.45-1.15-1.19s.03.69.2,1.13Z" class="d"/><path d="M32.24 61.98l-3.46-3.7L23.74 63l2.67 2.85.57.61 5.26-4.48z" class="Y"/><path d="M28.32 66.84l7.61 1.3c.76.02-.34-.36-.34-.36s.72-.07.68-.19-.67-.2-.67-.2.75-.07.7-.29c-.03-.15-.77-.15-.77-.15s.64-.32.55-.42-1.12.07-1.37 0l-5.89-1.36-.51 1.66z" class="W"/><path d="M28.92,64.36l2.61.7-.45,2.33s-3.65-.45-4.11-.93l1.94-2.09Z" class="Y"/><path d="M23.65 61.92l-1.26-7.62c-.02-.76.36.34.36.34s.08-.72.19-.68.19.67.19.67.08-.75.29-.7c.15.03.14.77.14.77s.32-.64.43-.55-.07 1.12-.01 1.37l1.33 5.9-1.66.5z" class="W"/><path d="M26,61.24l-.52-2.65-2.35.29s.2,3.67.66,4.16l2.22-1.8Z" class="Y"/><g class="W"><path d="M24.458 64.758l.591-.554 1.018 1.088-.591.554z"/><circle cx="22.73" cy="67.39" r="3.5"/></g><g class="X"><path d="M22.86 66.52l-.24 1.05 1.06-.19-.1-.32-.66.23.21-.7-.27-.07zm-1.62.37s.67-.33.56-.65-.85.25-.85.25l-.07-.25s.74-.53 1.07-.14-.51 1-.51 1l-.2-.21zm2.12 2.18s.62-.42.47-.72-.81.37-.81.37l-.1-.23s.66-.63 1.04-.29-.36 1.06-.36 1.06l-.23-.18z"/><path d="M22.73,66.17s.85-.32,1.18.18.04,1,.04,1l.23.07s.34-.77-.25-1.29-1.25-.17-1.25-.17l.06.21Z"/></g><g class="a"><circle cx="22.11" cy="65.49" r=".53"/><circle cx="24.56" cy="68.06" r=".53"/></g><g class="W"><circle cx="19.99" cy="64.51" r=".78"/><circle cx="25.38" cy="70.17" r=".78"/></g><path d="M19.88,65.28s.62,1.08.65,4.22c0,0,1.57-.54,4.09.84,0,0-1.34,1.37-3.09.88-.43-.12-.88-.35-1.34-.74-2.91-2.45-.32-5.19-.32-5.19Z" class="b"/><g class="X"><path d="M25.46 69.58s-.76.44-.5.87.81.14.81.14l-.04-.13s-.48.13-.58-.06.47-.7.47-.7l-.15-.12zm-4.92-5.16s-.25.84-.73.69-.32-.75-.32-.75h.14s-.02.51.19.56.57-.61.57-.61l.15.12z"/></g><g class="c"><path d="M29.14 58.67l3.66-2.4.71.74-2.96 3.11 3.24-2.82.69.72-2.6 3.58-2.74-2.93z"/><path d="M31.98 62.24l.54-.52L29 57.97l-.86.91 3.84 3.36z"/></g><g class="b"><path d="M23.98 70.17s1.1-.91 1.29-1.24l.31.19s-.38.87-.97 1.22-.64-.17-.64-.17zM19.99 66s.95-1.06 1.29-1.24l-.18-.32s-.88.34-1.26.91.14.65.14.65z"/></g><g class="d"><path d="M24.36 73.19s.75-1.88-2.37-5.15-4.93-2.31-4.93-2.31l7.3 7.46z"/><path d="M23.33 71.66l-4.63-4.84s-1.48 3.46-.9 4.02 1.55.2 1.55.2-.42.98.18 1.38c.44.29 3.79-.76 3.79-.76z"/></g><path d="M22.28 71.99l-3.97-4.14.22-.62 4.4 4.6-.65.16z" class="a"/><g class="d"><path d="M34.4 56.73l-.68.65.6.48.58-.56-.5-.57zm-.2-.57l-.77.77-.53-.56.68-.65.62.44zm-2.22 6.08l-3.53-3.69-.49.51 3.47 3.63.55-.45zm-.81.66s-1.27-.4-1.95-.02-3.08 2.69-3.08 2.69l.85.89 4.18-3.56z"/><path d="M27.64 59.35s.44 1.25.03 1.92-2.82 2.96-2.82 2.96l-1.1-1.15 3.89-3.73z"/></g><path d="M26.45,65.89s-1.58-.23-2.09-2.19l2.72-.33-.62,2.52Z" class="Z"/><path d="M30.013 61.524l-.919-.961.824-.788.919.961z" class="b"/><path d="M29.988 61.049l-.422-.441.383-.366.422.441z" class="d"/><g class="Y"><path d="M34.212 58.463l-.871-.91.361-.346.871.91zm-1.007-1.051l-.871-.91.361-.346.871.91z"/></g><path d="M32.1 13.69s-1.98.03-2-1.16c-.02-.9 1.36.27 1.36.27s-.44-1.35.2-1.47.44 2.37.44 2.37z" class="Z"/><g class="c"><path d="M35.23 13.89s-1.96-.25-1.82-1.44c.11-.89 1.31.46 1.31.46s-.24-1.4.41-1.43.1 2.41.1 2.41zM13.97 57.3s-1.48 1.31-2.28.41c-.6-.67 1.21-.68 1.21-.68s-1.21-.74-.8-1.25 1.87 1.52 1.87 1.52z"/></g><path d="M32.34 16.12s-1.62 1.13-2.31.15c-.52-.74 1.28-.54 1.28-.54s-1.12-.88-.65-1.33 1.68 1.72 1.68 1.72z" class="e"/><path d="M75.54 32.18s.16-1.97 1.36-1.88c.9.07-.4 1.33-.4 1.33s1.39-.31 1.45.34-2.4.2-2.4.2z" class="Z"/><g class="c"><path d="M75.02 35.28s.44-1.93 1.61-1.67c.88.19-.59 1.26-.59 1.26s1.42-.1 1.38.55-2.4-.14-2.4-.14zM56.76 74.06s1.91.52 1.6 1.68c-.23.87-1.23-.64-1.23-.64s.04 1.42-.6 1.36.24-2.4.24-2.4z"/></g><path d="M73.09 32.19s-.96-1.73.08-2.32c.78-.44.41 1.33.41 1.33s.98-1.03 1.39-.52-1.88 1.5-1.88 1.5z" class="e"/><path d="M33.02 76.43s.8 1.81-.3 2.3c-.82.37-.28-1.36-.28-1.36s-1.08.93-1.43.39 2.01-1.32 2.01-1.32z" class="Z"/><path d="M32 73.46s.53 1.9-.62 2.23c-.87.25-.08-1.39-.08-1.39s-1.2.77-1.48.18S32 73.46 32 73.46z" class="c"/><path d="M35.16 75.26s1.67 1.06 1.03 2.07c-.48.76-.99-.98-.99-.98s-.38 1.37-.98 1.12.94-2.22.94-2.22z" class="e"/><g class="Z"><path d="M74.79 58.42s1.96-.27 2.13.91c.13.89-1.39-.1-1.39-.1s.6 1.29-.02 1.49-.72-2.3-.72-2.3zm-13.3 15.54s1.96-.27 2.13.91c.13.89-1.39-.1-1.39-.1s.6 1.29-.02 1.49-.72-2.3-.72-2.3z"/></g><path d="M74.26 56.03s1.48-1.31 2.28-.42c.6.67-1.21.69-1.21.69s1.21.74.81 1.25-1.88-1.51-1.88-1.51z" class="e"/><path d="M15.79 31.43s-1.95.3-2.14-.89c-.14-.89 1.39.08 1.39.08s-.62-1.28 0-1.49.75 2.29.75 2.29z" class="Z"/><g class="e"><path d="M16.35 33.81s-1.46 1.33-2.27.45c-.61-.66 1.2-.7 1.2-.7s-1.22-.72-.82-1.24 1.9 1.48 1.9 1.48zm-.04 25.17s.29 1.95-.89 2.14c-.89.14.09-1.39.09-1.39s-1.28.61-1.49 0 2.29-.74 2.29-.74zM57.27 16.8s-.63-1.87.5-2.26c.85-.29.16 1.38.16 1.38s1.15-.83 1.46-.26-2.12 1.14-2.12 1.14z"/></g><g fill="#fff"><path d="M29.56 19.12l.16-.73.27.72.49-.26-.27.53.71.06-.76.28.3.54-.53-.3-.17.57-.26-.59-.46.23.31-.47-.68-.19.65-.17-.42-.39.66.17zm-.31 16.34l.16-.72.27.72.49-.26-.27.52.71.07-.76.27.3.54-.53-.3-.17.58-.26-.6-.46.23.31-.46-.68-.2.65-.17-.42-.39.66.17zM16.26 54.23l.16-.73.27.72.49-.26-.27.52.71.07-.76.27.3.54-.53-.29-.17.57-.27-.6-.46.24.32-.47-.68-.19.65-.17-.42-.4.66.18zm18.41 16.75l.15-.73.27.72.49-.26-.26.52.71.07-.77.27.31.54-.53-.29-.18.57-.26-.59-.46.23.32-.47-.68-.19.64-.17-.41-.39.66.17zm20.92-8.21l.15-.72.28.72.49-.26-.27.52.71.07-.76.27.3.54-.53-.3-.18.58-.26-.6-.46.23.32-.46-.68-.2.65-.17-.42-.39.66.17z"/><use xlink:href="#B"/><path d="M75.22 69.5l.16-.73.27.72.49-.26-.27.53.71.06-.76.28.3.54-.53-.3-.17.57-.26-.59-.46.23.31-.46-.68-.2.65-.17-.41-.39.65.17zm-3.07-32.46l.16-.72.27.72.49-.26-.27.52.71.07-.76.27.3.54-.53-.3-.17.58-.26-.6-.46.23.31-.46-.68-.2.65-.17-.41-.39.65.17zM58.47 71.32l.16-.73.27.72.49-.26-.27.52.71.07-.76.27.3.54-.53-.29-.17.57-.26-.6-.46.24.31-.47-.68-.19.65-.17-.42-.39.66.17zm4.63-18.73l.15-.73.28.73.48-.27-.26.53.71.06-.76.28.3.54-.53-.3-.18.58-.26-.6-.46.23.32-.46-.68-.2.65-.17-.42-.39.66.17zM16.85 26.37l.16-.73.27.72.49-.26-.27.52.71.07-.76.27.3.54-.53-.29-.17.57-.27-.6-.46.24.32-.47-.68-.19.65-.17-.42-.39.66.17zm11.1 25.91l.16-.73.27.72.49-.26-.27.53.71.06-.76.28.3.54-.53-.3-.17.57-.26-.59-.46.23.31-.46-.68-.2.65-.17-.42-.39.66.17zM39.54 26.7l.37-.4-.1.55.4.02-.36.23.42.3-.57-.11-.01.45-.23-.38-.32.3.06-.47-.38-.03.37-.17-.35-.37.47.13-.12-.4.35.35z"/><use xlink:href="#C"/><path d="M58.13 20.15l.36-.4-.09.55.4.02-.36.23.42.31-.58-.11-.01.44-.22-.38-.33.3.06-.47-.37-.02.37-.18-.36-.37.47.13-.11-.4.35.35zm6.97 17.74l.37-.4-.1.56.4.01-.36.23.42.31-.57-.11-.01.45-.23-.38-.32.29.06-.47-.38-.02.37-.18-.35-.37.47.13-.12-.4.35.35z"/><use xlink:href="#D"/><path d="M52.6 25.25l.2-.31v.38l.27-.03-.22.19.32.16-.4-.01.05.31-.2-.23-.18.23-.02-.32-.25.02.23-.16-.29-.21.34.04-.13-.26.28.2zm17.38 4.34l.2-.31v.38l.27-.03-.22.19.32.16-.4-.01.04.31-.19-.23-.18.23-.02-.32-.25.03.23-.16-.29-.21.33.03-.12-.26.28.2zm-43.51 6.03l.2-.32v.39l.27-.04-.21.2.32.16-.41-.01.05.3-.2-.23-.18.24-.02-.33-.25.03.23-.16-.28-.21.33.04-.13-.26.28.2zm-9.18 26.73l.2-.31v.38l.27-.03-.22.19.32.16-.4-.01.04.31-.19-.23-.18.23-.02-.32-.26.03.24-.16-.29-.21.33.03-.12-.25.28.19zm.34-10.26l.2-.31v.39l.27-.04-.21.2.32.15h-.41l.05.3-.2-.23-.18.24-.02-.33-.25.03.23-.16-.29-.21.34.03-.13-.25.28.19zm19.62 9.84l.2-.31V62l.27-.03-.21.19.32.16-.41-.01.05.31-.2-.23-.18.23-.02-.32-.25.02.23-.16-.28-.21.33.04-.13-.26.28.2zm1.29 10.35l.2-.31v.39l.27-.04-.21.2.31.16-.4-.01.05.3-.2-.23-.18.24-.02-.33-.25.03.23-.16-.29-.21.34.03-.13-.25.28.19zm13.23-9.86l.2-.31v.39l.27-.04-.22.2.32.15h-.4l.05.3-.2-.23-.18.24-.02-.33-.25.03.23-.16-.29-.21.34.03-.13-.25.28.19zm20.04-.07l.2-.31v.38l.28-.03-.22.19.32.16-.41-.01.05.31-.2-.23-.18.23-.01-.32-.26.03.23-.16-.28-.21.33.03-.13-.25.28.19z"/><path d="M71.81 53.31l.2-.31v.38l.28-.04-.22.2.32.16-.41-.01.05.31-.2-.24-.18.24-.01-.32-.26.02.23-.16-.28-.21.33.04-.13-.26.28.2zM60.18 19.74l.2-.31v.38l.28-.03-.22.19.32.16-.4-.01.04.31-.19-.24-.19.24-.01-.32-.26.02.23-.16-.28-.21.33.04-.12-.26.27.2z"/></g></g></svg>