<svg xmlns="http://www.w3.org/2000/svg" xmlns:xlink="http://www.w3.org/1999/xlink" viewBox="0 0 74.31 74.31" xmlns:v="https://vecta.io/nano"><style><![CDATA[.h{fill:#999}.i{fill:#353535}.j{stroke-width:0}.k{fill:#aeaeae}.l{fill:#9d9d9d}.m{fill:#707070}.n{fill:#7c7c7c}.o{fill:#d4d4d4}.p{fill:#b7b7b7}.q{fill:#c9c9c9}.r{fill:#d7d7d7}.s{fill:#b6b6b6}.t{fill:#9c9c9c}]]></style><defs><clipPath id="A"><circle cx="37.16" cy="37.16" r="37.16" fill="none" class="j"/></clipPath><clipPath id="B"><path d="M50.9 18.79c.81.33 1.72.42 2.58.28.16-.03.33-.06.49-.02.28.08.44.42.39.71s-.25.54-.48.72c-.52.42-1.22.6-1.88.48s-1.25-.54-1.59-1.12c-.12-.21-.21-.46-.15-.7s.33-.49.63-.36z" fill="none" class="j"/></clipPath><clipPath id="C"><path d="M47.11 12.98c-.28-.42-.87-.57-1.34-.4-.47.18-.81.63-.92 1.12s-.03 1.01.17 1.48c.14.34.34.66.64.87s.71.29.96.15c-.04 1.19.19 2.4.72 3.46.53 1.07 1.36 1.99 2.39 2.59 1.35.78 2.98.98 4.38.45 1.01-.38 1.94-1.06 2.58-1.93s1.06-1.91 1.19-2.97c.36.13.77.12 1.12-.03a1.6 1.6 0 0 0 .81-.77c.1-.22.16-.46.18-.7.04-.43-.02-.89-.28-1.23-.25-.35-.73-.55-1.11-.43l.05-.4v-.09c0-.04-.03-.07-.05-.1-.29-.42-.58-.86-.64-1.41 0 .21-.16.42-.37.44-.2.03-.4-.1-.55-.23-.21-.18-.38-.4-.55-.62-.63-.83-1.23-1.7-1.57-2.78-.03.52-.21 1.03-.52 1.45-.19.25-.44.48-.74.54-.25.05-.5 0-.73-.12s-.41-.28-.59-.46c-.57-.56-1.05-1.21-1.48-1.94-.3 1.12-1.13 2.02-1.95 2.84-.5.5-1.03 1-1.79 1.22z" fill="none" class="j"/></clipPath><clipPath id="D"><path d="M16.83 25.56a1.88 1.88 0 0 0 1.59.01c.16-.07.31-.17.48-.22s.37-.05.51.06c.13.1.18.28.16.44a.93.93 0 0 1-.2.44c-.34.47-.9.77-1.47.82-.58.05-1.17-.14-1.63-.49-.2-.16-.38-.36-.4-.62-.02-.21.11-.43.3-.53s.41-.03.65.08z" fill="none" class="j"/></clipPath><clipPath id="E"><path d="M12.03 19.78c-.34-.37-.81-.4-1.21-.27-.39.13-.66.51-.75.92-.08.4 0 .83.13 1.22.11.33.27.65.53.89s.62.38.96.31a.99.99 0 0 0 .49-.29c.04 1.65.81 3.27 2.06 4.34s2.81 1.54 4.22 1.27c1.29-.25 2.56-1.11 3.23-2.24.68-1.13.96-2.46.97-3.77.32.23.73.36 1.11.25s.67-.44.83-.8a2.19 2.19 0 0 0-.03-1.84c-.08-.16-.18-.32-.32-.43-.23-.18-.54-.24-.82-.17s-.53.25-.66.45c-2.3-.45-4.38-1.9-5.54-4-.48.98-1.28 1.79-2.18 2.41-.91.61-1.87 1.24-3.02 1.77z" fill="none" class="j"/></clipPath><path id="F" d="M32.4,97.74l-4.11-33.73c-.06-.5-.58-.86-1.17-.81h0c-.58.05-1.01.5-.95,1l4.11,33.73c.06.5.58.86,1.17.81h0c.58-.05,1.01-.5.95-1Z"/><path id="G" d="M56.78 47.88l-.41-7.94a13.18 13.18 0 0 0 4.56.29c.39-.04.79-.11 1.11-.26l-.14 7.84c-1.43.65-3.3.73-5.12.07z"/></defs><g clip-path="url(#A)"><g class="h"><rect y="62.69" width="30.73" height="2.07" rx=".22"/><path d="M-1.39,97.74l4.11-33.73c.06-.5.58-.86,1.17-.81h0c.58.05,1.01.5.95,1L.73,97.92c-.06.5-.58.86-1.17.81h0c-.58-.05-1.01-.5-.95-1Z"/><use xlink:href="#F"/><rect x="35.12" y="62.69" width="30.73" height="2.07" rx=".22"/><path d="M33.74 97.74l4.11-33.73c.06-.5.58-.86 1.17-.81h0c.58.05 1.01.5.95 1l-4.11 33.73c-.06.5-.58.86-1.17.81h0c-.58-.05-1.01-.5-.95-1zm33.78 0l-4.11-33.73c-.06-.5-.58-.86-1.17-.81h0c-.58.05-1.01.5-.95 1l4.11 33.73c.06.5.58.86 1.17.81h0c.58-.05 1.01-.5.95-1z"/></g><path d="M40.05,53.69c-1.16,2.23-1.68,4.79-1.49,7.29.03.45.11.94.43,1.25.34.34.87.38,1.35.41,7.01.37,14.05.35,21.06-.07.38-.02.8-.06,1.06-.34.19-.2.42-.92.47-1.19.27-1.47-.09-3.54-.48-4.64-.44-1.24-.99-1.9-1.42-2.24-1.42-1.14-4.5-.85-6.12-.83-4.92.04-9.9-.44-14.86.37Z" fill="#b2b2b2"/><g fill="#c8c8c8"><path d="M43.4 58.3c-1.43-.17-3.11 0-3.94 1.18s-1.02 2.68-1.11 4.12l-.09 6.74c.1 7.77.2 15.55 1.25 23.19 3.32.45 6.66-.38 10.11-1.16a545.82 545.82 0 0 1-1.51-25.24c-.06-1.76-.23-3.52-.73-5.21-.61-2.07-1.9-3.36-3.98-3.61zm13.87-.89c1.42-.24 3.11-.16 4 .97s1.16 2.62 1.32 4.05c.26 2.23.34 4.48.43 6.72.3 7.76.59 15.54-.07 23.23-3.29.62-6.67-.04-10.16-.64a546.79 546.79 0 0 0 .22-25.29c-.03-1.76.05-3.53.46-5.24.5-2.1 1.73-3.45 3.8-3.81z"/></g><path d="M65.85 39.58c-.19-1.75-.67-3.46-1.18-5.15-.48-1.61-1-3.23-1.81-4.7s-1.96-2.8-3.45-3.58c-.84-.44-1.75-.69-2.67-.95l-1.78-.49c-1.43-.4-2.88-.86-4.94-1.03a23.91 23.91 0 0 0-4.71.08c-.86.1-1.71.24-2.51.57-1.34.54-2.44 1.55-3.3 2.71s-1.48 2.47-2.08 3.78l-.84 2.11c-1.64 3.89-2.56 8.15-2.33 12.37.08 1.46.63 3.72 1.1 5.11.76 2.25 2.01 3.41 3.69 5.3.24-.13.49-.26.73-.38 1.03-.54 2.07-1.06 3.15-1.58l1.2-.58c-2.5-2.76-3.89-6.49-3.81-10.22.08-3.54 1.43-6.95 3.16-9.77-1.09 5.08-1.75 10.26-1.44 15.88 3.19.63 5.52.65 8.77.84 3.25.2 6.04.3 9.12-.96-.24-3.46-.12-6.91-.34-10.4a123.36 123.36 0 0 0 3.09 7.42c.15.33.34.7.7.8.34.1.69-.1.95-.34.48-.44.79-1.03 1.01-1.64.62-1.65.72-3.46.53-5.22z" class="i"/><path d="M49.25 7.06c-.58-.24-1.27-.31-1.8.02-.5.31-.73.91-.91 1.47-.6 1.89-.95 3.86-1.04 5.84-.05 1.08-.02 2.17.25 3.22s.79 2.05 1.6 2.76c.77.67 1.75 1.05 2.84 1.28 1.3.41 2.7.34 4.06.27.59-.03 1.19-.06 1.74-.27 1.09-.4 1.85-1.41 2.38-2.44.59-1.16.99-2.42.91-3.63 1.26-1.17 1.73-3.01 1.59-4.72-.05-.65-.18-1.3-.47-1.89-.49-1.01-1.38-1.76-2.33-2.34-2.08-1.28-4.69-1.88-7.02-1.12-.77.25-1.54.7-1.81 1.55z" class="n"/><g fill="#565656"><path d="M47.11 12.93a6.23 6.23 0 0 1 1.07-3.42c-.47 1.06-.95 2.15-1.07 3.42zm10.79-.21l-.09-1.92c.14.22.17.48.18.74.02.41.02.81-.09 1.18zm1.59 2.01c.52-.71.68-1.62.81-2.5.06.84-.2 1.7-.81 2.5zm-.83-.62c.15 0 .28-.1.36-.22a1.19 1.19 0 0 0 .15-.41 5.71 5.71 0 0 0 .05-2.06c.17.47.18.98.16 1.48-.01.3-.03.6-.13.88-.04.12-.1.25-.21.33s-.25.13-.37 0z"/></g><path d="M59.53 38.5c-.1-1.7-.2-3.42-.67-5.05l.67 5.05z" fill="#0f0f0f"/><path d="M70.13 26.64c.13-.04.12-.49-.03-.54-.15-.06-.31-.04-.46 0l-6.76 1.94c-.16-.33-.62-.32-.98-.26l-2.51.39c-.17.03-.39.14-.32.3.05.11.19.11.31.1l2.22-.26c.21-.02.45-.04.61.1-.37.3-.88.32-1.36.37a9.68 9.68 0 0 0-1.31.22c-.15.03-.38.18-.28.28.18.18.51.05.76.01l2.04-.23c.11 0 .25.01.26.12 0 .1-.12.15-.22.16l-2.14.32c-.2.03-.57.08-.51.28.06.19.37.13.57.14.87 0 1.58-.09 2.41-.34.33-.1.9-.28.81-1.02l6.88-2.06z" fill="#bfbfbf"/><path d="M60.32 29.08c.13-.34.14-.75-.07-1.05-.2-.3-.66-.44-.95-.22 0-.22-.19-.41-.4-.45-.22-.04-.44.03-.63.14a1.17 1.17 0 0 0-.53.61c-.1.26-.07.57.09.79a1.22 1.22 0 0 0-1.05.83c-.14.46.03.99.41 1.28s.94.31 1.34.06c.17.3.53.48.87.42s.63-.34.69-.68c.44 0 .85-.36.88-.8.04-.44-.31-.87-.66-.94z" class="h"/><path d="M49.51 20.9c-.08.58-.18 1.17-.39 1.72-.2.55-.52 1.07-.98 1.47.31.56.85.95 1.4 1.29.44.27.89.52 1.39.66.9.25 1.87.1 2.72-.28.55-.24 1.06-.57 1.43-1.03-.47-.21-.68-.77-.77-1.28l-.21-1.86c-.12-.61-.38-1.24-.9-1.58-.31-.21-.69-.3-1.06-.33a3.66 3.66 0 0 0-1.76.29c-.37.16-.81.42-.88.93z" class="k"/><path d="M47.11 12.98c-.28-.42-.87-.57-1.34-.4-.47.18-.81.63-.92 1.12s-.03 1.01.17 1.48c.14.34.34.66.64.87s.71.29.96.15c-.04 1.19.19 2.4.72 3.46.53 1.07 1.36 1.99 2.39 2.59 1.35.78 2.98.98 4.38.45 1.01-.38 1.94-1.06 2.58-1.93s1.06-1.91 1.19-2.97c.36.13.77.12 1.12-.03a1.6 1.6 0 0 0 .81-.77c.1-.22.16-.46.18-.7.04-.43-.02-.89-.28-1.23-.25-.35-.73-.55-1.11-.43l.05-.4v-.09c0-.04-.03-.07-.05-.1-.29-.42-.58-.86-.64-1.41 0 .21-.16.42-.37.44-.2.03-.4-.1-.55-.23-.21-.18-.38-.4-.55-.62-.63-.83-1.23-1.7-1.57-2.78-.03.52-.21 1.03-.52 1.45-.19.25-.44.48-.74.54-.25.05-.5 0-.73-.12s-.41-.28-.59-.46c-.57-.56-1.05-1.21-1.48-1.94-.3 1.12-1.13 2.02-1.95 2.84-.5.5-1.03 1-1.79 1.22z" class="o"/><g class="l"><path d="M46.73 13.39c-.13-.3-.62-.28-.93-.17s-.56.4-.59.73c0 .02 0 .05.02.06.03.02.06-.01.08-.04.1-.13.27-.19.43-.24.14-.04.3-.09.44-.05.07.02.13.05.2.06.16.03.46-.1.35-.35zm11.79 1.97c.19-.27.62-.14.87.04a.88.88 0 0 1 .35.84c0 .02 0 .04-.03.05s-.05-.03-.06-.06c-.06-.15-.19-.24-.32-.33-.12-.07-.24-.15-.38-.14-.07 0-.13.02-.2.02-.15 0-.38-.2-.23-.41z"/></g><path d="M51.35 12.61c-.48.03-.96.06-1.42.2s-.89.41-1.14.82c-.02.03-.04.07-.03.11.01.07.1.1.18.1.27.01.54-.05.8-.08a7.83 7.83 0 0 1 1.53-.04c.12 0 .25.01.36-.04.14-.06.23-.2.29-.34.06-.16.09-.34.02-.5-.07-.15-.27-.26-.59-.24z" class="n"/><g class="i"><path d="M50.88 14.93c-.02-.07-.12-.18-.22-.19-.11 0-.21.07-.25.17-.05.1-.05.21-.05.32s0 .22.06.31c.05.09.16.16.26.13a.3.3 0 0 0 .15-.12c.05-.08.1-.42.05-.62zm4.27.42c.02-.07.13-.17.23-.17.11 0 .2.09.24.19s.04.21.03.32c0 .11-.02.22-.08.31s-.18.15-.27.11c-.06-.02-.12-.08-.14-.13-.04-.08-.07-.42 0-.62z"/></g><path d="M56.97,14.02c-.46-.42-1-.74-1.59-.94-.31-.11-.7-.16-.93.07-.09.1-.14.23-.17.37-.03.15-.03.31.05.44.13.2.4.24.65.26.64.03,1.3.01,1.88.27.08.04.17.08.26.07.09,0,.18-.08.17-.17,0-.04-.02-.07-.05-.1-.07-.1-.17-.17-.27-.27Z" class="n"/><path d="M53.34 13.82a14.82 14.82 0 0 1 .37 2.18c.03.33.09.7.02 1.03-.03.13-.07.34-.14.45-.13.2-.34.31-.57.39-.24.08-.56.08-.78-.03-.06-.03-.35-.17-.39-.11-.06.1.06.22.18.27.41.16.95.2 1.34-.01.17-.09.3-.27.41-.43.23-.33.17-.84.14-1.24l-.36-2.49c-.02-.1-.08-.22-.18-.2-.07.02-.07.11-.05.2z" class="l"/><path d="M50.9 18.79c.81.33 1.72.42 2.58.28.16-.03.33-.06.49-.02.28.08.44.42.39.71s-.25.54-.48.72c-.52.42-1.22.6-1.88.48s-1.25-.54-1.59-1.12c-.12-.21-.21-.46-.15-.7s.33-.49.63-.36z" class="i"/><g clip-path="url(#B)"><path d="M49.88 19.19c1.36.63 2.94.66 4.41.36.13-.03.26-.06.37-.13s.2-.19.2-.32c0-.14-.1-.26-.22-.32-.12-.07-.25-.09-.39-.11l-3.13-.37c-.26-.02-.52-.05-.77-.02-.09.01-.19.03-.27.09-.18.13-.17.4-.21.83z" fill="#fff"/></g><g clip-path="url(#C)" class="p"><path d="M58.49 18.7c-.53-.56-1.46-.61-2.14-.25s-1.14 1.05-1.42 1.76c-.17.43-.29.89-.22 1.35.03.23.12.46.28.61.35.33.91.23 1.35.03 1.21-.56 2.08-1.8 2.15-3.51zm-12.18-1.45c.62-.46 1.54-.34 2.15.14s.94 1.23 1.09 1.99c.09.45.12.93-.02 1.37-.07.22-.19.43-.39.55-.4.26-.94.07-1.33-.21-1.1-.76-1.73-2.14-1.5-3.84z"/></g><path d="M46.01,57.12c.64.26,1.29.52,1.85.93.2.15.41.38.35.63-.04.15-.19.26-.34.32-.08.03-.17.06-.26.05-.12-.02-.22-.1-.31-.18-.49-.43-.9-.94-1.29-1.75Z" class="k"/><path d="M40.07 57.09c.06.24.13.48.29.67.3.38.84.46 1.32.46s.99-.04 1.43.17c.43.21.71.62.96 1.02l.72 1.1c.12.18.24.36.41.48a.59.59 0 0 0 .64.01c.04.24.13.47.27.68.05.07.1.15.18.19s.18.06.25 0c.07-.04.1-.12.11-.18.05.1.07.22.16.29a.23.23 0 0 0 .14.04c.17 0 .32-.12.4-.27s.1-.33.12-.5c0-.04 0-.08.03-.11.2-.15.27-.42.29-.67.07-.91-.31-1.8-.88-2.51s-1.33-1.24-2.1-1.71c-.25-.15-.52-.3-.72-.52-.16-.17-.28-.38-.39-.58l-.74-1.31-.06-.1-3.15 1.58c.06.59.16 1.18.31 1.76z" class="o"/><g class="l"><path d="M45.85 60.9a7.1 7.1 0 0 0-1.68-2.73 4.67 4.67 0 0 1 1.68 2.73zm.79.68c0-.69-.2-1.37-.51-1.99s-.72-1.18-1.17-1.7c1.11.85 1.75 2.27 1.68 3.69zm.82-.47c-.14-1.33-.83-2.6-1.87-3.45.31.1.55.32.76.57.61.71 1.01 1.61 1.1 2.88z"/></g><path d="M65.89 36.08c.1-.28.2-.57.14-.86-.04-.18-.14-.34-.22-.51-.47-.98-.31-2.13-.09-3.26l-.88-1.04c-.15-.18-.3-.36-.39-.57s-.1-.47.02-.67a.46.46 0 0 1 .65-.15c-.25-.21-.38-.57-.26-.88.12-.3.52-.48.8-.28-.16-.26-.11-.64.13-.84s.62-.19.84.09c-.21-.36-.03-.89.36-1.03.38-.14.8.06 1.15.27.52.32 1.02.68 1.48 1.07.31.26.62.56.71.95.08.33 0 .67-.09 1-.48 1.85-.93 3.74-.79 5.64.04.55.11 1.18-.25 1.6s-.99.45-1.54.42c-.67-.04-1.43-.17-1.79-.95z" class="o"/><g class="l"><path d="M66.66 27.15c.67.36 1.37.73 1.84 1.33-.61-.34-1.17-.76-1.84-1.33zm-.96.68c.8.32 1.56.79 2.08 1.47-.74-.47-1.44-.99-2.08-1.47zM65.15 29a4.66 4.66 0 0 1 2.04 1.43L65.15 29z"/></g><path d="M65.36 35.49l-1.57 5.27c-.3 1.06-.59 2.12-.74 3.21-.09.66-.13 1.32-.1 1.98.02.43.08.89.35 1.23.21.26.51.41.81.55.45.2.93.36 1.43.37 1.22.03 2.32-.85 2.9-1.93s.83-2.32.98-3.53l.79-7.27-4.85.12z" fill="#0f0f0f"/><path d="M46.96,43.68c-.31-.26-.38-.78-.14-1.11.24-.33.74-.44,1.09-.23-.08-.17.08-.35.24-.45.29-.21.61-.41.97-.42.36,0,.74.28.71.64.2-.31.64-.43.97-.26s.49.6.36.94c.38-.12.82.24.78.64-.04.4-.54.66-.89.47.18.34.11.8-.17,1.07-.28.27-.74.33-1.08.13-.13.39-.54.66-.95.63s-.78-.36-.85-.76c-.27.24-.74.21-.97-.07-.23-.28-.18-.74-.08-1.22Z" fill="#626262"/><path d="M52.29,43.41c.13-.31,0-.7-.3-.87-.29-.17-.68-.14-.95.07-.29.22-.43.64-.32.99.11.35.46.62.83.63.37,0,.51-.31.74-.81Z" class="m"/><g class="h"><path d="M43.46 46.5c-.37-.21-.73-.47-.94-.84s-.25-.86-.01-1.21.79-.48 1.11-.2c-.18-.29-.12-.71.15-.93a.74.74 0 0 1 .94.02c-.1-.25.02-.54.21-.73s.45-.29.7-.38c.37-.13.77-.24 1.15-.16s.74.4.73.8c.33-.32.93-.3 1.24.04s.28.93-.07 1.23a.82.82 0 0 1 .8.83c-.03.43-.48.78-.9.71.11.33-.12.7-.44.83s-.69.06-1-.1c-.37.64-1.37.8-1.92.31-.55.5-1.54.36-1.75-.21z"/><path d="M48.82 46.82c-.3-.07-.61-.2-.81-.44s-.29-.59-.14-.87c.15-.27.56-.39.79-.19-.21-.31-.18-.77.08-1.05s.71-.35 1.04-.16c.19-.36.43-.73.8-.92s.89-.13 1.09.23a1.05 1.05 0 0 1 1.3-.77c.54.18.83.89.57 1.39.32-.17.77-.06.96.25s.11.76-.19.97c.31.14.46.54.34.86-.13.31-.52.49-.84.38-.21.25-.56.37-.87.3-.32-.07-.59-.32-.68-.63a.88.88 0 0 1-.72.77.89.89 0 0 1-.92-.5c-.07.26-.3.48-.57.52-.27.05-.56-.07-.72-.29-.11.37-.73.43-.52.14z"/></g><g class="m"><path d="M46.74 43.89c-.25-.16-.58-.29-.86-.18-.12.05-.21.15-.28.26-.15.24-.23.54-.1.79.18.36.73.41 1.06.18.15-.1.28-.26.32-.44.05-.18.09-.46-.14-.61zm2.14-1.53a.91.91 0 0 0-1.11-.45.92.92 0 0 0-.53 1.08.93.93 0 0 0 1.04.61c.43-.09.9-.61.61-1.23zm4.05 3.37c-.02-.47-.41-.9-.88-.93s-.92.41-.86.87c.03.25.18.46.37.63.11.1.23.18.37.22.22.05.45-.02.63-.17.17-.14.39-.33.37-.63z"/></g><path d="M43.76 47.95l-1.43-2.18h12.56l-1.05 2.25-10.08-.07z" fill="#fff"/><path d="M69.72,28.05c-.02-.87-.3-1.73-.79-2.45-.15-.22-.38-.45-.64-.41-.14.02-.25.12-.33.23-.2.3-.18.69-.11,1.05.04.21.11.41.21.6.31.54.94.79,1.66.98Z" class="k"/><path d="M5.91 52.19c-1.18 1.37-2.07 3-2.57 4.74-.35 1.22-.5 2.59.09 3.71.45.88 1.31 1.5 2.23 1.86s1.91.49 2.9.59c4.72.48 9.47.39 14.21.3.97-.02 1.94-.04 2.9-.21.81-.14 1.19-.06 1.79-.62 1.14-1.07 2.45-7.36-1.9-8.53-5.91-1.59-11.13-2.28-17.24-1.93" fill="#484848"/><g fill="#696969"><path d="M25.19 88.23c-2.49.72-5.19.72-7.81.04l-.08-22.5a21.75 21.75 0 0 1 .72-5.56c.3-1.14.75-2.33 1.73-2.99.53-.36 1.18-.52 1.82-.59 1.29-.14 2.67.08 3.7.86.88.66 1.19 1.41 1.5 2.47s.13 4.89.13 5.78c.02 8.29-1.24 14.01-1.7 22.48zm-20.04.53c2.49.72 5.19.72 7.81.04l.08-22.5a21.75 21.75 0 0 0-.72-5.56c-.3-1.14-.75-2.33-1.73-2.99-.53-.36-1.18-.52-1.82-.59-1.29-.14-2.67.08-3.7.86-.88.66-1.19 1.41-1.5 2.47s-.13 4.89-.13 5.78c-.02 8.29 1.24 14.01 1.7 22.48z"/></g><path d="M17.65,12.39c-1.04-.62-2.35-.8-3.52-.47-1.17.32-2.2,1.14-2.77,2.22-.71,1.33-.76,3-1.76,4.14-.76.87-2.01,1.31-2.52,2.35-.52,1.04.32,2.25-.09,3.35-.36.97-1.29,1.6-1.8,2.5-.44.77-.55,1.67-.65,2.55-.09.81.19,1.5.48,1.84.57.66,1.29,1.19,2.09,1.54.87.37,1.37.61,2.31.71,1.6.16,3.23.17,4.83.01,3.51-.34,6.99-1.44,10.5-1.1.87.09,1.74.26,2.6.15s1.75-.59,2.04-1.41c.16-.43.13-.91.06-1.36-.2-1.2-.76-2.35-1.58-3.24-.33-.35-.7-.68-.89-1.12-.57-1.3.68-2.81.28-4.18-.31-1.07-1.49-1.62-2.12-2.53-.68-1-.64-2.31-1.03-3.46-.57-1.68-2.07-3.06-3.83-3.27-.96-.11-2.15.24-2.62.81Z" class="i"/><path d="M1.32 34.96c-1.09 1.41-1.89 3.02-2.69 4.61-.82 1.63-1.66 3.33-1.69 5.16 0 .23.01.48.17.65.27.28.74.12 1.09-.05 1.59-.79 3.18-1.61 4.58-2.7 1.4-1.1 2.69-2.41 3.3-4.08a1.91 1.91 0 0 0 .03-1.06c-.11-.4-.48-.67-.83-.9l-2.21-1.32c-.42-.23-.93-.44-1.75-.31z" class="p"/><path d="M30.81 33.48c-.95-1.78-2.06-3.53-3.66-4.76-.45-.35-.94-.65-1.43-.94-1.35-.8-2.77-1.55-4.31-1.8-1.03-.17-2.08-.12-3.12-.07-1.06.05-2.13.15-4.16-.08a10.91 10.91 0 0 0-5.77.94c-2.75 1.28-4.83 3.64-6.62 6.08-.75 1.03-1.48 2.09-2 3.26l6.15 2.93 1.78-3.95c-.47 4.81-.91 9.61-1.01 14.25 6.79.83 12.33.79 19.18.29l-.13-1.64-15.01-.11c-1.05 0-2.09-.02-3.14-.02-.1 0-.21 0-.29-.06-.19-.13-.13-.43-.03-.64a3.83 3.83 0 0 1 1.75-1.74c.51-.25 1.08-.38 1.63-.5 4.84-1.07 9.78-1.63 14.73-1.7l-.5-8.11 1.01 5.51c.21-.05.43-.11.64-.17a128.5 128.5 0 0 0 5.51-1.57l.85-.26c.01 0-1.21-3.53-2.06-5.13z" fill="#939393"/><g class="m"><path d="M24.72 34.74l-.68-2.82c.56.77.82 1.75.68 2.82zm-16.99.24a7.34 7.34 0 0 1 .53-2.02c.01.69-.13 1.39-.53 2.02z"/></g><path d="M10.08 31.57c.32-.53.69-1.02 1.11-1.48.13-.14.27-.29.44-.37s.39-.1.55.01c.15.1.22.3.21.49 0 .18-.08.36-.17.52-.09.18-.2.36-.31.53-.07.1-.15.2-.25.27-.2.14-.47.14-.71.1s-.49-.1-.87-.06z" class="k"/><path d="M15.13 33.39l-6.6-3.05c-.13-.06-.26-.13-.34-.24-.09-.11-.12-.28-.05-.39.12-.18.38-.14.58-.07.52.18 1.01.42 1.5.65l5.21 2.57c.2-.26.61-.21.92-.12.89.25 1.76.57 2.6.95.12.05.26.16.21.29-.23.07-.46-.1-.69-.17l-1.55-.45c-.03 0-.06-.01-.09 0-.05.02-.06.1-.02.15.03.05.09.07.15.09l1.98.75c.09.03.2.1.18.2-.02.09-.14.11-.23.1-.68-.07-1.24-.42-1.95-.63-.13-.04-.31-.08-.37.04-.08.15.53.32.78.43.47.21.97.34 1.42.59.06.03.12.08.11.14 0 .08-.12.1-.2.1-.78-.04-1.52-.35-2.21-.71-.58-.3-1.16-.67-1.35-1.22z" fill="#bfbfbf"/><path d="M18.19 34.09c-.14.16-.29.32-.34.53-.06.21.01.46.21.55-.29.14-.54.4-.61.72s.09.69.39.82.71-.06.76-.38c.13.18.37.24.59.21.3-.04.57-.22.72-.49.15-.26.16-.59.04-.87.27.04.55.04.8-.07s.46-.33.49-.6-.16-.56-.43-.59c.38-.31.42-.95.09-1.3-.17-.18-.49-.28-.66-.09.03-.33-.3-.6-.63-.61-.33 0-.63.19-.85.42-.44.45-.69 1.09-.55 1.75z" class="h"/><path d="M32.03 38.87l-5.51 1.57c.25.86.44 1.76.6 2.77h-1.75c-4.95.07-9.9.63-14.73 1.7-.56.12-1.12.25-1.63.5a3.88 3.88 0 0 0-1.75 1.74c-.1.21-.16.51.03.64.08.06.19.06.29.06l3.14.02 15.01.11 3.47.03c.65 0 1.34 0 1.9-.32.75-.43 1.11-1.32 1.32-2.16.55-2.24.26-4.41-.38-6.66z" class="q"/><g fill="#9a9a9a"><path d="M7.71 47.78c.08-.69.59-1.25 1.17-1.63.35-.23.74-.42 1.15-.44-.5.18-.97.44-1.37.79s-.71.8-.95 1.28zm.83.07c.34-.76 1-1.38 1.79-1.67.2-.07.41-.13.63-.1-.94.24-1.73.91-2.41 1.76zm1.05-.02c.43-.78 1.31-1.28 2.2-1.25-.66.21-1.35.44-2.2 1.25z"/></g><path d="M14.88 26.98c-.19.83.18 1.74.83 2.29s1.46.76 2.32.67c.42-.04.85-.25 1.19-.51.4-.31.72-.71.83-1.21.17-.73.09-1.55-.4-2.12-.27-.32-.65-.53-1.04-.66-.97-.34-2.09-.22-2.97.31-.35.21-.59.52-.75 1.23z" class="p"/><path d="M12.03 19.78c-.34-.37-.81-.4-1.21-.27-.39.13-.66.51-.75.92-.08.4 0 .83.13 1.22.11.33.27.65.53.89s.62.38.96.31a.99.99 0 0 0 .49-.29c.04 1.65.81 3.27 2.06 4.34s2.81 1.54 4.22 1.27c1.29-.25 2.56-1.11 3.23-2.24.68-1.13.96-2.46.97-3.77.32.23.73.36 1.11.25s.67-.44.83-.8a2.19 2.19 0 0 0-.03-1.84c-.08-.16-.18-.32-.32-.43-.23-.18-.54-.24-.82-.17s-.53.25-.66.45c-2.3-.45-4.38-1.9-5.54-4-.48.98-1.28 1.79-2.18 2.41-.91.61-1.87 1.24-3.02 1.77z" class="q"/><g class="i"><path d="M15.81 19.84c-.34-.15-.73-.14-1.08-.02s-.66.33-.94.57c-.06.05-.12.11-.15.18s-.03.17.03.22c.08.07.19.04.29 0 .26-.09.51-.18.78-.23.35-.06.72-.04 1.07-.11.11-.02.24-.07.29-.17.06-.14-.03-.32-.29-.43zm3.03-.09c.34-.15.73-.14 1.08-.02s.66.33.94.57c.06.05.12.11.15.18s.03.17-.03.22c-.08.07-.19.04-.29 0-.26-.09-.51-.18-.78-.23-.35-.06-.72-.04-1.07-.11-.11-.02-.24-.07-.29-.17-.06-.14.03-.32.29-.43zm-4.19 2.15c0 .19 0 .38.08.55s.24.31.43.31c.18 0 .34-.13.42-.29s.09-.35.07-.52a1.21 1.21 0 0 1 .06.5c-.02.17-.09.33-.23.43a.79.79 0 0 1-.29.11c-.11.02-.22.02-.31-.03a.49.49 0 0 1-.16-.16c-.12-.18-.17-.4-.06-.89zm5.66.09c0 .19 0 .38-.08.55s-.24.31-.43.31c-.18 0-.34-.13-.42-.29s-.09-.35-.07-.52a1.21 1.21 0 0 0-.06.5c.02.17.09.33.23.43a.79.79 0 0 0 .29.11c.11.02.22.02.31-.03a.49.49 0 0 0 .16-.16c.12-.18.17-.4.06-.89z"/></g><g class="l"><path d="M23.06 20.09c.17-.27.56-.36.86-.26.14.05.27.13.35.25s.13.27.1.41c-.08.02-.14-.07-.2-.13a.51.51 0 0 0-.51-.12c-.1.03-.18.1-.27.14s-.2.07-.29.02-.13-.18-.04-.32zm-11.29.17c-.17-.27-.56-.36-.86-.26-.14.05-.27.13-.35.25-.09.12-.13.27-.1.41.08.02.14-.07.2-.13a.51.51 0 0 1 .51-.12c.1.03.18.1.27.14s.2.07.29.02.13-.18.04-.32zm5.79-.12c-.17 1.12-.35 2.25-.35 3.38 0 .26-.03.52.05.76s.25.38.49.48.63-.16.73-.09c.15.1-.24.32-.45.34-.39.03-.76-.18-.94-.54-.09-.19-.12-.41-.13-.62-.01-.36.02-.72.06-1.08l.34-2.68c0-.06.02-.13.07-.17s.16-.02.12.21z"/></g><path d="M16.83 25.56a1.88 1.88 0 0 0 1.59.01c.16-.07.31-.17.48-.22s.37-.05.51.06c.13.1.18.28.16.44a.93.93 0 0 1-.2.44c-.34.47-.9.77-1.47.82-.58.05-1.17-.14-1.63-.49-.2-.16-.38-.36-.4-.62-.02-.21.11-.43.3-.53s.41-.03.65.08z" class="i"/><g clip-path="url(#D)"><path d="M15.83 25.64c.45.39 1.04.6 1.64.63s1.19-.12 1.73-.37c.1-.05.2-.1.28-.18s.13-.2.1-.31c-.03-.13-.15-.22-.28-.25s-.26 0-.4 0c-.65.08-1.31.08-1.96 0-.21-.03-.43-.06-.64 0s-.4.24-.48.48z" fill="#fff"/></g><g clip-path="url(#E)" class="k"><path d="M23.12 22.56c-.43-.37-1.1-.29-1.61-.03-.56.29-1 .79-1.23 1.38a2.62 2.62 0 0 0-.01 1.85c.17.47.53.91 1.02.99.29.05.6-.05.85-.2.56-.33.95-.91 1.12-1.54.18-.63.17-1.29-.14-2.46zM11.75 23c.43-.37 1.1-.29 1.61-.03.56.29 1 .79 1.23 1.38a2.62 2.62 0 0 1 .01 1.85c-.17.47-.53.91-1.02.99-.29.05-.6-.05-.85-.2-.56-.33-.95-.91-1.12-1.54-.18-.63-.17-1.29.14-2.46z"/></g><path d="M14.07 33.06c.1.06.18.14.25.24.09.13.13.3.1.45-.03.16-.13.3-.28.36a.72.72 0 0 1 .28.42c.05.17.02.36-.09.49-.13.15-.35.18-.55.16s-.34-.09-.53-.11c-.19-.01-.43-.09-.6 0 .37.97.17 2.21-.31 3.16s-1.22 1.74-1.96 2.5c-2.31 2.37-4.8 4.6-7.61 6.35-.8.49-1.68.96-2.62.93-.94.06-1.92-.18-2.72-.69-.26-.14-.46-.46-.56-.81-.3-.96.07-2.02.71-2.79s1.53-1.29 2.41-1.77l8.72-4.56c.38-.84.18-1.81.09-2.72-.06-.56-.08-1.14.06-1.69.13-.55.42-1.08.88-1.41.34-.24.74-.36 1.14-.46.46-.11.93-.2 1.39-.1.15.03.3.09.41.2s.16.28.09.52a2.97 2.97 0 0 1 .76.26c.21.1.4.24.52.43.12.2.13.47.02.65z" class="q"/><g fill="#9a9a9a"><path d="M12.61 35.08c-.31-.03-.59.17-.83.36-.22.17-.44.34-.57.58.38-.38.84-.67 1.4-.94zm.13-3.39c-1.09-.28-2.31.07-3.08.89.86-.56 1.88-.85 3.08-.89zm1.28 1.34c-1.22-.55-2.73-.36-3.78.46 1.09-.59 2.4-.76 3.78-.46zm.18 1.14c-.47-.41-1.16-.45-1.78-.37-.65.09-1.31.3-1.82.72 1.09-.52 2.35-.65 3.6-.35z"/></g><g fill="#626262"><path d="M22.37 45.69c.35.05.74-.05.99-.3s.34-.67.17-.99-.61-.47-.92-.29c.02-.45-.18-.95-.59-1.13s-1.01.12-.98.57c-.18-.4-.51-.78-.94-.87s-.95.22-.96.66c-.36-.29-.92-.35-1.29-.07s-.46.89-.13 1.22c-.45.02-.85.46-.81.91s.51.82.96.75a1 1 0 0 0 .89.84c.44.03.89-.27 1.01-.7.11.29.4.5.71.51a.82.82 0 0 0 .75-.44c.1.32.57.38.84.18s.37-.55.3-.85z"/><path d="M18.28,44.52c.08-.52-.04-1.11-.46-1.42s-1.17-.1-1.23.42c.16-.42-.11-.95-.54-1.07s-.94.18-1.03.62c-.03-.45-.5-.84-.94-.74-.44.1-.69.7-.42,1.06-.3-.33-.85-.45-1.23-.21s-.48.86-.15,1.16c-.17-.23-.57-.13-.74.11-.19.26-.22.64-.06.92s.49.46.82.42c-.2.44,0,1.02.44,1.23s1.02,0,1.23-.43c.14.38.58.62.97.55s.71-.45.71-.86c.18.3.54.48.88.44.35-.04.65-.31.75-.64.31.19.74,0,.92-.32.18-.31-.02-.7.06-1.23Z"/></g><path d="M20.53 46.79c.32-.18.62-.43.76-.78.14-.34.1-.78-.18-1.02-.27-.25-.78-.22-.96.1.04-.4-.23-.81-.61-.94a.92.92 0 0 0-1.05.37c-.05-.4-.42-.74-.82-.75a.9.9 0 0 0-.87.7c-.19-.27-.56-.41-.88-.31-.32.09-.56.4-.57.73-.29-.17-.71-.06-.87.23s-.04.71.25.87c-.25.28-.08.78.27.92s.76-.01 1.02-.28c-.06.37.32.71.7.71s.71-.27.92-.58c.15.33.5.57.87.58.37 0 .73-.21.89-.54-.04.28.31.48.58.42.27-.07.47-.3.54-.42z" class="h"/><g class="m"><path d="M15.45 44.59c-.25-.16-.58-.29-.86-.18-.12.05-.21.15-.28.26-.15.24-.23.54-.1.79.18.36.73.41 1.06.18.15-.1.28-.26.32-.44.05-.18.09-.46-.14-.61zm5.14.79c-.02-.47-.41-.9-.88-.93s-.92.41-.86.87c.03.25.18.46.37.63.11.1.23.18.37.22.22.05.45-.02.63-.17.17-.14.39-.33.37-.63zm-.63-2.26c.12-.33-.06-.74-.38-.89-.38-.17-.85.05-1.07.4-.12.2-.18.46-.13.69.09.4.51.7.91.65.41-.05.75-.44.66-.86z"/></g><path d="M12.48 47.9l-1.42-2.19h12.56l-1.05 2.26-10.09-.07z" fill="#fff"/><use xlink:href="#G" class="r"/><path d="M56.38 39.95c0-.39 1.26-.71 2.83-.71 1.56 0 2.83.31 2.83.7s-1.26.71-2.83.71c-1.56 0-2.83-.31-2.83-.7z" class="s"/><path d="M57.12 41.97l.15 5.28c1.07.57 3.37.34 4.15-.08l.02-5.36c-1.39.55-4.32.16-4.32.16z" class="t"/><path d="M.6 48.32l-.41-7.94a13.18 13.18 0 0 0 4.56.29c.39-.04.79-.11 1.11-.26l-.14 7.84c-1.43.65-3.3.73-5.12.07z" class="r"/><path d="M.2 40.39c0-.39 1.26-.71 2.83-.71 1.56 0 2.83.31 2.83.7s-1.26.71-2.83.71c-1.56 0-2.83-.31-2.83-.7z" class="s"/><path d="M.95 42.41l.15 5.28c1.07.57 3.37.34 4.15-.08l.02-5.36c-1.39.55-4.32.16-4.32.16z" class="t"/><path d="M24.52 48.47l-.4-7.94c1.48.36 3.03.46 4.55.29.39-.04.79-.11 1.11-.26l-.14 7.84c-1.43.65-3.3.73-5.12.06z" class="r"/><path d="M24.12 40.54c0-.39 1.27-.71 2.83-.71s2.83.31 2.83.7-1.27.71-2.83.71-2.83-.31-2.83-.7z" class="s"/><path d="M24.87 42.56l.14 5.28c1.07.57 3.37.34 4.15-.08l.03-5.36c-1.39.54-4.32.16-4.32.16z" class="t"/><path d="M93.65 56.52a168.63 168.63 0 0 0-10.03 1.29c-2.82.45-5.69 1.01-8.14 2.47-1.32.79-2.51 1.86-3.23 3.23-1.09 2.07-.98 4.55-.79 6.88.51 6.48 1.41 12.94 2.8 19.31 2.21-.56 4.43-1.06 6.81-1.57a65.67 65.67 0 0 1-1.04-11.79c0-2.21.13-4.47 1-6.51 1.05-2.46 3.12-4.39 5.49-5.64s5.02-1.86 7.67-2.2c.25-.03.55-.09.65-.33.05-.12.04-.26.02-.39-.19-1.5-.38-3.01-1.2-4.77z" fill="#747474"/><path d="M92.41 54.94l-7.68 1.56c-2 .41-4.02.82-5.89 1.63-1.87.82-3.61 2.08-4.64 3.85-1.42 2.44-1.3 5.45-1.05 8.26a133.91 133.91 0 0 0 2.83 18.29l7.14-.92c-.78-6.73-1.06-13.52-.64-20.43 4.63-.94 9.38-1.28 14.09-.98 1.4.09 2.82.23 4.18-.1 1.1-.26 2.11-.82 3-1.53 1.25-1.01 2.27-2.36 2.65-3.93.48-1.99.41-4.23-.17-6.19-3.09.91-7.09-.17-10.51.86-1.21-.21-2.43-.31-3.31-.36z" fill="#939393"/><path d="M66.44 46.72c-.11.23-.22.5-.1.72.14.25.48.28.77.28l1.27-.01c.45 0 .89 0 1.33-.09l.94-.2c.81-.13 1.63.02 2.34.2l5.3-.03c.26-.59.32-1.26.31-1.9v-1.9l-6.98.43a6.9 6.9 0 0 0-2.83.62c-.41.18-.79.41-1.18.63-.4.23-.83.54-1.19 1.27z" fill="#848484"/><g fill="#5a5a5a"><path d="M66.82 47.64c.46-1.13 1.53-1.99 2.73-2.2-.9.51-1.72 1.14-2.73 2.2zm1.29 0c.5-.92 1.43-1.6 2.46-1.8-.82.43-1.51 1.06-2.46 1.8z"/></g><path d="M69.36 47.9l-1.43-2.19h12.56l-1.05 2.26-10.08-.07z" fill="#fff"/><path d="M-12.81 49.33h89.29v6.86h-89.29z" fill="#818181"/><path d="M82.39,51.06H-17.59c-.95,0-1.72-.77-1.72-1.72h0c0-.95.77-1.72,1.72-1.72h99.98c.95,0,1.72.77,1.72,1.72h0c0,.95-.77,1.72-1.72,1.72Z" class="h"/></g></svg>