<?xml version="1.0" encoding="UTF-8"?>
<svg id="Layer_2" data-name="Layer 2" xmlns="http://www.w3.org/2000/svg" viewBox="0 0 54.75 107.91">
  <defs>
    <style>
      .cls-1 {
        fill: #f64e25;
        stroke-width: 0px;
      }
    </style>
  </defs>
  <g id="main_bg" data-name="main bg">
    <path class="cls-1" d="M27.72,47.69c-3.51-6.23-3.4-13.79-3.16-20.94.24-7.15.43-14.69-2.95-20.99-.35-.65-.74-1.27-1.19-1.86C16.24-1.75,7.53-1.16,4.26,5.05c-.05.1-.1.19-.15.29-1.54,3.11-1.56,6.74-1.74,10.2-.63,11.63-1.26,23.25-1.89,34.88-.6,11.06-1.17,22.38,1.93,33.02,3.1,10.64,10.64,20.65,21.31,23.63,9.88,2.76,21.31-1.46,27.02-9.98,5.72-8.52,5.29-20.69-1.01-28.79-6.21-7.98-17.04-11.81-22-20.62Z"/>
  </g>
</svg>