<?xml version="1.0" encoding="UTF-8"?>
<svg id="Layer_2" data-name="Layer 2" xmlns="http://www.w3.org/2000/svg" viewBox="0 0 80.06 63.49">
  <defs>
    <style>
      .cls-1 {
        fill: #f64e25;
        stroke-width: 0px;
      }
    </style>
  </defs>
  <g id="main_bg" data-name="main bg">
    <path class="cls-1" d="M59.21,13.98c.28-7.6-6.17-12.2-10.76-13.54-1.33-.39-13.96-2.66-16.59,8.7-1.72,7.41-7.73,14.8-20.67,19.31C5.35,30.49.36,36.51.06,42.69c-.32,6.64.34,13.67,8.3,17.42,13.98,6.58,18.54-3.54,31.67-3.54,11.02,0,12.98,6.92,23.66,6.92,4.72,0,9.77-1.27,12.81-4.88,4.34-5.17,5.23-12.47-.26-19-4.34-5.16-17.6-10.21-17.03-25.62Z"/>
  </g>
</svg>