<?xml version="1.0" encoding="UTF-8"?>
<svg id="Layer_2" data-name="Layer 2" xmlns="http://www.w3.org/2000/svg" viewBox="0 0 82.24 65.27">
  <defs>
    <style>
      .cls-1 {
        fill: #f64e25;
        stroke-width: 0px;
      }
    </style>
  </defs>
  <g id="main_bg" data-name="main bg">
    <path class="cls-1" d="M54.95.93c-7.16,2.73-11.18,10.8-18.29,13.65-4.24,1.7-8.99,1.29-13.51.68s-9.14-1.42-13.6-.46C5.08,15.75.75,18.99.09,23.5c-.65,4.44,2.46,8.75,6.38,10.94,3.92,2.19,8.52,2.73,12.97,3.29,4.46.56,9.16,1.07,12.86,3.61,5.18,3.56,7.62,8.93,8.79,13.66,1.77,7.2,9.08,11.62,16.28,9.89.05-.01.1-.02.15-.04,9.12-2.24,16.87-9,20.99-17.45,4.11-8.45,4.72-18.41,2.37-27.51-1.51-5.86-4.33-11.57-8.96-15.46-4.64-3.89-11.3-5.67-16.96-3.51Z"/>
  </g>
</svg>