<?xml version="1.0" encoding="UTF-8"?>
<svg id="Layer_2" data-name="Layer 2" xmlns="http://www.w3.org/2000/svg" viewBox="0 0 79.26 55.49">
  <defs>
    <style>
      .cls-1 {
        fill: #f64e25;
        stroke-width: 0px;
      }
    </style>
  </defs>
  <g id="main_bg" data-name="main bg">
    <path class="cls-1" d="M12.77,52.47c7.28,3.79,16.19,3.87,23.89,1.06,4.87-1.78,9.36-4.66,14.43-5.74,4.36-.93,8.93-.47,13.26-1.52,10.75-2.58,17.67-15.53,13.85-25.91-3.26-8.39-9.91-15.94-15.13-18.59-5.22-2.65-11.84-2.3-16.76.89-3.94,2.56-6.73,6.7-10.93,8.81-6.69,3.36-14.93.63-22.13,2.67C5.36,16.36-.15,24.59,0,32.79c.15,8.21,5.48,15.89,12.76,19.68Z"/>
  </g>
</svg>