<?xml version="1.0" encoding="UTF-8"?>
<svg id="Layer_2" data-name="Layer 2" xmlns="http://www.w3.org/2000/svg" viewBox="0 0 96.07 85.58">
  <defs>
    <style>
      .cls-1 {
        fill: #f64e25;
        stroke-width: 0px;
      }
    </style>
  </defs>
  <g id="main_bg" data-name="main bg">
    <path class="cls-1" d="M77.88.05c-5.62-.54-10.88,3.34-13.91,8.11-3.03,4.77-4.39,10.37-6.26,15.7-1.87,5.33-4.88,10.24-9.21,13.87-6.83,5.74-13.97,5.1-18.09,3.98-1.58-.43-3.08-1.11-4.49-1.95-7.66-4.59-17.64-2.97-21.57,1.24C-.03,45.71-.97,52.96.93,59.11c1.9,6.14,6.28,11.27,11.31,15.28,12.05,9.58,28.51,13.36,43.53,9.98,15.02-3.37,28.28-13.83,35.08-27.64,6.79-13.81,6.97-30.7.47-44.66-2.66-5.71-7.17-11.41-13.43-12.02Z"/>
  </g>
</svg>