<?xml version="1.0" encoding="UTF-8"?>
<svg id="Layer_2" data-name="Layer 2" xmlns="http://www.w3.org/2000/svg" viewBox="0 0 80.68 83.33">
  <defs>
    <style>
      .cls-1 {
        fill: #f64e25;
        stroke-width: 0px;
      }
    </style>
  </defs>
  <g id="main_bg" data-name="main bg">
    <path class="cls-1" d="M37.33,79.67c11.35-8.04,11.85-25.7,22.63-34.49,5.48-4.46,13.14-6.17,17.5-11.73,4.33-5.52,4.08-13.75.52-19.78-3.56-6.04-9.89-10.05-16.56-12.19-.14-.05-.29-.09-.43-.14-14.24-4.41-29.61,2.27-36.16,15.67-2.01,4.11-4.62,7.8-6.5,9.6-5.22,5.01-11.58,9.1-15.15,15.39C.76,46.29-.17,51.33.02,56.25c.34,8.97,4.6,17.96,12.01,23.03,7.41,5.07,17.97,5.59,25.3.4Z"/>
  </g>
</svg>