<?xml version="1.0" encoding="UTF-8"?>
<svg id="Layer_2" data-name="Layer 2" xmlns="http://www.w3.org/2000/svg" viewBox="0 0 73.1 89.46">
  <defs>
    <style>
      .cls-1 {
        fill: #f64e25;
        stroke-width: 0px;
      }
    </style>
  </defs>
  <g id="main_bg" data-name="main bg">
    <path class="cls-1" d="M18.86,60.21c5.23,7.29,5.07,17.72,11.24,24.23,3.48,3.68,8.78,5.56,13.8,4.89,5.02-.66,9.65-3.85,12.06-8.3,3.99-7.38,1.74-16.53,3.58-24.71,1.43-6.36,5.27-11.85,8.49-17.52,3.22-5.67,5.94-12.12,4.81-18.54-1.23-6.97-6.89-12.51-13.31-15.48C53.1,1.81,45.92.98,38.89.19,28.51-.97,0,2.56,0,26.52c0,9.45,4.3,18.71,10.89,25.49,2.66,2.74,5.75,5.1,7.97,8.2Z"/>
  </g>
</svg>