<?xml version="1.0" encoding="UTF-8"?>
<svg id="Layer_2" data-name="Layer 2" xmlns="http://www.w3.org/2000/svg" viewBox="0 0 512 512">
  <defs>
    <style>
      .cls-1 {
        fill: #1a1716;
        stroke-width: 0px;
      }
    </style>
  </defs>
  <g id="Layer_1-2" data-name="Layer 1">
    <path class="cls-1" d="M370.17,295h0c15.06,0,24.71,16.02,17.68,29.34-24.99,47.33-74.71,79.66-131.85,79.66-83.59,0-151.33-69.2-148.94-153.31,2.23-78.46,65.79-142.19,144.24-144.61,59.09-1.83,110.86,30.95,136.54,79.56,7.04,13.33-2.59,29.37-17.66,29.37h-.01c-7.39,0-14.2-4.07-17.64-10.61-18.26-34.69-54.68-58.39-96.52-58.39-61.53,0-111.32,51.25-108.91,113.31,2.19,56.62,48.12,102.5,104.76,104.61,43.61,1.63,81.87-22.52,100.72-58.39,3.42-6.52,10.25-10.53,17.61-10.53ZM388.46,475.11c9.45-5.72,12.47-18.02,6.75-27.46-5.73-9.45-18.02-12.47-27.47-6.75-33.59,20.35-72.23,31.11-111.74,31.11-119.1,0-216-96.9-216-216S136.9,40,256,40s216,96.9,216,216c0,42.59-12.66,84.04-36.62,119.89-6.14,9.18-3.67,21.6,5.51,27.74,9.19,6.14,21.61,3.67,27.74-5.51,28.38-42.44,43.38-91.59,43.38-142.12,0-68.38-26.63-132.67-74.98-181.02S324.38,0,256,0,123.33,26.63,74.98,74.98,0,187.62,0,256s26.63,132.67,74.98,181.02,112.64,74.98,181.02,74.98c46.81,0,92.62-12.76,132.46-36.89Z"/>
  </g>
</svg>