<svg xmlns="http://www.w3.org/2000/svg" viewBox="0 0 322.09 137.78" xmlns:v="https://vecta.io/nano"><path d="M321.95 45.5c-6.27-9.75-16.42-14.06-25.17-15.92l15.54-.57a.89.89 0 0 0 .81-.57c.14-.33.07-.71-.18-.97-9.1-9.66-21.89-9.36-31.96-6.9l16.6-8.55c.34-.18.54-.54.49-.92a.93.93 0 0 0-.7-.78c-10.54-2.45-22.82 2.17-31.97 7l12.77-10.29a.91.91 0 0 0 .29-1.01c-.13-.36-.47-.61-.86-.61-10.84-.05-18.95 4.2-24.57 8.88l5.47-8.35a.9.9 0 0 0-.05-1.07c-.25-.31-.66-.42-1.03-.29-7.92 2.92-13.18 10.39-16.07 15.76-.63-4.67-3.29-8.91-3.45-9.17a.92.92 0 0 0-.74-.42c-.3-.02-.59.13-.77.37-5.44 7.44-3.05 14.34-1.58 17.25h-2.04v.91a6.16 6.16 0 0 1-6.15 6.15h-21.65a4.92 4.92 0 0 0-3.59 1.53c-.95.99-1.44 2.28-1.39 3.65l.16 4.06a9.87 9.87 0 0 0 7.32 9.18l4.85 5.85v.6l-1.84 2.3h-2.12a2.7 2.7 0 1 0-.02 5.4l9.38.03c3.31 4.46 10.31 4.91 15 4.64-6.26 2.54-16.06 3.86-16.18 3.88a.91.91 0 0 0-.76.68c-.09.36.04.74.34.96 9.22 6.83 18.69 3.94 23.32 1.77-4.85 6.1-17.12 8.28-17.26 8.31-.39.07-.69.38-.75.77s.15.78.5.95c8.11 3.98 14.44 2.89 18.93.52v.95c0 1.25-.31 2.42-.84 3.46-1.61 1.57-3.19 2.86-4.4 3.78a8.94 8.94 0 0 1-1.16.29 5.12 5.12 0 0 0-4.47-2.63h-17.18c-1.96 0-3.67 1.11-4.52 2.74h-.92c-.86-1.62-2.56-2.74-4.53-2.74h-17.18c-1.96 0-3.66 1.11-4.52 2.73-.86-1.62-2.56-2.73-4.52-2.73h-17.18c-1.96 0-3.67 1.11-4.52 2.74h-.15c-.86-1.62-2.56-2.74-4.53-2.74h-17.18c-1.96 0-3.67 1.11-4.52 2.74h-.92c-.86-1.62-2.56-2.74-4.53-2.74h-17.18c-1.86 0-3.48 1-4.38 2.48-.55-1.49-1.57-2.48-2.76-2.48H88.64c-1.24 0-2.3 1.07-2.83 2.68-3.78-.45-6.73-3.67-6.73-7.57V31.11C79.08 13.96 65.13 0 47.97 0 37.7 0 28.43 4.82 22.52 13.22c-4.02 5.72-5.95 12.36-5.67 19.06-.11 0-.23.02-.34.06-.42.14-10.23 3.43-14.54 12.81-2.88 6.26-2.58 13.66.88 21.99.18.44.57.75 1.04.83s.94-.09 1.25-.45l3.34-3.78c-2.35 7.13-2.61 16.61 5.07 26.69.29.38.74.58 1.22.53a1.37 1.37 0 0 0 1.1-.75l2.96-5.91c-.37 6.24.95 13.91 6.61 21.76.24.33.62.54 1.03.57h.08a1.36 1.36 0 0 0 1.01-.45c.11-.12 8-8.94 8.2-21.07l1.97 4.22c.23.5.75.81 1.3.79s1.04-.38 1.23-.9c.3-.82 5.47-15.2 3.04-27.07l1.21 1.36a1.36 1.36 0 0 0 1.27.44 1.4 1.4 0 0 0 1.04-.86c.07-.18.5-1.34 1.04-3.12v48.01c0 7.24 2.6 13.88 6.91 19.05a.45.45 0 0 0 .33.38c5.47 6.34 13.55 10.37 22.56 10.37h174.87c16.43 0 29.79-13.36 29.79-29.79V80.36c0-1.67-.39-3.23-1.08-4.62l-.19-1.63c5.25 11.51 2.52 28.06 2.49 28.25-.06.37.11.75.44.94a.92.92 0 0 0 1.04-.08c15.17-12.26 7.42-31.64 3.64-39.02 10.04 7.59 8.97 27.51 8.95 27.73a.92.92 0 0 0 .54.89c.35.16.76.08 1.02-.2 5.73-5.85 8.33-12.25 7.74-19.02-.85-9.69-7.98-17.76-12.67-22.09 13.57 6.78 20.38 26.03 20.45 26.25.13.38.51.61.91.61.41-.02.75-.3.84-.7 2.55-10.57 1.49-19.43-3.13-26.32-2.44-3.64-5.57-6.28-8.64-8.17l16.31 3.71c.36.08.74-.06.95-.37.21-.3.22-.71.02-1.02zm-119.68.91l8.76.04c.75 0 1.36-.55 1.36-1.23l.02-4.89c0-.68-.6-1.23-1.35-1.24l-6.4-.03c-.75 0-1.36.55-1.36 1.23v3.18c-.02.34.14.66.4.9a1.4 1.4 0 0 0 .93.34l3.93.02c.75 0 1.36-.55 1.36-1.22v-1.55a1.19 1.19 0 0 0-.41-.9 1.4 1.4 0 0 0-.93-.34h-1.85c-.39 0-.75.14-1.01.39-.23.23-.35.52-.35.83a1.2 1.2 0 0 0 .42.9 1.4 1.4 0 0 0 .93.34h.14c.25 0 .46-.2.46-.45s-.2-.46-.45-.46h-.14c-.13 0-.25-.04-.34-.12-.04-.03-.1-.11-.1-.2 0-.08.05-.14.08-.18.09-.08.22-.13.36-.13h1.85c.13 0 .25.04.34.12.04.03.1.1.1.2v1.55c0 .17-.21.32-.45.32l-3.94-.02c-.13 0-.25-.04-.34-.12a.26.26 0 0 1-.1-.2v-3.18c.02-.17.22-.32.46-.32l6.4.03c.24 0 .44.15.44.32l-.02 4.89c0 .17-.2.32-.44.32l-8.96-.04c-.04-.3-.08-.6-.09-.9l-.16-4.06c-.03-.87.28-1.69.88-2.31.6-.63 1.41-.97 2.28-.97h8.31v4.83c0 2.41 1.96 4.37 4.37 4.37a3.46 3.46 0 0 1 3.46 3.46v2.46h-4.44l-8.54-.24c-2.85-.69-5.1-2.88-5.87-5.72zm32.66 7.79h5.77a3.75 3.75 0 0 1 1.02.15l.18.06-3.43 4.06-3.71-4.27h.17zm-17.11 8.29l-4.81-.14 2.31-2.88 2.5 3.02zm6.9-8.29l-3.57 4.27-3.54-4.27h7.11zm3.04 8.4h-7.45l3.66-4.57 3.78 4.57zm8.66 0h-7.62l3.84-4.57 3.96 4.57h-.18zm7.34-1.53c-.71.92-1.81 1.52-3.06 1.52h-3.07l3.66-4.57 2.59 2.89-.12.15zm-17.49-6.87h6.97l-3.43 4.27-3.86-4.27h.32zm-16.13 0h4.61l-2.27 2.83-2.34-2.83zm-2.65 11.09a.87.87 0 0 1 .87-.87h13.45 18.9c3.15 0 5.71-2.56 5.71-5.71v-.64c0-3.15-2.56-5.71-5.71-5.71h-18.68V49.9c0-2.41-1.96-4.37-4.37-4.37a3.46 3.46 0 0 1-3.46-3.46v-4.83h5.41a5.01 5.01 0 0 1 2.17 1.21c1.45 1.39 2.1 3.69 1.91 6.84a.45.45 0 0 0 .43.48c.27 0 .47-.19.48-.43.2-3.44-.54-5.99-2.2-7.57a7.83 7.83 0 0 0-.66-.54h4.33a2.34 2.34 0 0 1 .73.56c.8.88 1.61 2.9.97 7.45a.46.46 0 0 0 .39.52h.07c.22 0 .42-.16.45-.39.56-3.94.16-6.69-1.19-8.19a7.68 7.68 0 0 0 2.48-.69c.26.05.57.17.87.44.84.78 1.65 2.82.75 8.14a.47.47 0 0 0 .37.53h.08a.46.46 0 0 0 .45-.38c.78-4.62.42-7.64-1.05-8.98-.14-.13-.29-.24-.44-.32 1.93-1.27 3.29-3.35 3.56-5.75h19.35a8.73 8.73 0 0 1 8.72 8.72v2.63l1.63-2.06c.35-.45 8.69-10.68 26.23-5.42-.69 2.85-4.69 12.84-26.75 11.35l-1.12-.07.15 1.11c.05.34 1.23 8.09 11.97 12.24-1.49 1.13-4.85 2.81-10.93 1.85l-1.11-.17.05 1.12c0 .11.08 1.11 1.11 2.02.87.76 2.14 1.23 3.8 1.39-1.81.74-4.66 1.13-8.5-.71l-1.89-.9.62 2s.67 2.22.02 4.29a5.15 5.15 0 0 1-.44 1.03c-.39.67-.95 1.21-1.66 1.65-.33.2-.68.39-1.07.54.01-.18.02-.37.02-.57.02-.81-.01-1.78-.18-2.75-.17-1-.49-1.99-1.06-2.77a3.77 3.77 0 0 0-2.58-1.56l-1.3-.19.28 1.28s.38 1.89-.4 3.27c-.03.05-.05.1-.08.15-.29.45-.7.79-1.22 1.02-.09-.24-.2-.5-.33-.76-.91-1.84-2.77-3.86-5.94-3.76-3.87.12-26.7.04-33.61 0-.48 0-.86-.39-.86-.87zm36.1 23.46c1-.75 1.86-1.54 2.59-2.28-.67 1.54-1.57 3.01-2.59 4.38v-2.1zm5.66 18.43a.9.9 0 0 0-.18 1.04c.17.35.53.56.92.52 4.78-.52 8.76-2.27 11.91-5.18.31.54.78 1.16 1.45 1.56a31.15 31.15 0 0 0-.7 3.36c-1.6.92-4.28 2.32-6.97 3.42-3.5 1.43-6.97 2.34-8.18 1.07-.73-.77-1.16-3.25 4.02-11.19.79-.19 1.62-.52 2.49-1.05-2.37 4.03-4.7 6.4-4.75 6.45zm26.48 14.66c-.84-.28-1.92-.84-2.73-1.94-1.28-1.75-1.49-4.35-.63-7.72 1.19-.99 2.5-2.19 3.91-3.58a2.99 2.99 0 0 0 .72.28 2.97 2.97 0 0 0 .59.07c.65 0 1.3-.26 1.96-.73-.04 4.98-1.43 9.64-3.82 13.63zm-9.2 9.28l-2.39-2.84a64.39 64.39 0 0 0 2.37-.1h.05c1.44-.1 2.87-.21 4.33-.38-1.34 1.24-2.79 2.35-4.36 3.3zm-1.58.88c-2.36.02-4.64-.08-6.85-.29l4.9-3.37 2.73 3.23-.78.42zm-9.77-.62l-2.23-3.91c2.68.49 5.52.77 8.51.82l-4.78 3.28c-.51-.06-1-.13-1.5-.2zm-195.77-3.43c1.1.11 2.19.19 3.25.25l-1.75 1.02c-.51-.41-1.02-.83-1.5-1.27zM41.84 56.37l-1.5-1.7c-.2-.31-.42-.62-.65-.92.58-8.2-.05-16.2-.32-19.1.28-.03.57-.05.86-.05a7.77 7.77 0 0 1 .97.07c.15.04.28.08.42.12.27 3.06.93 12.16.22 21.58zm-30.93 8.39c.43-1.34.94-2.58 1.49-3.73 1.96 5.34 4.71 10.27 8.55 12.91l-2.17 4.32c-3.52-3.21-6.05-8.2-7.87-13.5zm.09-8.04L9.17 58.8c-1.66-6.7-2.34-13.02-2.6-16.03a21.68 21.68 0 0 1 1.44-1.69c.35 3.17 1.19 9.35 2.99 15.64zm12.44 18.54c1.19.45 2.47.7 3.84.7s2.64-.29 3.8-.85l.47 1a25.59 25.59 0 0 1 1.16 4.42c-1.5.91-3.17 1.36-5.04 1.36-2.1 0-4-.49-5.71-1.37a30.6 30.6 0 0 1 1.49-5.25zm10.6-.29a37.78 37.78 0 0 0-.61-1.54c.19-.18.38-.37.56-.58 2.9-3.25 4.45-8.67 5.23-14.46.82 1.84 1.34 3.85 1.63 5.95-.98 5.48-2.65 10.46-5.37 13.72l-1.44-3.08zM21.26 40.71a29.23 29.23 0 0 1-.96-3.24c1.57-4.05 5.33-12.09 8.27-11.83 1.2.11 2.88 1.77 4.11 9.08.02.1.07.18.14.24a10.33 10.33 0 0 0-2.69 4.88l-3.64 15.39-5.23-14.53zm8.67-27.77s-.06-.03-.09-.05c1.18-.78 4.77-3.06 8.17-4.53 3.26-1.41 5.52-1.68 6.34-.76.79.87.91 3.38-2.85 10.25-1.31-.7-4.23-.34-12.94 6.88 2.57-6.89 3.02-10.65 1.36-11.79zm3.61 21.37c-.91-5.27-2.19-8.32-3.9-9.26 8.35-6.84 10.87-6.88 11.63-6.26 1.71 1.4-1.22 8.69-3.67 13.42-1.51.39-2.89 1.12-4.05 2.1zm8.66-15.82c1.48-2.69 2.49-4.93 3.03-6.72h.09c.03 0 3.38-.51 4.77 1.66 1.31 2.06 1.22 7-6.72 18.8-.02.03-.03.07-.05.11-.5-.16-1.01-.26-1.54-.35a14.63 14.63 0 0 0-1.35-.25 1.36 1.36 0 0 0-.82.15c-.3.02-.6.05-.89.09 1.62-3.23 5.15-10.91 3.47-13.49zM53.11 3.53c-.05-.12-.11-.23-.17-.34.73.13 1.46.28 2.17.47.53 1.27 1.65 4.16 2.62 8.02-1.38-1.16-3.82-.97-7.44.57a4.11 4.11 0 0 0-.66-.54c1.15-1.35 4.48-5.58 3.47-8.18zm6.85 1.88a2.57 2.57 0 0 0 .05.08l-1.15-.57 1.11.49zM56.2 48.59l.51-7.06h3.86c-1.17 2.3-2.61 4.66-4.37 7.06zm4.77-41.34l-2.65 3.09c-.62-2.3-1.27-4.2-1.78-5.55l4.25 2.11c.06.11.12.23.18.35zm3.97 15.02l-4.6 2.58a50.51 50.51 0 0 0-.36-6l4.95 3.24v.19zm-.91 9.82l-4.52 1.04c.45-2.11.69-4.23.78-6.3l3.78 5.06c-.02.07-.03.13-.04.2zM50.59 48.17v-5.93c0-.21-.02-.42-.03-.62.74-1.1 4.32-6.6 5.38-11.4.78.03 1.36.28 1.73.79.84 1.16.53 3.43.12 5.06-1.33 4.26-3.6 8.41-7.2 12.11zm7.53-10.26s.07-.07.09-.12c.03-.07.24-.65.45-1.47.14-.44.28-.88.39-1.33l1.77 5.62h-3.85a28.85 28.85 0 0 0 1.14-2.71zm.66-25.74l4.12 2.38-3.06 3.19c-.28-1.99-.65-3.86-1.06-5.57zm.11 19.31c-.11-.37-.27-.71-.48-1.01-.52-.71-1.3-1.08-2.3-1.15.24-1.56.15-3-.44-4.14.51-.99 2.51-5.02 3.09-8.55.73 4.48 1.01 9.64.14 14.85zm-3.83-7.15c-1.05-1.16-2.79-1.71-5.19-1.63 1.93-4.43 2.28-7.68 1.02-9.71 3.24-1.34 5.47-1.51 6.45-.46 1.95 2.1-.74 8.72-2.28 11.8zm-5.6-.73c.05.02.11.02.17.02 2.66-.13 4.4.5 5.18 1.9.6 1.07.63 2.5.34 4.06-.02.05-.03.1-.03.16-.77 3.83-3.44 8.41-4.73 10.46-.68-3.42-3.05-6.23-6.2-7.54 2.29-3.41 4.04-6.42 5.27-9.06zm6.22 19.47l-.49 6.87a7.17 7.17 0 0 0-.25.33l-3.92-1.23c1.88-1.89 3.42-3.89 4.66-5.97zm5.79-3.45l-1.76-5.6 4.07-.94c-.55 2.11-1.3 4.29-2.31 6.54zm2.85-8.92l-3.71-4.96 4.35-2.44c.04 2.32-.15 4.79-.65 7.4zm-3.66-12.5l3.19-3.32c.47 1.84.83 3.87 1.01 6.06l-4.2-2.75zm-1.83-7.06l2.58-3c.74 1.55 1.52 3.48 2.16 5.74l-4.74-2.74zm-4.51 39.89a72.55 72.55 0 0 1-3.72 4.21v-5.38l3.72 1.17zm-.63 56.67l2.24 2.24c.84.84 2.2.84 3.03 0L61 107.9c.84-.84.84-2.2 0-3.03l-.87-.87c-.84-.84-2.2-.84-3.03 0-.84.84-.84 2.2 0 3.03l.41.41a.46.46 0 0 0 .65 0 .46.46 0 0 0 0-.65l-.41-.41a1.23 1.23 0 1 1 1.74-1.74l.87.87a1.23 1.23 0 0 1 0 1.74l-2.04 2.04a1.23 1.23 0 0 1-1.74 0l-2.24-2.24a1.23 1.23 0 0 1 0-1.74l2.09-2.09c1.62-1.62 4.25-1.62 5.86 0l.21.21c1.62 1.62 1.62 4.25 0 5.86l-1.61 1.61a4.15 4.15 0 0 1-5.24.51l-5.06-3.39v-26.1l5.13 3.43c.86.57 1.84.85 2.81.85 1.31 0 2.61-.5 3.58-1.48l1.61-1.61a5.02 5.02 0 0 0 1.48-3.58c0-1.35-.53-2.62-1.48-3.58l-.21-.21c-1.97-1.97-5.18-1.97-7.16 0l-2.09 2.09c-.84.84-.84 2.2 0 3.03l2.24 2.24c.84.84 2.2.84 3.03 0l2.04-2.04c.84-.84.84-2.2 0-3.03l-.87-.87c-.81-.81-2.22-.81-3.03 0-.84.84-.84 2.2 0 3.03l.41.41a.46.46 0 0 0 .65 0 .46.46 0 0 0 0-.65l-.41-.41a1.23 1.23 0 0 1 0-1.74c.46-.47 1.28-.46 1.74 0l.87.87a1.23 1.23 0 0 1 0 1.74l-2.04 2.04a1.23 1.23 0 0 1-1.74 0l-2.24-2.24a1.23 1.23 0 0 1 0-1.74L57 76.38c1.62-1.62 4.25-1.62 5.86 0l.21.21c.78.78 1.21 1.82 1.21 2.93s-.43 2.15-1.21 2.93l-1.61 1.61a4.15 4.15 0 0 1-5.24.51l-5.63-3.77v-21l5.13 3.43c.86.57 1.84.85 2.81.85 1.31 0 2.61-.5 3.58-1.48l1.61-1.61a5.02 5.02 0 0 0 1.48-3.58c0-1.35-.53-2.62-1.48-3.58l-.21-.21c-1.97-1.97-5.18-1.97-7.16 0l-2.09 2.09c-.84.84-.84 2.2 0 3.03l2.24 2.24c.84.84 2.2.84 3.03 0l2.04-2.04c.84-.84.84-2.2 0-3.03l-.87-.87c-.81-.81-2.22-.81-3.03 0-.84.84-.84 2.2 0 3.03l.41.41a.46.46 0 0 0 .65 0 .46.46 0 0 0 0-.65l-.41-.41a1.23 1.23 0 0 1 0-1.74c.46-.47 1.28-.47 1.74 0l.87.87a1.23 1.23 0 0 1 0 1.74l-2.04 2.04c-.47.47-1.28.47-1.74 0l-2.24-2.24a1.23 1.23 0 0 1 0-1.74L57 54.26c1.62-1.62 4.25-1.62 5.86 0l.21.21c.78.78 1.21 1.82 1.21 2.93s-.43 2.15-1.21 2.93l-1.61 1.61a4.15 4.15 0 0 1-5.24.51l-5.63-3.77v-.89c3.75-3.72 6.7-7.38 8.99-10.95l9.66 9.66-10.75 10.75c-.17.17-.27.4-.27.65s.1.47.27.65l11.03 11.03-9.58 9.58c-.36.36-.36.93 0 1.29l13.4 13.4-8.01 8.01c-.19.19-.28.44-.27.71a.92.92 0 0 0 .36.66l15.63 11.96c-6.45 2.08-14.03 2.65-22.69 1.68-4.55-4.63-7.44-10.88-7.73-17.79l4.52 3.03a5.06 5.06 0 0 0 2.81.85c1.31 0 2.61-.5 3.58-1.48l1.61-1.61c1.97-1.97 1.97-5.18 0-7.16l-.21-.21c-1.97-1.97-5.18-1.97-7.16 0l-2.09 2.09c-.84.84-.84 2.2 0 3.03zm47.23 2.15l2.41-2.27.72 5.04c-.17.29-.35.59-.54.89l-5.21 2.71 2.62-6.36zm3.86 1.44l-.64-4.48 3.68-3.47c-.43 1.76-1.31 4.65-3.04 7.95zm-.92-9.47h4.25l-4.12 3.88-.4-2.77c.12-.44.2-.81.27-1.11zm-.69 4.65l-1.22 1.15a32.68 32.68 0 0 0 1.01-2.62l.21 1.47zm-9.02 17.15l-6.31.92 4.4-4.15 4.26-2.21-2.19 5.33c-.05.04-.11.08-.16.12zm.84-5.69a31.41 31.41 0 0 0 3.09-3.59l-1.04 2.53-2.05 1.07zm-15.85 12.42l-5.51-1.09 5.89-2.59 5.59-.81-4.32 4.08c-.54.15-1.1.28-1.65.42zm-7.08-1.4l-3.46-.68a54.64 54.64 0 0 0 6.45-.63l-2.99 1.31zm12.17-3.89a36.64 36.64 0 0 0 3.51-1.69l-1.48 1.39-2.04.3zm-19.98 3.27l6.35 1.26-5.43 2.39c-1.21-.63-2.38-1.36-3.47-2.16l2.56-1.49zm7.92 1.57l4.74.94c-2.95.58-6.07.95-9.36 1.09l4.61-2.03zm14.51-4.27l5.75-.84c-2.9 1.87-6.14 3.39-9.67 4.54l3.92-3.7zm11.08-8.11l4.74-2.46c-.44.63-.89 1.27-1.4 1.9a35.81 35.81 0 0 1-5.33 5.4l1.99-4.84zm12.24-15.7h11.58l-3.22 4.8a5.06 5.06 0 0 0 .63 6.39l1.61 1.61c.99.99 2.28 1.48 3.58 1.48s2.59-.49 3.58-1.48l.2-.21c1.97-1.97 1.97-5.18 0-7.16l-2.09-2.09c-.84-.84-2.2-.84-3.03 0l-2.24 2.24c-.84.84-.84 2.2 0 3.03l2.04 2.04c.84.84 2.2.84 3.03 0l.87-.87c.84-.84.84-2.2 0-3.03-.84-.84-2.2-.84-3.03 0l-.41.41a.46.46 0 0 0 0 .65.46.46 0 0 0 .65 0l.41-.41a1.23 1.23 0 1 1 1.74 1.74l-.87.87a1.23 1.23 0 0 1-1.74 0l-2.04-2.04a1.23 1.23 0 0 1 0-1.74l2.24-2.24a1.23 1.23 0 0 1 1.74 0l2.09 2.09c1.62 1.62 1.62 4.25 0 5.86l-.2.21c-1.62 1.62-4.25 1.62-5.86 0l-1.61-1.61a4.15 4.15 0 0 1-.51-5.24l3.56-5.31h24.27l-3.6 5.38a5.06 5.06 0 0 0 .63 6.39l1.61 1.61a5.02 5.02 0 0 0 3.58 1.48c1.35 0 2.62-.53 3.58-1.48l.21-.21a5.02 5.02 0 0 0 1.48-3.58c0-1.35-.53-2.62-1.48-3.58l-2.09-2.09c-.84-.84-2.2-.84-3.03 0l-2.24 2.24c-.84.84-.84 2.2 0 3.03l2.04 2.04c.84.84 2.2.84 3.03 0l.87-.87c.84-.84.84-2.2 0-3.03-.84-.84-2.2-.84-3.03 0l-.41.41a.46.46 0 0 0 0 .65.46.46 0 0 0 .65 0l.41-.41a1.23 1.23 0 1 1 1.74 1.74l-.87.87a1.23 1.23 0 0 1-1.74 0l-2.04-2.04a1.23 1.23 0 0 1 0-1.74l2.24-2.24a1.23 1.23 0 0 1 1.74 0l2.09 2.09c.78.78 1.21 1.82 1.21 2.93s-.43 2.15-1.21 2.93l-.21.21c-.78.78-1.82 1.21-2.93 1.21s-2.15-.43-2.93-1.21l-1.61-1.61a4.15 4.15 0 0 1-.51-5.24l3.94-5.89h22.82l-3.6 5.38a5.06 5.06 0 0 0 .63 6.39l1.61 1.61c.99.99 2.28 1.48 3.58 1.48s2.59-.49 3.58-1.48l.21-.21a5.02 5.02 0 0 0 1.48-3.58c0-1.35-.53-2.62-1.48-3.58l-2.09-2.09c-.84-.84-2.2-.84-3.03 0l-2.24 2.24c-.84.84-.84 2.2 0 3.03l2.04 2.04c.84.84 2.2.84 3.03 0l.87-.87c.84-.84.84-2.2 0-3.03-.84-.84-2.2-.84-3.03 0l-.41.41a.46.46 0 0 0 0 .65.46.46 0 0 0 .65 0l.41-.41a1.23 1.23 0 1 1 1.74 1.74l-.87.87a1.23 1.23 0 0 1-1.74 0l-2.04-2.04a1.23 1.23 0 0 1 0-1.74l2.24-2.24a1.23 1.23 0 0 1 1.74 0l2.09 2.09c.78.78 1.21 1.82 1.21 2.93s-.43 2.15-1.21 2.93l-.21.21c-1.62 1.62-4.25 1.62-5.86 0l-1.61-1.61a4.15 4.15 0 0 1-.51-5.24l3.94-5.89h21.22l-3.6 5.38a5.06 5.06 0 0 0 .63 6.39l1.61 1.61a5.02 5.02 0 0 0 3.58 1.48c1.35 0 2.62-.53 3.58-1.48l.21-.21c1.97-1.97 1.97-5.18 0-7.16l-2.09-2.09c-.84-.84-2.2-.84-3.03 0l-2.24 2.24c-.84.84-.84 2.2 0 3.03l2.04 2.04c.84.84 2.2.84 3.03 0l.87-.87c.84-.84.84-2.2 0-3.03-.84-.84-2.2-.84-3.03 0l-.41.41a.46.46 0 0 0 0 .65.46.46 0 0 0 .65 0l.41-.41a1.23 1.23 0 1 1 1.74 1.74l-.87.87a1.23 1.23 0 0 1-1.74 0l-2.04-2.04a1.23 1.23 0 0 1 0-1.74l2.24-2.24a1.23 1.23 0 0 1 1.74 0l2.09 2.09c.78.78 1.21 1.82 1.21 2.93s-.43 2.15-1.21 2.93l-.21.21c-.78.78-1.82 1.21-2.93 1.21s-2.15-.43-2.93-1.21l-1.61-1.61a4.15 4.15 0 0 1-.51-5.24l3.94-5.89h19.17l-3.6 5.38a5.06 5.06 0 0 0 .63 6.39l1.61 1.61a5.02 5.02 0 0 0 3.58 1.48c1.35 0 2.62-.53 3.58-1.48l.21-.21c1.97-1.97 1.97-5.18 0-7.16l-2.09-2.09c-.84-.84-2.2-.84-3.03 0l-2.24 2.24c-.84.84-.84 2.2 0 3.03l2.04 2.04c.84.84 2.2.84 3.03 0l.87-.87c.84-.84.84-2.2 0-3.03-.84-.84-2.2-.84-3.03 0l-.41.41a.46.46 0 0 0 0 .65.46.46 0 0 0 .65 0l.41-.41a1.23 1.23 0 1 1 1.74 1.74l-.87.87a1.23 1.23 0 0 1-1.74 0l-2.04-2.04a1.23 1.23 0 0 1 0-1.74l2.24-2.24a1.23 1.23 0 0 1 1.74 0l2.09 2.09c.78.78 1.21 1.82 1.21 2.93s-.43 2.15-1.21 2.93l-.21.21c-.78.78-1.82 1.21-2.93 1.21s-2.15-.43-2.93-1.21l-1.61-1.61a4.15 4.15 0 0 1-.51-5.24l3.94-5.89h4.35c.04.27.88 5.82 4.75 12.22l-7.93 7.93-9.48-9.48c-.36-.36-.93-.36-1.29 0l-9.82 9.82-10.18-10.18c-.34-.34-.95-.34-1.29 0l-10.56 10.56-10.19-11.17c-.33-.36-.89-.4-1.26-.08l-12.96 10.85-10.83-10.71c-.33-.32-.84-.35-1.21-.07l-13.71 10.72-10.57-10.56a.91.91 0 0 0-1.17-.1l-8.07 5.61c5.69-7.62 6.81-15.03 6.85-15.35zm123.22 0c.08 0 .16-.01.24-.01.11.06.22.11.35.12a28.43 28.43 0 0 0 2.39.13c.18.19.47.5.86.87-1.29.87-4.44 3.14-5.55 5.34l-3.72-.99c-1.03-2.37-1.57-4.34-1.82-5.46h7.23zm11.34 4.47c1.18 0 2.43-.26 3.72-.9-1.37 2.55-2.08 4.54-2.13 6.02-11.41 1.23-13.71-.29-14.07-1.31-.59-1.7 3.08-4.84 5.71-6.55 1.53 1.26 3.94 2.74 6.78 2.74zm17.95 3.31c-.24 2.42-.07 5.04 1.52 5.98a2.61 2.61 0 0 0 1.35.35c1.45 0 3.39-.94 5.85-2.83-.32 1.65-.36 3.11-.14 4.39-10.54 6.72-14.45 6.65-15.88 5.39-2.17-1.9-.12-7.83.95-10.19 2.63-1.08 5.08-2.38 6.36-3.1zm2.13 16.76c.15.41.36.73.59.98-.63.03-1.25.04-1.86.05-.15-.13-.37-.15-.54-.03l-.05.04a55.82 55.82 0 0 1-5.73-.28l.41-2.66c1.95-.03 4.59-.89 7.94-2.6-.92 1.8-1.17 3.31-.74 4.51zm-19.89 2.49l-1.44-4.39c2.24 1.04 4.63 1.88 7.19 2.5l-5.24 2.08c-.17-.06-.34-.13-.5-.19zm-9.55-4.93l-.34-5.09a30.88 30.88 0 0 0 2.51 2.09 33.19 33.19 0 0 0 3.74 2.42l-5.5.86a9.95 9.95 0 0 1-.41-.28zm-8.12-7.92l-.33-.43 1.05-6.14c.58 1.16 1.28 2.37 2.1 3.6-.09.15-.09.34.01.5.09.13.23.2.38.2.03 0 .05-.02.07-.02.78 1.11 1.67 2.23 2.68 3.32l-5.96-1.02zm-4.89-9.08l2.88-5c.26 1.15.82 3.25 1.93 5.79.01.08.04.15.09.21a3.09 3.09 0 0 1 .14.32l-4.96-1.1c-.03-.07-.05-.14-.08-.21zm9.03 3.48c.15.42.44.78.86 1.09l-1.45.99a32.85 32.85 0 0 1-2.34-4.12l2.9.77c-.1.44-.11.87.03 1.27zm14.99 1.92c.02.09.05.18.07.27-3.98 4.62-5.72 7.77-5.29 9.62-1.06-.62-2.08-1.28-3.06-2.01a31 31 0 0 1-6.78-6.97l1.84-1.26c1.3.54 3.25.81 5.93.81 2.03 0 4.46-.15 7.29-.46zm-1.72 11.66c3.15-.08 7.46-1.69 9.03-2.32.19.76.52 1.42 1.08 1.91.51.45 1.15.72 1.93.84l-.4 2.62c-4.26-.5-8.14-1.52-11.64-3.04zm8.88-3.24c-3.86 1.58-10.09 3.35-11.32 1.68-.51-.7-.56-2.81 4.67-8.95.04.04.07.09.1.13.58.61 1.47.86 2.55.86 1.59 0 3.59-.55 5.58-1.29-.67 1.65-1.82 4.95-1.59 7.57zm-31.58-14.95c-.66-1.99-.94-3.43-1.03-3.97h3.32l-2.29 3.97zm.88 2.37l4.25.94-.91 5.37c-1.48-2.24-2.56-4.4-3.34-6.31zm11.23 9.93l.34 5.13c-2.37-1.79-4.5-3.84-6.35-6.16l6 1.02zm8.33 6l1.43 4.36c-2.48-.97-4.8-2.13-6.95-3.49l5.52-.86zm9.63 3.31l2.18 3.81a51.23 51.23 0 0 1-7.42-1.74l5.24-2.08zm20.11-.65a73.86 73.86 0 0 1-5.36.51c-.22-.1-.84-.43-1.12-1.23-.41-1.17.07-2.89 1.39-4.97a81.91 81.91 0 0 0 4.42-2.63c.22.74.53 1.42.96 2.01.88 1.21 2.02 1.85 2.96 2.2a27.01 27.01 0 0 1-3.26 4.11zm7.59-19.7c-.84.79-1.63 1.1-2.36.94-1.19-.27-2.12-1.79-2.66-2.96 2.33-3 3.94-6.32 5.02-9.68v11.7zm-5.65-1.24c.37.75.91 1.61 1.61 2.25-7.3 7.18-10.05 7.31-11.03 6.73-1.3-.77-1.31-3.46-.97-5.93a27.95 27.95 0 0 1 .68-3.41c.2.04.4.07.61.07.78 0 1.62-.33 2.5-.94-.81 3.65-1.53 6.02-1.55 6.09a.92.92 0 0 0 .32 1c.16.13.36.19.56.19.17 0 .34-.05.49-.14 2.73-1.71 4.96-3.72 6.79-5.91zm-6.33-2.49a.43.43 0 0 0-.24.1c-1.17.99-2.2 1.37-3.07 1.12-.84-.24-1.39-1.03-1.7-1.62.52-.53 1.02-1.09 1.49-1.69 3.15-4.03 4.71-9.05 5.45-13.69-.13 5.8-1.04 11.49-1.93 15.78zm-12.51-4.54c-1.37 1.24-2.7 1.89-3.92 2.16-2.21.47-4.02-.23-5.05-.81 7.06-3.17 10.84-9.6 12.74-14.28-.39 5.06-1.99 9.46-3.78 12.93zm-9.99 1.77a8.66 8.66 0 0 0 3.38 1.35c.38.06.8.1 1.25.1a6.18 6.18 0 0 0 .6-.03c-.47.74-.91 1.45-1.3 2.13-.12-.03-.25-.02-.36.05-4.48 2.75-8.47.3-10.51-1.47a.9.9 0 0 0-.1-.09c-.22-.2-.42-.39-.59-.56 2.87-.09 5.4-.63 7.63-1.49zm-32.28-3.29h17.18c1.43 0 2.69.72 3.45 1.81h-.21-23.88a4.19 4.19 0 0 1 3.46-1.82zm-27.15 0h17.18c1.43 0 2.7.72 3.46 1.82H182.2a4.19 4.19 0 0 1 3.46-1.82zm-26.22 0h17.18c1.43 0 2.7.72 3.46 1.82h-24.09a4.19 4.19 0 0 1 3.46-1.82zm-26.38 0h17.18c1.43 0 2.7.72 3.46 1.82H129.6a4.19 4.19 0 0 1 3.46-1.82zm-27.14 0h17.18c1.43 0 2.7.72 3.46 1.82h-24.09a4.19 4.19 0 0 1 3.46-1.82zm-17.28 0h10.14c.77 0 1.45.73 1.87 1.82H86.75c.42-1.09 1.11-1.82 1.87-1.82zM74.55 21.24c.19.51.37 1.03.53 1.55a2.15 2.15 0 0 0-1.94.58l-2.04 2.04c-.84.84-.84 2.2 0 3.03l.87.87a2.14 2.14 0 0 0 3.03 0c.84-.84.84-2.2 0-3.03l-.41-.41a.46.46 0 0 0-.65 0 .46.46 0 0 0 0 .65l.41.41a1.23 1.23 0 1 1-1.74 1.74l-.87-.87a1.23 1.23 0 0 1 0-1.74l2.04-2.04c.45-.45 1.15-.46 1.62-.09.46 1.76.75 3.58.86 5.46l-.6.7c-.78.78-1.82 1.21-2.93 1.21s-2.15-.43-2.93-1.21l-.21-.21c-1.62-1.62-1.62-4.25 0-5.86l1.61-1.61c.9-.9 2.14-1.3 3.34-1.18zm1.77 23.26l-.83-.83c-.84-.84-2.2-.84-3.03 0l-2.04 2.04a2.14 2.14 0 0 0-.63 1.52c0 .58.22 1.11.63 1.52l.87.87c.84.84 2.2.84 3.03 0 .84-.84.84-2.2 0-3.03l-.41-.41a.46.46 0 0 0-.65 0 .46.46 0 0 0 0 .65l.41.41a1.23 1.23 0 1 1-1.74 1.74l-.87-.87a1.23 1.23 0 0 1 0-1.74l2.04-2.04a1.23 1.23 0 0 1 1.74 0l1.48 1.48v3.26l-1.34 1.34c-1.62 1.62-4.25 1.62-5.86 0l-.21-.21c-.78-.78-1.21-1.82-1.21-2.93s.43-2.15 1.21-2.93l1.61-1.61c1.37-1.37 3.51-1.6 5.14-.57l.65 1.24v1.13zm0 22.33l-.83-.83c-.84-.84-2.2-.84-3.03 0l-2.04 2.04a2.14 2.14 0 0 0-.63 1.52c0 .58.22 1.11.63 1.52l.87.87c.84.84 2.2.84 3.03 0s.84-2.2 0-3.03l-.41-.41a.46.46 0 0 0-.65 0 .46.46 0 0 0 0 .65l.41.41a1.23 1.23 0 1 1-1.74 1.74l-.87-.87a1.23 1.23 0 0 1 0-1.74l2.04-2.04a1.23 1.23 0 0 1 1.74 0l1.48 1.48v3.26l-1.34 1.34c-1.62 1.62-4.25 1.62-5.86 0l-.21-.21c-.78-.78-1.21-1.82-1.21-2.93s.43-2.15 1.21-2.93l1.61-1.61c1.37-1.37 3.51-1.6 5.14-.57l.65 1.24v1.13zm0 20.27l-.83-.83c-.84-.84-2.2-.84-3.03 0l-2.04 2.04a2.14 2.14 0 0 0-.63 1.52c0 .58.22 1.11.63 1.52l.87.87c.84.84 2.2.84 3.03 0s.84-2.2 0-3.03l-.41-.41a.46.46 0 0 0-.65 0 .46.46 0 0 0 0 .65l.41.41a1.23 1.23 0 1 1-1.74 1.74l-.87-.87a1.23 1.23 0 0 1 0-1.74l2.04-2.04a1.23 1.23 0 0 1 1.74 0l1.48 1.48v3.06.19l-1.35 1.35c-.78.78-1.82 1.21-2.93 1.21s-2.15-.43-2.93-1.21l-.21-.21c-1.62-1.62-1.62-4.25 0-5.86l1.61-1.61a4.15 4.15 0 0 1 5.14-.57L76.3 86v1.13zm-2.13-66.78c-1.32-.01-2.64.48-3.62 1.46l-1.61 1.61c-1.97 1.97-1.97 5.18 0 7.16l.21.21c.98.98 2.27 1.48 3.57 1.48s2.59-.5 3.59-1.48v.37 4.11a1.59 1.59 0 0 0-1.06-.41c-.88 0-1.6.72-1.6 1.6s.72 1.6 1.6 1.6c.41 0 .77-.16 1.06-.41v3.89s-.03-.04-.05-.06a5.06 5.06 0 0 0-6.39.63l-1.61 1.61a5.02 5.02 0 0 0-1.48 3.58c0 1.35.53 2.62 1.48 3.58l.21.21c.99.99 2.28 1.48 3.58 1.48s2.59-.49 3.58-1.48l.69-.69v6.39a2.02 2.02 0 0 0-1.16-.36c-1.13 0-2.06.92-2.06 2.06s.92 2.06 2.06 2.06a2.02 2.02 0 0 0 1.16-.36v3.69s-.03-.04-.05-.06a5.06 5.06 0 0 0-6.39.63l-1.61 1.61a5.02 5.02 0 0 0-1.48 3.58c0 1.35.53 2.62 1.48 3.58l.21.21c.99.99 2.28 1.48 3.58 1.48s2.59-.49 3.58-1.48l.69-.69v5.15a1.59 1.59 0 0 0-1.06-.41c-.88 0-1.6.72-1.6 1.6s.72 1.6 1.6 1.6c.41 0 .77-.16 1.06-.41v3.89s-.03-.04-.05-.06a5.06 5.06 0 0 0-6.39.63l-1.61 1.61c-1.97 1.97-1.97 5.18 0 7.16l.21.21a5.02 5.02 0 0 0 3.58 1.48c1.35 0 2.62-.53 3.58-1.48l.79-.79a10.38 10.38 0 0 0 8.95 8.89l-2.25.45c-2.36.47-4.08 2.55-4.08 4.96v2.27a5.07 5.07 0 0 0 5.06 5.06h.29a5.07 5.07 0 0 0 5.06-5.06v-2.96c0-1.18-.96-2.15-2.14-2.15h-3.17c-1.18 0-2.14.96-2.14 2.15v2.88c0 1.18.96 2.14 2.14 2.14h1.24c1.18 0 2.15-.96 2.15-2.14s-.96-2.15-2.15-2.15h-.58a.46.46 0 0 0-.46.46.45.45 0 0 0 .46.46h.58a1.23 1.23 0 1 1 0 2.46h-1.24a1.23 1.23 0 0 1-1.23-1.23v-2.88a1.23 1.23 0 0 1 1.23-1.23h3.17a1.23 1.23 0 0 1 1.23 1.23v2.96c0 2.29-1.86 4.15-4.15 4.15h-.29c-2.29 0-4.15-1.86-4.15-4.15v-2.27c0-1.97 1.41-3.68 3.34-4.07l6.31-1.25h12.9l.15 1.07c-.99 3.66-3.91 11.51-11.67 17.3-2.44 1.82-5.16 3.29-8.12 4.42-.05-.2-.15-.38-.32-.51l-15.19-11.62 7.92-7.92c.36-.36.36-.93 0-1.29l-13.4-13.4 9.58-9.58c.17-.17.27-.4.27-.65s-.1-.47-.27-.65L60.46 68.01l10.75-10.75c.17-.17.27-.4.27-.65s-.1-.47-.27-.65L60.6 45.35c10.1-16.96 5.65-31.45 2.3-38.31a28.57 28.57 0 0 1 11.31 13.32zm2.12 38.11a1.14 1.14 0 1 1-2.28 0 1.14 1.14 0 1 1 2.28 0zM51.42 2.96c.41.23.69.53.84.9.77 1.99-2.05 5.81-3.45 7.41-1.33-.54-2.73-.49-3.33-.43.4-1.79.26-3.07-.44-3.85-.95-1.05-2.76-1.1-5.48-.19.68-.78 1.09-1.57 1.19-2.36a2.98 2.98 0 0 0 0-.79c2.32-.6 4.74-.92 7.22-.92a28.19 28.19 0 0 1 3.46.22zm-11.59.94c.01.14.02.28 0 .45-.1.76-.69 1.98-2.85 3.47-4 1.83-8.02 4.56-8.06 4.58-.08.05-.13.13-.16.22-1.04.01-2.27.6-3.35 1.28 3.71-4.89 8.73-8.33 14.43-10.01zM23.8 16.23c1.75-1.48 4.53-3.28 5.61-2.53.71.49 1.39 2.6-1.92 11.22-3.1 1.14-6.08 7.45-7.52 10.93-1.18-6.78.14-13.66 3.83-19.61zm-6.71 18.81c.29 2.22.82 4.43 1.6 6.6l2.42 6.72-3.71 11.21a.46.46 0 0 0 .29.58c.05.02.1.02.14.02a.45.45 0 0 0 .43-.31l3.34-10.11 1.6 4.45-2.58 9.44c-.07.24.08.49.32.56a.5.5 0 0 0 .12.02c.2 0 .38-.13.44-.34l2.24-8.19 3.29 9.15 5.76-24.36c.68-2.87 2.9-5.02 5.66-5.67.25 2.77.8 10.16.35 17.87-.53-.59-1.1-1.15-1.73-1.67-.55-.46-1.36-.41-1.86.1a1.36 1.36 0 0 0-.04 1.86l2.94 3.33c.12.19.22.4.33.6-.69 6.17-2.18 12.03-5.14 15.35-.09.1-.19.19-.28.29-.4-.85-.84-1.71-1.34-2.57-.37-.64-1.17-.87-1.82-.53s-.92 1.13-.61 1.79l1.42 3.04c-1.05.51-2.18.77-3.41.77s-2.41-.23-3.5-.64l1.57-3.14c.33-.65.08-1.45-.55-1.81-.64-.36-1.44-.16-1.83.46-.02.04-.61.99-1.34 2.65l-.26.53c-3.77-2.68-6.46-7.79-8.36-13.26 1.11-2.07 2.3-3.74 3.23-4.9l1.72-1.95c.49-.55.45-1.39-.09-1.9a1.36 1.36 0 0 0-1.9.02c-.03.03-.54.55-1.31 1.48l-2.89 3.28c-1.82-6.54-2.63-12.89-2.92-15.61a26.08 26.08 0 0 1 8.24-5.21zM4.57 64.01c-2.38-6.73-2.43-12.67-.13-17.7a16.52 16.52 0 0 1 .52-1.03c.38 3.71 1.16 9.37 2.7 15.23l-3.09 3.5zm9.85 22.94C9.75 79.97 9.1 73.44 10.09 68c1.89 4.74 4.43 9.08 7.82 11.99l-3.49 6.96zm12.22 16.02c-4.99-7.66-5.69-14.93-4.99-20.56 1.81.83 3.81 1.29 6.02 1.29 1.92 0 3.69-.43 5.3-1.26.91 9.73-4.02 17.49-6.32 20.53zm12.08-17.99l-2.39-5.11c.07-.08.15-.15.22-.23 1.99-2.22 3.47-5.22 4.57-8.63-.26 5.47-1.48 10.72-2.4 13.97zm6.27-25.04l-1.45-1.64c.89-9.33.33-18.6-.01-22.68.97.6 1.76 1.41 2.38 2.45 3.53 5.91.58 17.14-.91 21.87zm183.36 75.1l2.62-3.91a5.06 5.06 0 0 0-.63-6.39l-1.61-1.61a5.02 5.02 0 0 0-3.58-1.48c-1.35 0-2.62.53-3.58 1.48l-.21.21c-1.97 1.97-1.97 5.18 0 7.16l2.09 2.09c.84.84 2.2.84 3.03 0l2.24-2.24c.84-.84.84-2.2 0-3.03l-2.04-2.04c-.84-.84-2.2-.84-3.03 0l-.87.87c-.84.84-.84 2.2 0 3.03s2.2.84 3.03 0l.41-.41a.46.46 0 0 0 0-.65.46.46 0 0 0-.65 0l-.41.41a1.23 1.23 0 1 1-1.74-1.74l.87-.87a1.23 1.23 0 0 1 1.74 0l2.04 2.04a1.23 1.23 0 0 1 0 1.74l-2.24 2.24a1.23 1.23 0 0 1-1.74 0l-2.09-2.09c-1.62-1.62-1.62-4.25 0-5.86l.21-.21c.78-.78 1.82-1.21 2.93-1.21s2.15.43 2.93 1.21l1.61 1.61a4.15 4.15 0 0 1 .51 5.24l-2.96 4.42h-18.61l2.62-3.91a5.06 5.06 0 0 0-.63-6.39l-1.61-1.61a5.02 5.02 0 0 0-3.58-1.48c-1.35 0-2.62.53-3.58 1.48l-.21.21a5.02 5.02 0 0 0-1.48 3.58c0 1.35.53 2.62 1.48 3.58l2.09 2.09c.84.84 2.2.84 3.03 0l2.24-2.24c.84-.84.84-2.2 0-3.03l-2.04-2.04c-.84-.84-2.2-.84-3.03 0l-.87.87c-.84.84-.84 2.2 0 3.03.84.84 2.2.84 3.03 0l.41-.41a.46.46 0 0 0 0-.65.46.46 0 0 0-.65 0l-.41.41a1.23 1.23 0 1 1-1.74-1.74l.87-.87a1.23 1.23 0 0 1 1.74 0l2.04 2.04a1.23 1.23 0 0 1 0 1.74l-2.24 2.24a1.23 1.23 0 0 1-1.74 0l-2.09-2.09c-.78-.78-1.21-1.82-1.21-2.93s.43-2.15 1.21-2.93l.21-.21c.78-.78 1.82-1.21 2.93-1.21s2.15.43 2.93 1.21l1.61 1.61a4.15 4.15 0 0 1 .51 5.24l-2.96 4.42h-21.53l3.01-4.49a5.06 5.06 0 0 0-.63-6.39l-1.61-1.61a5.02 5.02 0 0 0-3.58-1.48c-1.35 0-2.62.53-3.58 1.48l-.21.21c-1.97 1.97-1.97 5.18 0 7.16l2.09 2.09c.84.84 2.2.84 3.03 0l2.24-2.24c.84-.84.84-2.2 0-3.03l-2.04-2.04c-.84-.84-2.2-.84-3.03 0l-.87.87c-.84.84-.84 2.2 0 3.03.84.84 2.2.84 3.03 0l.41-.41a.46.46 0 0 0 0-.65.46.46 0 0 0-.65 0l-.41.41a1.23 1.23 0 1 1-1.74-1.74l.87-.87a1.23 1.23 0 0 1 1.74 0l2.04 2.04a1.23 1.23 0 0 1 0 1.74l-2.24 2.24a1.23 1.23 0 0 1-1.74 0l-2.09-2.09c-1.62-1.62-1.62-4.25 0-5.86l.21-.21c.78-.78 1.82-1.21 2.93-1.21s2.15.43 2.93 1.21l1.61 1.61a4.15 4.15 0 0 1 .51 5.24l-3.35 5h-22.82l3.01-4.49a5.06 5.06 0 0 0-.63-6.39l-1.61-1.61a5.02 5.02 0 0 0-3.58-1.48c-1.35 0-2.62.53-3.58 1.48l-.21.21c-1.97 1.97-1.97 5.18 0 7.16l2.09 2.09c.84.84 2.2.84 3.03 0l2.24-2.24c.84-.84.84-2.2 0-3.03l-2.04-2.04c-.84-.84-2.2-.84-3.03 0l-.87.87c-.84.84-.84 2.2 0 3.03.84.84 2.2.84 3.03 0l.41-.41a.46.46 0 0 0 0-.65.46.46 0 0 0-.65 0l-.41.41a1.23 1.23 0 1 1-1.74-1.74l.87-.87a1.23 1.23 0 0 1 1.74 0l2.04 2.04a1.23 1.23 0 0 1 0 1.74l-2.24 2.24a1.23 1.23 0 0 1-1.74 0l-2.09-2.09c-1.62-1.62-1.62-4.25 0-5.86l.21-.21c.78-.78 1.82-1.21 2.93-1.21s2.15.43 2.93 1.21l1.61 1.61a4.15 4.15 0 0 1 .51 5.24l-3.35 5h-21.22l3.01-4.49a5.06 5.06 0 0 0-.63-6.39l-1.61-1.61c-1.97-1.97-5.18-1.97-7.16 0l-.21.21c-1.97 1.97-1.97 5.18 0 7.16l2.09 2.09c.84.84 2.2.84 3.03 0l2.24-2.24c.84-.84.84-2.2 0-3.03l-2.04-2.04c-.84-.84-2.2-.84-3.03 0l-.87.87c-.84.84-.84 2.2 0 3.03.84.84 2.2.84 3.03 0l.41-.41a.46.46 0 0 0 0-.65.46.46 0 0 0-.65 0l-.41.41a1.23 1.23 0 1 1-1.74-1.74l.87-.87a1.23 1.23 0 0 1 1.74 0l2.04 2.04a1.23 1.23 0 0 1 0 1.74l-2.24 2.24a1.23 1.23 0 0 1-1.74 0l-2.09-2.09c-.78-.78-1.21-1.82-1.21-2.93s.43-2.15 1.21-2.93l.21-.21c1.62-1.62 4.25-1.62 5.86 0l1.61 1.61a4.15 4.15 0 0 1 .51 5.24l-3.35 5h-23.74l3.01-4.49a5.06 5.06 0 0 0-.63-6.39l-1.61-1.61a5.02 5.02 0 0 0-3.58-1.48c-1.35 0-2.62.53-3.58 1.48l-.21.21c-1.97 1.97-1.97 5.18 0 7.16l2.09 2.09c.84.84 2.2.84 3.03 0l2.24-2.24c.84-.84.84-2.2 0-3.03l-2.04-2.04c-.84-.84-2.2-.84-3.03 0l-.87.87c-.84.84-.84 2.2 0 3.03.84.84 2.2.84 3.03 0l.41-.41a.46.46 0 0 0 0-.65.46.46 0 0 0-.65 0l-.41.41a1.23 1.23 0 1 1-1.74-1.74l.87-.87a1.23 1.23 0 0 1 1.74 0l2.04 2.04a1.23 1.23 0 0 1 0 1.74l-2.24 2.24a1.23 1.23 0 0 1-1.74 0l-2.09-2.09c-1.62-1.62-1.62-4.25 0-5.86l.21-.21c.78-.78 1.82-1.21 2.93-1.21s2.15.43 2.93 1.21l1.61 1.61a4.15 4.15 0 0 1 .51 5.24l-3.35 5H77.52a26.87 26.87 0 0 1-8.46-1.36c13.06-.84 22-5.11 28.09-10.27.08-.03.16-.05.23-.1l14.13-9.81 10.6 10.59c.33.33.84.36 1.21.07l13.72-10.72 10.85 10.73a.92.92 0 0 0 1.23.05l12.92-10.82 10.24 11.23c.17.18.4.29.65.3.26 0 .5-.1.67-.27l10.59-10.59 10.18 10.18c.17.17.4.27.65.27s.47-.1.65-.27l9.82-9.82 9.48 9.48c.34.34.95.34 1.29 0l8.29-8.29c4.97 7.39 14.07 15.4 30.55 17.62.06.06.13.11.22.13.03 0 .07.01.1.01a.44.44 0 0 0 .22-.07 69.78 69.78 0 0 0 5.03.44c-2.61.84-5.39 1.3-8.27 1.3h-24.16zm67.21-95.81c-1.54-.43-2.55-.59-2.7-.61-.49-.08-.94.25-1.04.73-.09.48.21.95.69 1.06l2.22.5c3.88 1.05 12.1 4.06 17.05 11.46 3.55 5.29 4.82 11.88 3.83 19.62-1.02-14.66-18.37-26.12-18.56-26.25-.21-.14-.5-.08-.63.13-.14.21-.08.49.13.63.19.12 18.03 11.92 18.2 26.61-3.26-7.25-11.39-21.95-24.95-25.16-.43-.1-.86.11-1.04.51s-.06.87.3 1.12c.15.11 14.82 10.75 16 24.17.44 5.01-1.07 9.83-4.47 14.37 4.8-20.72-9.69-31.1-9.85-31.21a.47.47 0 0 0-.64.11.47.47 0 0 0 .11.64c.15.11 14.64 10.5 9.23 31.33-.09-6.84-1.53-23.14-12.9-28.12a.91.91 0 0 0-1.06.25c-.26.31-.29.75-.07 1.09.16.24 14.62 23 .66 37.5 7.64-17.43-3.69-35.55-3.81-35.74-.14-.21-.42-.27-.63-.14-.21.14-.28.42-.14.63.11.18 10.53 16.85 4.37 33.34.57-7.16.59-20.59-5.93-29.06a.9.9 0 0 0-1.13-.26.91.91 0 0 0-.48 1.05c.02.06.32 1.25.64 3.21.48 2.96.99 7.67.57 12.92-.61 7.75-3.24 16.64-10.93 22.73 8.3-10.88 6.9-29.33 6.21-35.1l-.24-1.75a.46.46 0 0 0-.52-.38c-.25.04-.42.27-.38.52 0 .03.08.49.17 1.28.59 4.91 2.11 22.8-5.16 33.73 1.75-7.27 4.42-21.85 1.01-32.94a.92.92 0 0 0-1.07-.62c-.46.1-.77.55-.71 1.02.02.16 2.15 16.38-5.33 25.95-2.27 2.9-5.21 4.91-8.78 6 14.38-14.56 11.12-29.11 11.08-29.26-.06-.25-.31-.39-.55-.34-.25.06-.4.31-.34.55.04.15 3.24 14.54-11.32 28.89 3.35-4.29 9.19-13.71 7.86-25.93-.05-.45-.42-.8-.88-.81-.46.01-.85.31-.93.76-.14.83-3.46 18.65-19.89 20.16-.57.05-1.15.08-1.74.1a32.24 32.24 0 0 0 3.12-1.19c13.93-6.12 13.84-18.3 13.83-18.43 0-.25-.19-.45-.47-.45-.25 0-.45.21-.45.47 0 .12.08 10.59-11.41 16.67a30.28 30.28 0 0 1-3.33 1.5c1.47-1.21 3.15-2.75 4.74-4.54 2.86-3.21 5.44-7.24 5.91-11.67a.91.91 0 0 0-.63-.97c-.41-.13-.86.04-1.07.41-.13.22-1.4 2.37-3.82 4.48-.79.69-1.7 1.37-2.74 1.99-3.65 2.17-8.83 3.46-15.57.94.29-.07.59-.15.91-.24 6.8-.26 11.49-2.26 14.66-4.57 1.08-.78 1.99-1.6 2.74-2.4 2.52-2.66 3.36-5.08 3.37-5.13a.46.46 0 0 0-.29-.58.46.46 0 0 0-.58.29c-.02.05-.66 1.87-2.51 4.06a18.27 18.27 0 0 1-2.74 2.62c-2.4 1.87-5.81 3.61-10.56 4.39 3.77-1.41 8-3.59 10.56-6.82.76-.96 1.39-2.01 1.8-3.16.13-.38 0-.79-.31-1.03-.32-.24-.75-.24-1.07-.02-.12.08-10.71 7.43-21.65 1.41a27.42 27.42 0 0 0 5.59.59c9.45 0 15.57-5.03 15.65-5.1.19-.16.22-.45.06-.64s-.45-.22-.64-.06c-.08.07-7.7 6.31-19.01 4.58 5.09-.95 13.12-2.82 16.48-5.71.32-.27.41-.72.23-1.09s-.6-.58-1-.5c-.13.03-11.64 2.22-16.78-2.3l21.83-.05h.17c2.26 0 3.45 1.5 4.04 2.67.35.7.49 1.29.5 1.35l.19.89.89-.18c1.42-.29 2.49-.99 3.19-2.07.26-.41.44-.84.57-1.27.2-.64.29-1.29.3-1.84a1.59 1.59 0 0 1 .2.24c.32.44.53 1.01.67 1.64.2.9.25 1.88.22 2.75-.02.72-.08 1.36-.14 1.74l-.21 1.33 1.31-.29c2.01-.44 3.54-1.32 4.59-2.61.21-.26.41-.53.58-.83.35-.61.58-1.25.73-1.87.27-1.14.27-2.25.18-3.12 7.27 2.62 11.35-1.88 11.39-1.93l1.5-1.71-2.27.2c-2.44.21-3.89-.07-4.76-.45 8.08.52 11.18-3.54 11.32-3.73l.75-1.01-1.2-.4c-8.51-2.82-11.11-7.91-11.86-10.15a69 69 0 0 0 3.15.08c22.79 0 24.36-13.27 24.42-13.87l.07-.73-.7-.22c-15.08-4.84-24.22 1.33-27.56 4.33-.95-4.85-5.23-8.52-10.35-8.52h-17c-.93-1.49-3.92-7.13-.46-13.84l.25 9.88c0 .25.21.45.46.45.26 0 .46-.22.46-.47l-.27-10.51c1.2 2.38 2.98 6.78 2.11 10.45-.48 1.13-.74 1.86-.79 1.99a.9.9 0 0 0 .48 1.13c.43.19.94.03 1.17-.38.38-.67.66-1.36.85-2.08 1.66-3.81 6.01-12.3 13.16-16.83l-10.7 14.37a.46.46 0 0 0 .36.73.46.46 0 0 0 .37-.18l6.25-8.39-4.54 6.93c-1.92 2.54-2.86 4.37-2.89 4.43a.91.91 0 0 0 .36 1.2.91.91 0 0 0 1.22-.29l2.86-4.37c4.04-5.32 12.55-13.84 26.12-15.18l-22.4 15.01c-.21.14-.27.42-.12.63.09.13.23.2.38.2.09 0 .18-.02.25-.08l20.06-13.44-20.04 16.15c-.39.31-.45.88-.14 1.28.31.39.88.46 1.28.16.24-.19 22.81-17.46 40.88-15.74l-28.71 10.78c-.24.09-.36.35-.27.59.07.18.24.3.43.3.05 0 .11 0 .16-.03l23.43-8.8-21.22 10.93c-1.61.78-2.55 1.31-2.6 1.34a.91.91 0 0 0-.34 1.23c.24.43.78.6 1.22.37l2.65-1.36c7.17-3.44 27.51-11.53 40.98-.15l-28.61-1.98a.46.46 0 0 0-.49.42.46.46 0 0 0 .42.49l24.56 1.7-21.77.8c-2.23 0-3.6.13-3.66.14-.49.05-.85.48-.82.97a.91.91 0 0 0 .91.85c.03 0 3.71-.13 3.71-.13 7.47 0 24.71 1.45 34.68 13.81l-23.8-9.13c-.23-.09-.5.03-.59.26a.46.46 0 0 0 .26.59l21.61 8.29-20.43-4.65zm-31.07 3.55c.08 0 .16-.02.23-.06.06-.04 6.37-3.71 13.87-1.68a.45.45 0 0 0 .56-.32c.07-.24-.08-.5-.32-.56-3.77-1.02-7.22-.69-9.81-.05 3.96-2.11 9.93-4.51 14.67-3.09.24.07.5-.06.57-.31.07-.24-.06-.5-.31-.57-8.2-2.46-19.27 5.48-19.74 5.82a.45.45 0 0 0-.11.62c.09.13.23.21.38.21z"/><path d="M247.26 52.05a.455.455 0 1 0-.58.7c2.21 1.86 3.3 3.81 3.25 5.82-.09 3.24-3.19 5.6-3.22 5.62a.46.46 0 0 0-.09.64.46.46 0 0 0 .64.09c.14-.11 3.48-2.63 3.59-6.32.07-2.3-1.13-4.5-3.57-6.55zm10.31-2.37l-5.08 2.12 6.05.95-2.02 2.61 3.22 4.79c.09.13.23.2.38.2a.42.42 0 0 0 .26-.08.45.45 0 0 0 .12-.63l-2.85-4.25 2.57-3.31-4.38-.68 3.86-1.61-7.83-4.23c.99-.47 1.99-1.05 2.97-1.78a.46.46 0 0 0 .09-.64.46.46 0 0 0-.64-.09c-1.11.83-2.23 1.44-3.35 1.91l-1.04-1.21c3.07-1.85 5.41-3.85 5.61-4.02l2.24-1.94-18.95 2.19-3.57.35c-.05-.28-.05-.67.17-1.12.63-1.29 3.32-3.61 14.34-4.66.25-.02.44-.25.41-.5-.02-.25-.25-.42-.5-.41-8.78.84-13.85 2.59-15.09 5.2-.29.61-.3 1.15-.24 1.57l-.23.02.28 1.04c.76 2.77 2.24 4.52 4.41 5.18.65.2 1.33.29 2.04.29.1 0 .21-.02.31-.02.86.15 1.95.28 3.23.28 1.88 0 4.13-.29 6.46-1.21l6.74 3.68zm-21.08-7.64l1.78-.2 5.41 2.14 4.43-3.25 3.67-.41c-3.53 2.53-8.99 5.66-12.45 4.6-1.29-.39-2.22-1.34-2.84-2.87zm8.12 4.21c1.54-.51 3.07-1.24 4.48-2.05l.94 1.09c-1.94.69-3.81.93-5.42.96zm-39.77 63.55c.88 0 1.6-.72 1.6-1.6s-.72-1.6-1.6-1.6-1.6.72-1.6 1.6.72 1.6 1.6 1.6zm-20.58.57c1.13 0 2.06-.92 2.06-2.06s-.92-2.06-2.06-2.06-2.06.92-2.06 2.06.92 2.06 2.06 2.06zm0-3.21a1.14 1.14 0 0 1 1.14 1.14 1.15 1.15 0 0 1-1.14 1.15 1.14 1.14 0 0 1-1.14-1.15c0-.64.51-1.14 1.14-1.14zm-22.02 2.64c.88 0 1.6-.72 1.6-1.6s-.72-1.6-1.6-1.6-1.6.72-1.6 1.6.72 1.6 1.6 1.6zm-48.9-.57c.88 0 1.6-.72 1.6-1.6s-.72-1.6-1.6-1.6-1.6.72-1.6 1.6.72 1.6 1.6 1.6zm24.67 1.14c1.13 0 2.06-.92 2.06-2.06s-.92-2.06-2.06-2.06-2.06.92-2.06 2.06.92 2.06 2.06 2.06zm0-3.21a1.14 1.14 0 0 1 1.14 1.14 1.15 1.15 0 0 1-1.14 1.15 1.14 1.14 0 0 1-1.14-1.15c0-.64.51-1.14 1.14-1.14z"/><circle cx="122.96" cy="129.54" r="1.6"/><path d="M148.11 127.38c-1.13 0-2.06.92-2.06 2.06s.92 2.06 2.06 2.06 2.06-.92 2.06-2.06-.92-2.06-2.06-2.06zm0 3.2a1.14 1.14 0 0 1 0-2.28 1.15 1.15 0 0 1 1.15 1.14 1.14 1.14 0 0 1-1.15 1.14zm-49.53-3.2c-1.13 0-2.06.92-2.06 2.06s.92 2.06 2.06 2.06 2.06-.92 2.06-2.06-.92-2.06-2.06-2.06zm0 3.2a1.14 1.14 0 0 1 0-2.28 1.14 1.14 0 1 1 0 2.28zm71.54-2.64c-.88 0-1.6.72-1.6 1.6s.72 1.6 1.6 1.6 1.6-.72 1.6-1.6-.72-1.6-1.6-1.6zm46.17.58c-.88 0-1.6.72-1.6 1.6s.72 1.6 1.6 1.6 1.6-.72 1.6-1.6-.72-1.6-1.6-1.6zm-21.93-1.14c-1.13 0-2.06.92-2.06 2.06s.92 2.06 2.06 2.06 2.06-.92 2.06-2.06-.92-2.06-2.06-2.06zm0 3.2a1.14 1.14 0 0 1 0-2.28 1.14 1.14 0 0 1 0 2.28zM55.23 66.69c-.88 0-1.6.72-1.6 1.6s.72 1.6 1.6 1.6 1.6-.72 1.6-1.6-.72-1.6-1.6-1.6zm.92 48.9c-.88 0-1.6.72-1.6 1.6s.72 1.6 1.6 1.6 1.6-.72 1.6-1.6-.72-1.6-1.6-1.6zm.68-22.84c1.13 0 2.06-.92 2.06-2.06s-.92-2.06-2.06-2.06-2.06.92-2.06 2.06.92 2.06 2.06 2.06zm0-3.2a1.14 1.14 0 0 1 1.14 1.15c0 .64-.51 1.14-1.14 1.14a1.14 1.14 0 0 1-1.14-1.14 1.15 1.15 0 0 1 1.14-1.15z"/></svg>