<?xml version="1.0" encoding="UTF-8"?>
<svg xmlns="http://www.w3.org/2000/svg" viewBox="0 0 138.74 160.83">
  <defs>
    <style>
      .cls-1 {
        isolation: isolate;
      }

      .cls-2 {
        fill: #f74e25;
        stroke-width: 0px;
      }

      .cls-3 {
        mix-blend-mode: darken;
      }
    </style>
  </defs>
  <g class="cls-1">
    <g id="Layer_2" data-name="Layer 2">
      <g id="desktop">
        <g class="cls-3">
          <path class="cls-2" d="M137.38,106.27c-.34.39-.25.77-.04,1.17.08.16.19.31.27.47.14.29.18.62-.11.79-.28.17-.69.36-.96.04-.37-.45-.82-.39-1.3-.4-1.21-.04-2.11-.72-2.96-1.49-.04-.04-.11-.11-.09-.13.43-.81-.56-1.35-.38-2.14.11-.48-.47-.71-.63-1.09-.66-1.56-1.86-1.66-3.82-1.09-.52.15-1.06.07-1.58-.09-.56-.17-1.07-.43-1.58-.72-.38-.22-.83-.36-1.3-.36-.37,0-.74.03-1.09-.1-.13-.05-.31.03-.32-.2-.01-.2.02-.34.23-.44.25-.11.48-.26.85-.48-.63-.21-1.15-.45-1.68-.54-.85-.15-1.33.52-1.69,1.08-.6.96-1.28,1.9-1.58,3.02-.25.92-.71,1.68-1.3,2.43-.41.51-.56,1.2-.13,1.88.32.49.28.93-.21,1.38-.36.34-.62.79-1.04,1.09-.06.05-.13.19-.1.24.34.77.14,1.76,1.01,2.32.34.22.73.42,1.06.3.52-.19.88.1,1.2.32.53.39,1.05.77,1.65,1.03.54.24,1,.61,1.4,1.05.37.41.89.62,1.38.84.29.13.44.31.28.58-.62,1.06-.11,2.09.01,3.14.1.86.69,1.43,1.02,2.15.23.51.2,1.13-.06,1.61-.2.37-.71.22-1.12.26-1.01.08-2.02-.2-3.01-.02-.63.12-1.01.71-1.47,1.13-.06.06-.09.14-.17.19-.52.32-.95.72-1.01,1.39-.02.17-.12.39-.26.47-.35.21-.32.4-.04.63.04.03.09.08.09.13.19,1.33.69,2.61.58,3.98-.02.28-.13.53-.28.7-.53.6-1.15,1.07-1.91,1.38-.74.3-1.5.68-1.74,1.59-.08.29-.28.54-.49.78-.52.61-.7,1.38-.8,2.17-.11.9-1.09,1.73-1.97,1.56-1-.19-1.95-.29-2.96.07-.49.18-1.08-.11-1.58-.34-.39-.18-.3-.57-.1-.85.41-.56.33-1.14.14-1.73-.14-.43-.35-.84-.49-1.27-.2-.63.05-.98.72-1,.22,0,.44,0,.67,0,.45,0,.78-.25.86-.64.18-.91.84-1.55,1.22-2.35.15-.31.18-.54.02-.82-.26-.45-.59-.83-.99-1.15-.59-.48-.6-.61-.09-1.12.36-.36.71-.71,1.19-.96.47-.25.87-.35,1.4-.22.6.15,1.41-.52,1.64-1.1.22-.56.31-1.07,0-1.61-.08-.13-.16-.28-.28-.33-1.01-.42-1.3-1.22-1.45-2.25-.13-.89-.31-1.79-.55-2.67-.14-.49-.15-1.01-.25-1.51-.15-.77-.57-1.4-.88-2.08-.25-.53-.55-.99-.98-1.38-.18-.16-.31-.34-.31-.62,0-.36-.29-.58-.54-.8-.31-.28-.43-.61-.46-1.02-.06-1.01-.35-1.96-.91-2.82-.16-.24-.29-.52-.36-.79-.25-1.04-1.16-1.28-1.95-1.64-.22-.1-.44.18-.6.38-.84,1.08-1.55,1.2-2.72.46-.04-.03-.11-.05-.12-.09-.34-1.23-1.55-1.28-2.43-1.75-.36-.19-.66-.33-.84-.72-.14-.31-.38-.48-.75-.45-.22.02-.44,0-.67,0-.22,0-.51.05-.57-.21-.05-.17.2-.32.35-.4.45-.23.64-.72.52-1.04-.28-.72,0-1.04.58-1.32.19-.09.1-.27.02-.43-.53-1-1.34-1.78-2.14-2.55-.24-.23-.51-.16-.71.09-.46.59-1,.87-1.78.65-.59-.17-1.12.13-1.64.4-.24.13-.48.3-.74.34-.38.06-.8.03-.99-.41-.16-.37.07-.91.43-1.1.1-.05.21-.07.31-.13.62-.33.65-.71.09-1.13-.69-.52-1.38-.89-2.32-.69-.79.17-1.41-.41-1.99-.86-.19-.15-.21-.57-.21-.87.01-.73-.21-1.29-.94-1.54-.34-.12-.53-.35-.67-.67-.21-.48-.47-.93-.63-1.43-.39-1.25-1.93-2.06-2.83-1.82-.1.03-.23.05-.3.13-.61.72-1.27.33-1.93.1-.45-.15-.84-.4-1.25-.62-.37-.19-.83.14-1.24.29-.53.18-1.04.43-1.57.6-.59.19-.97,0-1.23-.6-.47-1.09-1.39-1.67-2.42-2.09-.39-.16-.85-.06-1.28-.21-.9-.33-1.24-1.07-1.57-1.83-.21-.5-.59-.87-.9-1.29-.14-.19-.36-.32-.46-.53-.29-.56-.73-.76-1.35-.74-.69.03-1-.31-1.03-1,0-.24,0-.48,0-.72-.04-.47-.27-.83-.69-1.05-.08-.04-.18-.05-.25-.11-1.07-.95-2.45-1.29-3.67-1.94-.46-.25-.89-.62-.84-1.24.02-.32-.12-.6-.25-.83-.69-1.25-1.42-2.51-2.77-3.15-.77-.36-1.65-.41-2.49-.24-.48.09-.91,0-1.33-.15-.38-.13-.59-.64-.33-.89.79-.75.1-1.35-.18-1.94-.3-.61-.86-1.01-1.44-1.36-.73-.45-1.16-1.27-1.97-1.66-.27-.13-.54-.21-.81-.27-.48-.11-.61-.38-.28-.75.21-.24.48-.46.34-.77-.15-.32-.51-.41-.86-.37-.26.03-.4-.15-.57-.28-.28-.23-.57-.37-.94-.13-.22.14-.51.18-.72-.03-.25-.24-.26-.58-.14-.88.25-.58.41-1.17.38-1.8-.03-.8.09-1.6-.18-2.41-.2-.59-.47-1.09-.91-1.49-.59-.54-.95-1.26-1.36-1.92-.28-.45-.15-1.17-.21-1.76-.06-.52-.14-1.04-.43-1.5-.23-.37.02-.7.6-.8.26-.04.38-.14.19-.34-.73-.75-1.25-1.63-1.69-2.58-.38-.82-1.17-1.19-2-1.4-.35-.09-.62-.28-.82-.5-.28-.3-.48-.26-.73-.03-.32.28-.6.23-.86-.07-.51-.58-1.04-1.14-1.51-1.76-.2-.26-.43-.51-.68-.61-1.22-.49-2.28-1.44-3.72-1.29-.45.05-.63-.34-.79-.65-.31-.59-.76-.85-1.42-.8-.55.04-1.1,0-1.61-.27-.24-.13-.55-.13-.76-.03-.6.3-1.27.31-1.89.53-.78.28-1.72,1.45-1.79,2.29-.06.69-.37.93-1.01.74-.22-.07-.38.02-.5.13-.51.47-.99.97-1.5,1.44-.25.23-.38.49-.32.83.04.23-.03.52-.15.62-.61.51-.96,1.27-1.62,1.7-.79.51-1.72.63-2.63.79-.65.11-1.29.26-1.96.23-.36-.02-.55-.1-.65-.5-.44-1.79-.07-2.51,1.64-3.63.38-.25.27-.52.04-.76-.4-.41-.73-.81-.36-1.41.08-.13.01-.27-.12-.33-.17-.08-.4-.13-.52.03-.65.83-1.69.56-2.52.91-.26.11-.6.06-.83-.16-1.08-1.02-2.44-1.6-3.64-2.45-.72-.51-.82-1.23-1.01-1.95-.07-.26,0-.46.36-.44.22,0,.46-.17.48-.35.01-.19-.25-.26-.45-.32-.78-.24-.92-.47-.73-.95.09-.23.29-.26.46-.36.53-.3.93-.66.9-1.35-.02-.53.27-.86.8-.99.5-.12.7-.53.47-.99-.02-.03-.07-.05-.07-.08-.2-.76-.56-1.17-1.47-.97-.45.1-.85-.38-1.27-.57-.11-.05-.12-.17-.13-.29-.07-.77-.34-1.47-.7-2.15-.11-.21-.34-.27-.51-.4-.23-.18-.59-.35-.44-.72.13-.33.42-.52.82-.51.57.02,1.15,0,1.72,0,.23,0,.39-.05.55-.25.59-.75,1.21-1.47,2.23-1.65.15-.03.18-.13.13-.29-.08-.22-.12-.45-.18-.68-.15-.59-.1-1.11.41-1.55.46-.4.39-.68-.18-.91-.38-.15-.71-.35-1.04-.58-.32-.22-.45-.46-.27-.83.05-.1.09-.2.1-.31.02-.29.03-.59.04-.89.01-.49-.43-.26-.65-.4-.66-.43-1.2-.98-1.64-1.61-.16-.22-.14-.6.29-.75.55-.19,1.07-.44,1.62-.65.26-.1.53-.23.69-.43.37-.49.54-.2.69.14.1.24.27.38.5.34.59-.1,1.19-.11,1.77-.03.79.1,1.29-.27,1.74-.81.11-.13.2-.26.32-.38.28-.29.55-.51,1.01-.25.65.37,1.46.3,2.1.73.18.12.31.31.54.36.5.12.98-.04,1.28-.67.38-.8.99-1.37,1.68-1.85,1.17-.81.8-1.22.31-2.14-.18-.32-.34-.65-.18-.96.14-.28.51-.27.79-.27,1.09,0,1.8-.47,2.17-1.52.25-.72,1.14-1.08,1.84-.92.25.06.38.35.34.61-.11.64-.25,1.27-.67,1.81-.4.52-.35.97.1,1.46.36.39.75.76,1.07,1.18.5.67,1.11.81,1.89.57.62-.18.9.06.74.67-.14.52,0,.97.13,1.44.11.4.19.81.25,1.23.09.65.83,1.44,1.62,1.34.38-.05.55-.38.41-.79-.01-.03-.04-.08-.03-.1.47-.59,0-.98-.28-1.43-.27-.45.24-.7.38-1.04.06-.16.25-.27.22-.48-.1-.69.26-1.15.7-1.62.7-.74,1-1.75,1.59-2.58.12-.17.11-.49-.02-.7-.28-.49-.3-1.02-.28-1.55.01-.23-.12-.55.16-.65.28-.1.61-.13.9.06.96.63,1.72,1.43,2.18,2.49.14.32.34.6.48.92.12.26.38.41.73.27.64-.25,1.3-.45,1.8-.98.28-.3.72-.23,1.08-.34.12-.04.27.11.29.22.14.63.75,1.03.81,1.7.02.23.09.59.32.57.3-.02.55-.36.55-.65,0-.36.15-.69.08-1.08-.05-.28.14-.72.52-.91.16-.08.36-.14.29-.4-.06-.23-.23-.26-.43-.26-.35,0-.7,0-1.06,0-.28,0-.49-.16-.37-.39.3-.61.18-1.37.68-1.9.39-.41.9-.65,1.39-.91.14-.08.27.03.37.16.48.68,1.09,1.18,1.91,1.42.34.1.5-.07.55-.41.12-1-.3-1.88-.51-2.81-.19-.86.12-1.37.98-1.47.44-.05.86-.16,1.28-.29.46-.14.86.06,1.02.53.16.45.31.78.93.8.47.02.96.07,1.43.04.62-.04.76-.59.84-1.06.2-1.13.79-1.75,1.91-1.93.82-.14,1.68-.05,2.47-.42.27-.13.46-.36.83-.37.54-.02,1.03.14,1.4.4.61.44.98.08,1.4-.21.55-.39,1.07-.79,1.74-1,.47-.15.93-.16,1.41-.17.4,0,.64.22.53.58-.27.95.07,1.5.94,1.88.39.17.59.6.51,1.08-.06.34.13.57.39.62.65.11.84.66,1.18,1.08.07.08.1.19.16.29.39.69.92,1.09,1.78.94.41-.07.85,0,1.28-.02.2,0,.42.02.51.15.36.53.85.48,1.32.29,1-.4,1.88.13,2.8.33.62.13,1.23.31,1.85.45.09.02.21.04.27,0,.52-.37,1.09-.15,1.6-.06.53.09,1.15-.11,1.61.36.08.08.31.08.42.02.47-.24.91.02,1.35.05.3.02.14.33.16.5.03.22.02.42-.3.49-1.36.3-2.42,1.13-3.45,1.99-.29.25-.6.57-.54.94.08.5.57.66,1.01.7.39.04.75.16,1.13.24.49.1.81.38.92.83.12.5-.3.71-.62.97-.34.27-.7.52-.93.9-.18.3-.14.46.23.54,1.3.3,1.3.31,1.21,1.62-.05.65.42.94.88,1.19.65.36,1.19.82,1.63,1.41.58.77.19,2.14-.71,2.5-.37.15-.63.06-.82-.3-.19-.37.07-.52.3-.62.43-.18.37-.37.06-.61-.69-.54-1.38-1.07-2.08-1.61-.44.55-.78,1.15-1.27,1.6-.14.01-.16-.1-.15-.14.1-.73-.52-.9-.96-1.09-.29-.13-.59-.25-.89-.38-.61-.27-1.16-.03-1.7.21-.2.09-.41.31-.04.43.29.1.4.22.4.54,0,.38-.19.63-.5.71-.41.11-.8.28-1.25.27-.32,0-.54-.15-.57-.38-.05-.43-.38-.43-.63-.56-.15.24-.02.42.07.59.38.81.13,1.36-.77,1.49-.39.06-.71.24-.98.44-.71.51-1.49.93-2.2,1.44-.17.12-.39.24-.62.1-.2-.12-.16-.34-.11-.51.07-.25.18-.47.53-.45.36.02.84-.14.83-.43-.01-.29-.54-.39-.86-.55-.08-.04-.22-.04-.29.09-.34.63-.92.91-1.58,1.09-.64.18-.88.72-1.09,1.27-.04.1-.06.22-.15.28-.78.52-.5,1.32-.51,2.03,0,.32.29.49.57.56,1.03.26,1.47,1.35.9,2.27-.18.28-.18.29.16.31.2.01.26.12.25.29-.01.28.07.54.17.79.3.03.27-.42.66-.36.93.13,1.13.26,1.03,1.24-.05.46-.05.91-.08,1.37,0,.13.07.32-.17.33-.16,0-.23-.09-.27-.22-.07-.22-.09-.53-.43-.43-.35.11-.24.39-.17.65.03.12.05.25.05.38,0,.1.04.24-.11.28-.17.05-.19-.08-.25-.21-.21-.46-1.22-.49-1.54-.07-.08.11-.1.21,0,.28.35.27.24.61.15.94-.14.49-.04,1,.12,1.41.45,1.12.36,2.3.61,3.44.43,1.97,1.23,3.71,2.92,4.94.65.47,1.23,1.03,1.9,1.49.38.26.8.4,1.21.59,1.06.49,2.13.96,3.04,1.73.99.84,1.87,1.82,2.99,2.49.63.38,1.28.76,2.03.87.57.08.96.43,1.27.88.62.89,1,1.87,1.27,2.92.18.7.42,1.39.96,1.99.61.68.74,1.63.88,2.53.28,1.76,1,3.37,1.58,5.03.6,1.71,1.9,2.92,3.17,4.14.13.13.31.18.49.22.62.15,1.1.47,1.47,1.03.67,1.01,1.49,1.89,2.47,2.62.07.05.16.12.24.13.77.03,1.07.62,1.36,1.17.37.71.91,1.02,1.71.94.76-.07,1.34.34,1.87.82.56.51,1.16.8,1.94.74.56-.04,1.12,0,1.6.41.26.22.62.2.91.12,1.01-.29,2.05-.23,3.08-.33,1.15-.11,2.26-.37,3.36-.7,1.7-.52,2.84.87,2.65,1.94-.14.79-.46,1.6-1.27,2.05-.16.09-.32.2-.42.35-.36.53-.82.65-1.4.43-.17-.07-.26,0-.31.19-.26,1.15-.03,1.63.95,2.33,1.04.75,2.2,1.19,3.35,1.7.97.43,1.95.85,2.94,1.2,1.09.38,2.15.84,3.28,1.12,1.61.4,3.22.82,4.74,1.56,1.22.59,2.23,1.4,3.28,2.21,1.04.8,2.16,1.53,3.35,2.04,1.22.52,2.48,1.09,3.9.94.34-.04.57.16.68.49.11.34.28.66.34,1.03.08.6.71,1.04,1.42,1.04.54,0,.94,0,1.24.66.25.55.92.91,1.42,1.34.37.32.74.63,1.12.93.24.19.32.44.2.69-.26.55.05.94.35,1.29.59.7.63,1.02.05,1.76-.31.39-.61.79-.94,1.16ZM104.48,134.51c-.19-.1-.4,0-.6.15-.47.37-.97.71-1.48,1.03-.63.39-1.42.19-1.59-.41-.05-.18-.01-.43-.25-.41-.22.03-.35.24-.44.48-.21.58-.33,1.18-.63,1.73-.3.54-.87.71-1.35.32-.5-.4-1.14-.5-1.66-.85-.22-.15-.41-.02-.55.1-.3.24-.6.21-.93.1-.61-.2-1.01.01-1.2.63-.37,1.21-.66,1.4-1.91,1.45-.94.04-1.91.1-2.74.64-.53.34-.95.19-1.39-.16-.3-.25-.63-.52-1.07-.2-.1.07-.29.02-.43.04-.67.09-1.32.26-1.82.77-.54.55-2.3.83-2.93.41-.7-.47-1.39-.93-1.78-1.77-.34-.74-.73-.78-1.17-.26-.61.71-.71.71-1.1-.14-.11-.24-.23-.46-.39-.65-.34-.41-.89-.53-1.32-.23-.3.2-.58.27-.92.22-.52-.14-.81.14-1.07.53-.23.34-.53.59-.35,1.1.13.38-.19.67-.59.68-.9.03-1.69-.26-2.22-1.03-.26-.37-.6-.65-.9-.97-.12-.13-.26-.14-.41-.09-.16.06-.19.17-.16.35.07.35-.16.61-.43.74-.89.43-1.34,1.33-2.1,1.91-.27.21-.58.54-.5.93.17.84-.1,1.62-.25,2.42-.15.83.14,2.08,1.14,2.26.65.12,1.09.46,1.39,1.01.12.23.27.26.5.22,1.22-.18,2.44-.04,3.66-.08.28-.01.46.11.54.38.21.75.31.82,1.12.76.73-.05,1.05.18,1.26.84.15.49.41.88.99.95.38.04.68.27.91.54.63.78,1.42,1,2.37.78.31-.07.68-.14.88.25.3.59.85.91,1.35,1.29.71.53,1.52.86,2.36,1.07.75.19,1.52.33,2.28-.15.78-.48,1.23-.35,1.91.31.84.83,1.77,1.56,2.68,2.32.5.42,1.1.73,1.41,1.36.26.53.57,1.04,1.3,1,.12,0,.27.19.36.32.58.8,1.19.99,2.12.69.18-.06.33-.24.45-.23,1.02.07,2.06.05,2.97.65.51.33.64.25.65-.38,0-.76.03-1.52,0-2.28-.03-.62-.02-1.17.69-1.44.14-.05.25-.22.33-.36.27-.49.61-.89,1.16-1.09.23-.09.44-.43.2-.52-.44-.17-.37-.46-.34-.75.03-.3-.06-.41-.37-.45-.52-.07-.86-.4-1.05-.89-.08-.2-.15-.44.02-.62.15-.16.35-.02.51.02.15.04.28.11.38-.05.12-.19-.07-.25-.16-.36-.43-.54-1.08-.7-1.68-.97-.22-.1-.4-.18-.35-.47.1-.52-.2-.88-.51-1.24-.19-.22-.28-.41.04-.68.84-.68,1.24-1.62,1.37-2.68.12-.93.06-1.91.79-2.67.28-.29.51-.64.73-.99.8-1.26,1.59-2.52,2.06-3.94.29-.9.59-1.81.53-2.78-.02-.24-.14-.45-.32-.54ZM33.97,99.79c.08-.77-.15-1.4-.74-1.92-.33-.29-.2-.94.16-1.08.17-.06.48.08.47-.22,0-.25-.34-.25-.5-.41-.06-.06-.22-.02-.32-.06-.39-.17-.75-.35-.67-.91.06-.4.02-.81,0-1.22,0-.39-.22-.64-.61-.61-.51.03-.45-.27-.33-.55.09-.23.21-.42.13-.68-.19-.57-.69-.75-1.27-.44-.56.29-.71.22-.81-.38-.05-.35-.21-.52-.61-.56-.32-.03-.57.28-.92.05-.44-.28-.83-.12-1.16.25-.25.29-.53.59-.9.7-.83.24-1.6.49-2.04,1.36-.31.62-.85,1.14-1.13,1.77-.39.86-.33.88-1.27.89-.6,0-1.26-.17-1.75.29-.65.61-1.42.57-2.19.47-.91-.12-1.65-.49-1.93-1.48-.07-.25-.21-.5-.48-.64-.3-.16-.43-.13-.43.25,0,.36.15.77-.09,1.07-.28.37-.37.78-.46,1.2-.1.45-.09.87.16,1.32.32.56-.19,1.02-.4,1.49-.06.14-.12.24,0,.31.17.1.29-.01.33-.18.05-.2-.05-.48.32-.45.42.04.17.37.25.55.03.08.04.18.08.26.09.21.2.4.47.41.27,0,.35-.15.35-.39,0-.07.03-.14.12-.15.1,0,.16.02.2.13.21.46.47.91.64,1.38.2.58.55,1.19,0,1.77-.12.13-.01.25.04.29.83.68.92,1.61.87,2.58-.03.54.05,1.04.36,1.52.17.26.25.63-.33.68-.31.03-.62.06-.93.09-.25.02-.57.18-.39.43.43.57.35,1.2.42,1.84.03.29-.06.77.31.87.34.09.47-.35.7-.55.17-.15.32-.51.56-.32.18.14.25.49.15.77-.05.14-.13.27-.23.37-.24.23-.22.51-.14.77.1.34.25.67.42.99.12.24.38.55.14.72-.25.17-.51-.12-.68-.36-.09-.14-.17-.29-.29-.39-.2-.17-.25-.5-.61-.52,0,.36.03.7.06,1.05.07.84.39,1.72-.33,2.51-.23.25-.65.73-.34,1.13.32.42.31.69,0,1.05-.06.07-.1.24-.06.31.4.65.27,1.32.12,2-.01.06.06.13.08.2.21.97.9,1.74,1.09,2.72.03.19.21.24.35.32.8.49,1.24,1.46,1.01,2.35-.07.27-.1.53.12.62.27.11.62.15.85-.17.13-.18.25-.37.4-.53.19-.21.68-.21.81-.01.34.53.72.68,1.33.47.98-.34,1.6-1.1,2.22-1.87.19-.24.17-.45.06-.74-.19-.52-.6-1.09-.35-1.62.21-.46.03-.77-.11-1.11-.12-.3-.49-.66-.17-.86.39-.24.58.31.85.53.02.02.02.07.04.1.31.61.52.67,1.16.35q.91-.45,1.56.4c.09.12.19.23.28.33.32.34.72.57,1.17.64.31.05.55.11.77.35.23.26.47.25.62-.1.27-.61.61-1.19.68-1.88.09-.92.18-1.84.63-2.7.13-.24.08-.65-.03-.92-.07-.18-.16-.28-.07-.47.41-.8.38-1.71.54-2.56.21-1.11.17-2.27.38-3.38.17-.91.35-1.86.98-2.61.2-.24.12-.42-.07-.63-.47-.49-.93-1-1.4-1.5-.33-.35-.42-.72-.25-1.19.13-.38.4-.61.68-.84.43-.37.76-.79,1.08-1.26.31-.45.22-1,.53-1.44.39-.58.41-1.18-.14-1.73-.17-.17-.21-.43-.18-.67ZM41.01,65.07c-.35.04-.52.33-.36.66.17.36.08.52-.33.47-.15-.02-.3-.02-.58-.03-.61-.2-1.12.31-1.65.66-.25.17-.54.51-.32.9.15.28.42.42.75.33.49-.13,1.01-.23,1.45-.46.41-.22.65-.31.88.2.17.38.6.38.87.24.31-.16-.05-.43-.07-.65,0-.05-.03-.12-.06-.15-.31-.3-.15-.42.16-.58.36-.18.71-.46.47-.9-.24-.45-.64-.74-1.21-.68ZM16.9,123.49c.11-.18-.14-.64-.34-.62-.33.19-.55.53-.84.79-.02.02.02.15.07.19.54.46.66,1.05.58,1.72-.02.16.06.23.2.28.15.05.25-.02.33-.11.19-.21.24-1.66.03-1.86-.17-.17-.12-.24-.02-.39ZM16.05,91.79c-.4-.1-.42.34-.56.56-.21.32-.52.62-.46,1.08.05.32.28.49.49.66.08.06.34.09.38-.08.12-.49.59-.87.46-1.39,0-.35.08-.73-.32-.82ZM46.55,71.63c-.5,0-.83.3-.82.75.01.32.52.69.97.7.45,0,.7-.24.7-.71,0-.51-.27-.75-.85-.74ZM14.65,121.7c-.18.02-.63-.13-.62.47.01.45.51,1.01.91.98.64-.05.46-.58.52-.95.09-.55-.3-.52-.82-.49ZM95.83,132.19c.14.41.21.89.59,1.19.11.09.29.16.33.04.12-.36.27-.75.22-1.1-.03-.26-.24-.59-.59-.7-.27.12-.66.26-.55.57ZM38.01,68.66c-.17-.06-.78.68-.72.91.12.44.52.35.77.39.33,0,.65-.01.54-.34-.11-.35-.17-.8-.59-.96ZM30.48,90.99c.39-.09.35-.47.44-.73.07-.2-.61-.84-.81-.79-.25.07-.32.28-.3.42.08.68.37,1.17.67,1.1ZM39.75,72.38c-.22-.19-.45-.37-.67-.56-.11-.09-.28-.14-.31.01-.06.26-.13.57.04.8.15.21.3.48.65.44.2.04.34-.07.45-.23.13-.21-.01-.34-.15-.46ZM34.36,63.73c-.11,0-.24-.02-.33.03-.24.14-.49.31-.42.64.08.34.38.24.6.22.18-.01.35-.11.52-.15.43-.11.38-.29.12-.55-.15-.14-.3-.2-.49-.19ZM94.26,130.64c-.1.23.05.41.25.54.49.31.95.22,1.45-.36-.49.06-.81-.2-1.17-.3-.2-.06-.43-.11-.53.12ZM97.76,135.51c.36-.18-.01-.57-.07-.86-.04-.21-.19-.35-.44-.39-.35.16-.3.43-.12.66.19.23.33.74.63.59Z"/>
        </g>
      </g>
    </g>
  </g>
</svg>