<?xml version="1.0" encoding="UTF-8"?>
<svg id="Layer_2" data-name="Layer 2" xmlns="http://www.w3.org/2000/svg" viewBox="0 0 137 177.22">
  <defs>
    <style>
      .cls-1 {
        fill: #f74e25;
        stroke-width: 0px;
      }
    </style>
  </defs>
  <g id="desktop">
    <g>
      <path class="cls-1" d="M90.86,45.62s2.64-2.19,1.13-3.32c-1.51-1.13-3.77-2.64-3.77-2.64,0,0-.45-4.6,1.51-5.88,1.96-1.28,5.13-1.88,3.77-4.3-1.36-2.41-1.28-3.39,1.43-3.24s2.64,1.81,5.81-.08c3.17-1.88-.53-4.9-.53-4.9,0,0,3.85-2.26,1.28-5.88,0,0,1.28-2.56.53-4.6,0,0,1.66-1.21.6-2.26-1.06-1.06-5.73-5.73-1.43-6.26,0,0-.3-2.04.9-2.26s10.33,11.69,14.4,12.06c4.07.38,1.58,2.41,8.75,2.64,7.16.23,2.34-3.02,6.71-5.13,0,0,1.28,1.43-.75,3.85-2.04,2.41,2.71,9.42,5.81,7.09,0,0-1.88,1.73-1.73,2.64.15.9-2.71.15-4,2.49-1.28,2.34-1.88-2.26-2.49-.23-.6,2.04,1.81,1.51.6,1.96-1.21.45-4.07-2.04-5.35-.15s-4.9,3.69-5.2,7.01c-.3,3.32.45,5.58-.38,5.5-.83-.08-2.04-1.13-4.45-1.28-2.41-.15-4.22-5.13-8.67-5.05-4.45.08-6.1,3.62-6.1,3.62,0,0-1.06-2.18-3.18-2.26-2.11-.08-3.85.83-3.24,3.17.6,2.34,5.13,1.28,5.05,1.96-.08.68-1.43,1.06,2.79,2.49,0,0,1.81.08-1.28,2.26-3.09,2.19-1.88-2.64-4.22-.15s1.81,1.81-1.43,4.6c0,0-3.69-.3-2.87-3.47Z"/>
      <path class="cls-1" d="M95.61,51.27h-.75s-1.21.6-.3,3.62c.9,3.02-3.92,2.41-3.17,4.22.75,1.81,2.11,1.96,2.11,3.77s-2.87,3.92-1.96,5.13c.9,1.21,1.36,1.51,2.11-1.36,0,0-.3,2.11,1.06,3.77,0,0,1.06,3.17-.75,5.73,0,0,.45,2.87-1.51,4.98,0,0,.3,1.36-.6,2.87,0,0-.15,4.22-1.66,5.13-1.51.9-3.92,3.32-4.83,6.94-.9,3.62-3.02,3.77-4.98,5.43-1.96,1.66-4.07,1.66-4.07,1.66l-1.36,1.21s.3,2.26-1.81,1.51c-2.11-.75-.6-2.71-.6-2.71,0,0-2.56-.9-.9-1.81s3.17-1.81,2.56-3.92c-.6-2.11-1.21,1.51-4.83,1.81-3.62.3,2.11,4.98-3.02,11.31-5.13,6.33-3.62,5.88-2.56,6.94,1.06,1.06.9,3.62-1.66,3.02,0,0-.45,1.81-1.81,1.81s-1.06-.9-1.06-.9c0,0-1.36.15-1.51.9,0,0-1.06,1.36-.75-2.41l-.75-.9s-1.51,2.11-3.62,2.26-2.87,0-2.87,0c0,0-2.41,1.81-3.62,1.81s-5.28.6-5.28.6l-1.36.9-1.66-.3-.45-1.21h-1.36l-3.02,1.96s-6.79,8.6-8.14,9.35c-1.36.75-2.71,1.21-2.71,1.21l-1.21,2.11-3.32.6-1.21,3.47,1.51,1.06.9-.6.75,1.51,1.21-.15,1.66-1.51s2.56-1.36,4.22.9l1.66,1.36.6-2.71s.15-3.92,1.66-3.77c1.51.15,1.81,1.81,1.81,1.81l1.81-.6,2.87-1.66s1.06-1.66,3.47-.75c0,0,.6-1.66,2.41-1.51,1.81.15,2.41.6,2.41.6,0,0,1.96-4.52,4.83-4.22,2.87.3,6.33.9,6.33.9l2.87-.15s1.51,2.11-2.11,4.37c0,0,0,2.71-.3,4.52,0,0,1.36.45,2.11,1.81s4.37,3.02,4.98,2.41c.6-.6,1.96-1.36,1.96-1.36,0,0-.15-3.02.75-3.77s1.81-1.66,1.81-1.66c0,0-.45-2.41,2.26-2.71,2.71-.3,4.22-1.66,3.47-2.41-.75-.75-4.52-2.87-4.52-2.87,0,0-.75-3.17,2.87-3.92l.15,2.26,1.51,1.21s5.28-3.17,1.36.9c0,0,3.47-1.21,10.1-.9,0,0,1.06-.3,1.06-1.66s.45-.9,1.06-2.26c.6-1.36.45-2.87,2.41-2.71s.9,2.71.9,4.52,2.11,1.66,1.96-.3,1.81-.45,1.81-2.41-1.51-5.28.75-5.43,2.26,1.36,3.32,1.21c1.06-.15,1.36-1.06.3-2.56-1.06-1.51-1.36-2.87.45-3.47,1.81-.6,4.37-.6,1.36,2.56,0,0-1.06,2.41.3,6.48,0,0,1.51,1.21,1.81-1.66,0,0,2.71-1.51,2.71-2.71s-1.21-4.22.75-5.13c1.96-.9,3.92-1.36,1.66-2.87s-3.02-5.13-2.56-8.14c.45-3.02,4.22-4.83,2.26-9.95-1.96-5.13-3.47-8.9-.9-10.25,2.56-1.36,3.62.15,3.62.15l.6-.45s-2.71-2.87-1.81-4.98c.9-2.11,3.32-5.13,3.32-6.64s.6-5.13-2.41-7.99c-3.02-2.87-5.58-6.48-5.58-8.6s-.3-6.64-1.51-6.79c-1.21-.15-1.36.45-3.02-.75,0,0-1.36-.3-1.36,1.21s-2.11,4.37,1.51,2.71c0,0,1.66-2.11,2.11-.6.45,1.51.6,4.22-.9,3.77-1.51-.45-.6-1.36-2.41.6-1.81,1.96-.75-3.62-2.26-4.07-1.51-.45-1.51.3-1.51.3Z"/>
      <path class="cls-1" d="M81.05,90s.79-.36,1.03-1.5c.24-1.15.71-1.82,1.38-1.54.67.28-.83,2.57,0,2.93.83.36,1.5.24.99,1.15-.51.91-1.98,2.97-2.41,2.18-.44-.79.59-1.86-.16-2.14-.75-.28-1.46-.59-.83-1.07Z"/>
      <path class="cls-1" d="M50.67,138.87s1.73-.53,1.81.3c.08.83-.08,1.58,1.13,2.04,1.21.45.53,2.19-1.36,2.79-1.88.6-2.87,3.77-3.39,5.35s-2.04-1.51-3.62-1.88c-1.58-.38-2.34-.45-3.47.98-1.13,1.43-2.04,0-2.26,2.56s-2.34,2.04-2.11,3.62c.23,1.58,1.13,1.81-.83,1.81s-.83,1.88-2.56-.08c-1.73-1.96-.75-2.26-2.49-.45-1.73,1.81.15-1.28.75-2.34.6-1.06,1.43-2.04.15-2.94-1.28-.9-4.22-.3-4.3-.9-.08-.6,4.07-.98,5.43-3.85s1.21-5.35,3.17-4.45.68,1.88,1.96,1.43c1.28-.45-.08-.98,1.66-.68,1.73.3,2.11-.38,2.56-1.66.45-1.28.15-1.51,2.79-2.79,2.64-1.28,1.06.75,2.34.15,1.28-.6.9.98,2.64.98Z"/>
      <path class="cls-1" d="M12.75,144.17s1.43-1.43,1.96.08c.53,1.51,1.13,3.54,3.39,3.39s1.13-1.81,2.94-.75c1.81,1.06-1.06,3.47,0,3.92,1.06.45,1.13-.3,2.11,1.13.98,1.43,2.34,1.51,1.96,3.09-.38,1.58-.45,1.28-1.43,2.79s-1.96,1.73-1.81,3.09c.15,1.36.38,1.36-.53,3.24s-.75,4.22-.53,6.18-.3,3.39-1.36,3.09c-1.06-.3-.9-1.96-1.81-.83-.9,1.13.45,2.04-1.13,3.17s-2.34,1.88-3.09,1.21c-.75-.68,1.96-2.71.9-3.62-1.06-.9-1.81-1.51-1.43-2.56.38-1.06,2.34.15.9-.9,0,0-3.32,1.43-2.34,2.79s2.34,1.73,1.28,3.24c-1.06,1.51-1.21-.6-3.77-.45-2.56.15-.38-1.51.38-2.87s-.15-1.81-.83-2.34c-.68-.53-1.51-2.56.15-4.83,1.66-2.26,3.69-3.62,2.26-5.73l-.6-.23s1.58-.83.98-2.26c-.6-1.43-1.21-1.96-2.34-3.85s-1.51-.38-1.73,1.06c-.23,1.43-.83,3.02,1.43,2.26s1.58,1.36.68,1.88c-.9.53-1.36,1.28-1.96,1.06-.6-.23.53-2.04-.53-2.04s-2.19,3.02-3.32,2.34c-1.13-.68,1.06-1.28-1.43-3.09s.08-3.32,1.66-.45c1.58,2.87,2.26-.23.3-1.21s-2.19-2.56-3.62-3.17c-1.43-.6.75-1.96,3.09-.53,2.34,1.43-1.66-1.81.45-2.19,2.11-.38,1.66.53,2.11-.38s.08-1.88,1.96-.83c1.88,1.06.75-.6,1.43-1.88.68-1.28,1.28-2.79,3.24-2.04Z"/>
    </g>
  </g>
</svg>