<?xml version="1.0" encoding="UTF-8"?>
<svg id="Layer_2" data-name="Layer 2" xmlns="http://www.w3.org/2000/svg" viewBox="0 0 47.49 44.62">
  <defs>
    <style>
      .cls-1 {
        fill: #1a1716;
      }

      .cls-1, .cls-2, .cls-3 {
        stroke-width: 0px;
      }

      .cls-2 {
        fill: none;
      }

      .cls-3 {
        fill: #f9f9f9;
      }
    </style>
  </defs>
  <g id="desktop">
    <g>
      <path class="cls-2" d="M43.9,22.31c0-6.55-3.38-12.31-8.85-15.62.79,1.58,1.22,3.53,1.22,5.68,0,6.91-4.82,10.36-9.35,10.36-1.09,0-2.17-.21-3.17-.61v18.89c11.73,0,20.15-8.35,20.15-18.71Z"/>
      <path class="cls-2" d="M3.6,22.31c0,10.36,8.42,18.71,20.15,18.71v-18.89c-2.73-1.1-4.82-3.72-4.82-7.88h3.6c0,1.52.48,2.67,1.22,3.48V3.6C12.02,3.6,3.6,12.02,3.6,22.31Z"/>
      <path class="cls-2" d="M26.99,19.14c2.73,0,5.68-2.3,5.68-6.76,0-5.76-4.39-8.78-8.92-8.78v14.14c.84.93,2.01,1.41,3.24,1.41Z"/>
      <path class="cls-3" d="M18.93,14.25c0,4.17,2.09,6.78,4.82,7.88v-4.4c-.74-.81-1.22-1.97-1.22-3.48h-3.6Z"/>
      <path class="cls-1" d="M23.75,0v3.6c4.53,0,8.92,3.02,8.92,8.78,0,4.46-2.95,6.76-5.68,6.76-1.22,0-2.4-.48-3.24-1.41v4.4c.99.4,2.07.61,3.17.61,4.53,0,9.35-3.45,9.35-10.36,0-2.16-.43-4.1-1.22-5.68,5.47,3.31,8.85,9.07,8.85,15.62,0,10.36-8.42,18.71-20.15,18.71v3.6c13.82,0,23.75-9.93,23.75-22.31S37.56,0,23.75,0Z"/>
      <path class="cls-3" d="M3.6,22.31C3.6,12.02,12.02,3.6,23.75,3.6V0C9.93,0,0,9.93,0,22.31s9.93,22.31,23.75,22.31v-3.6c-11.73,0-20.15-8.35-20.15-18.71Z"/>
    </g>
  </g>
</svg>