<svg xmlns="http://www.w3.org/2000/svg" viewBox="0 0 175.94 175.94" xmlns:v="https://vecta.io/nano"><path d="M175.66 66.18c-.31-.61-.86-1.07-1.51-1.28l-40.12-12.87a2.59 2.59 0 0 0-3.25 1.67l-17.58 54.79c-2.96-8.65-5.59-17.52-7.87-26.47 2.27-.83 3.9-3 3.9-5.55v-6.31c0-3.26-2.65-5.91-5.91-5.91h-2c-.79-4-1.51-8-2.13-11.93-.22-1.41-1.55-2.37-2.95-2.15-1.41.22-2.37 1.55-2.15 2.95.58 3.66 1.24 7.39 1.96 11.12H79.87c3.02-15.55 4.09-26.85 4.44-31.61h7.3c.16 2.13.46 5.57 1.02 10.14a2.58 2.58 0 1 0 5.13-.63 212.27 212.27 0 0 1-.97-9.6c2.81-.46 4.96-2.89 4.96-5.83V20.4c0-2.99-2.24-5.47-5.13-5.85V8.67c0-4.78-3.88-8.68-8.66-8.68S79.3 3.88 79.3 8.67v5.88c-2.89.38-5.13 2.86-5.13 5.85v6.31c0 2.94 2.15 5.37 4.96 5.83-.38 4.89-1.5 16.34-4.53 31.69h-2c-3.26 0-5.91 2.65-5.91 5.91v6.31c0 2.55 1.63 4.73 3.9 5.55-2.27 8.95-4.9 17.82-7.87 26.47L45.14 53.68a2.59 2.59 0 0 0-3.25-1.67L1.8 64.91c-1.33.4-2.12 1.94-1.67 3.25l9.78 30.48c.43 1.37 1.93 2.1 3.25 1.67l37.66-12.08 8.26 25.76h-4.41c-3.26 0-5.91 2.65-5.91 5.91v6.31c0 2.9 2.11 5.32 4.87 5.81-1.64 3.64-3.63 7.69-5.95 12.11-.66 1.26-.18 2.82 1.09 3.49s2.82.18 3.49-1.09c2.8-5.34 5.15-10.18 6.98-14.42h57.48c4.19 9.66 10.89 22.21 19.95 37.35.23.38.1.71.01.87s-.31.44-.75.44h-16a.86.86 0 0 1-.78-.5l-5.66-12.37c-4.55-9.95-14.57-16.38-25.51-16.38s-20.96 6.43-25.51 16.38l-5.66 12.37c-.14.31-.45.5-.78.5h-16c-.44 0-.66-.27-.75-.44a.85.85 0 0 1 .01-.87l8-13.77a2.58 2.58 0 0 0-.99-3.51 2.58 2.58 0 0 0-3.51.99c-2.4 4.28-5.06 8.87-7.92 13.64-1.13 1.89-1.16 4.16-.07 6.07 1.08 1.91 3.04 3.05 5.24 3.05h16a6.04 6.04 0 0 0 5.48-3.52l5.66-12.37c3.72-8.12 11.89-13.37 20.82-13.37s17.1 5.25 20.82 13.37l5.66 12.37a6.04 6.04 0 0 0 5.48 3.52h16c2.2 0 4.16-1.14 5.24-3.05a5.97 5.97 0 0 0-.07-6.07c-8.35-13.94-14.65-25.62-18.78-34.79 2.76-.49 4.87-2.91 4.87-5.81v-6.31c0-3.26-2.65-5.91-5.91-5.91h-4.41l8.26-25.76 37.66 12.08c1.32.43 2.82-.3 3.25-1.67l9.78-30.48c.21-.65.15-1.36-.16-1.97h0zM80.1 27.47c-.41 0-.75-.34-.75-.75v-6.31c0-.41.34-.75.75-.75h15.75c.41 0 .75.34.75.75v6.31c0 .41-.34.75-.75.75H80.1zm4.38-18.79c0-1.94 1.57-3.51 3.49-3.51s3.49 1.58 3.49 3.51v5.82h-6.98V8.68zm64.06 81.63l-8.46-2.71 4.1-12.78 4.1-12.78 8.46 2.71-4.1 12.78-4.1 12.78zM71.87 70.15c0-.41.34-.75.75-.75h30.71c.41 0 .75.34.75.75v6.31c0 .41-.34.75-.75.75H72.62c-.41 0-.75-.34-.75-.75v-6.31zm3.98 12.23h24.24a344.45 344.45 0 0 0 9.55 31.61h-11.5l-4.62-12.65c-.86-2.36-3.04-3.88-5.55-3.88s-4.68 1.52-5.55 3.88l-4.62 12.65H66.3a344.45 344.45 0 0 0 9.55-31.61h0zm16.79 31.61H83.3l3.97-10.87c.15-.41.46-.49.69-.49s.55.08.69.49l3.98 10.87zM20.17 84.64l2.33 7.25-8.46 2.71-8.2-25.57 8.46-2.71 2.72 8.47a2.58 2.58 0 0 0 4.92-1.58l-2.72-8.47 8.46-2.71 4.1 12.78 4.1 12.78-8.46 2.71-2.33-7.25a2.58 2.58 0 0 0-4.92 1.58h0zm20.61 1.38l-4.1-12.78-4.1-12.78 8.46-2.71 8.2 25.57-8.46 2.71zm81.24 33.88v6.31c0 .41-.34.75-.75.75h-66.6c-.41 0-.75-.34-.75-.75v-6.31c0-.41.34-.75.75-.75h66.6c.41 0 .75.34.75.75h0zm12.89-62.16l8.46 2.71-4.1 12.78-4.1 12.78-8.46-2.71 8.2-25.57zm27 36.86l-8.46-2.71 4.1-12.78 4.1-12.78 8.46 2.71-8.2 25.57z" fill="#1a1716"/></svg>