<svg xmlns="http://www.w3.org/2000/svg" viewBox="0 0 179.75 179.77" xmlns:v="https://vecta.io/nano"><path d="M176.76 173.77h-43.44l3.39-19.25c4.88-.8 8.18-5.41 7.38-10.29a8.95 8.95 0 0 0-4.45-6.35l4.35-24.66c4.88-.78 8.2-5.36 7.43-10.24a8.94 8.94 0 0 0-4.49-6.41l1.08-6.16c.36-1.62-.67-3.21-2.28-3.57-1.62-.36-3.21.67-3.57 2.28-.02.08-.03.17-.04.25l-.98 5.61-5.9-1.04 1.56-8.85a8.99 8.99 0 0 0-7.04-10.58 8.99 8.99 0 0 0-10.58 7.04 5.85 5.85 0 0 0-.07.41l-1.56 8.85-5.9-1.04 1.56-8.85c.86-4.89-2.4-9.55-7.29-10.41A8.99 8.99 0 0 0 99.19 72c-1.96 1.36-3.29 3.45-3.7 5.8l-1.56 8.85-5.9-1.04 1.56-8.85c.93-4.88-2.26-9.58-7.14-10.52-4.88-.93-9.58 2.26-10.52 7.14-.02.09-.03.17-.05.26-.32 1.62.73 3.2 2.35 3.52s3.2-.73 3.52-2.35c0-.04.02-.09.02-.13.29-1.63 1.84-2.72 3.47-2.43s2.72 1.84 2.43 3.47l-1.56 8.85-17.69-3.12 4.16-23.6 76.71 13.53-1.06 5.99c-.29 1.63.8 3.18 2.43 3.47.17.03.35.04.52.04 1.45 0 2.69-1.05 2.94-2.47l1.15-6.5c4.89-.82 8.2-5.46 7.37-10.35-.63-3.75-3.55-6.69-7.29-7.36l-7.38-1.3 1.42-8.06c1.73-.24 3.39-.85 4.86-1.8 3.28 2.45 7.77 2.45 11.05 0 1.92 1.25 4.17 1.91 6.46 1.91 6.62 0 11.98-5.37 11.98-11.98a11.99 11.99 0 0 0-11.98-11.98 11.87 11.87 0 0 0-1.58.11 12.13 12.13 0 0 0-11.86-5.95c-.08-.12-.13-.26-.22-.38-1.36-1.96-3.45-3.29-5.8-3.7l-10.87-1.91c-1.64-.25-3.17.87-3.42 2.5-.24 1.58.8 3.08 2.37 3.39l10.87 1.92c1.63.29 2.72 1.84 2.43 3.47s-1.84 2.72-3.47 2.43L84.25 11.94c-1.64-.25-2.76-1.78-2.5-3.42.25-1.64 1.78-2.76 3.42-2.5.04 0 .09.01.13.02l39.29 6.93c1.63.29 3.18-.8 3.47-2.43s-.8-3.18-2.43-3.47L86.35.15c-4.87-.9-9.54 2.32-10.44 7.18a8.96 8.96 0 0 0 4.45 9.46l-2.8 15.88c-1.26-1.11-2.81-1.84-4.46-2.1-2.64-4.63-8-6.97-13.18-5.77a14.91 14.91 0 0 0-20.76-3.62c-1.69 1.19-3.11 2.72-4.18 4.48-1.63-.8-3.42-1.21-5.23-1.2-4.27.02-8.2 2.3-10.34 5.99h-1.65c-8.27 0-14.97 6.71-14.98 14.98 0 1.65 1.34 3 3 3h18.19c1.65 0 3-1.34 3-3s-1.34-3-3-3H9.29c1.27-3.59 4.67-5.99 8.48-5.99h3.54c1.27 0 2.4-.8 2.83-1.99 1.07-3.1 4.46-4.74 7.56-3.67.9.31 1.72.84 2.37 1.53a3.01 3.01 0 0 0 4.24.09 2.92 2.92 0 0 0 .81-1.36c1.29-4.76 6.2-7.58 10.96-6.29 2.59.7 4.72 2.53 5.82 4.97a2.99 2.99 0 0 0 3.97 1.48c.05-.02.09-.04.14-.07 2.91-1.51 6.49-.37 8 2.54.13.26.25.53.34.8.57 1.32 1.93 2.12 3.36 1.96 1.65 0 3 1.34 3 3 0 .41-.1.82-.28 1.2l-5.66-1a8.95 8.95 0 0 0-7.85 2.46c-1.07-.33-2.03-.96-2.76-1.82-.53-.62-1.28-1.01-2.1-1.06s-1.62.23-2.22.79c-1.65 1.55-3.83 2.42-6.09 2.43H35.96c-1.65 0-3 1.34-3 3s1.34 3 3 3h11.76c2.82 0 5.58-.81 7.96-2.32.81.58 1.69 1.06 2.61 1.41-.38 3.55 1.38 6.99 4.49 8.75L59.4 75.44c-2.24-2.26-5.28-3.54-8.47-3.54a11.87 11.87 0 0 0-1.58.11c-3.21-5.75-10.48-7.8-16.22-4.59-1.92 1.08-3.51 2.66-4.59 4.59-4.79-.61-9.49 1.71-11.92 5.88h-1.64C6.71 77.92 0 84.62 0 92.89c0 1.65 1.34 2.99 3 2.99h23.97a11.86 11.86 0 0 0 6.46-1.92c3.28 2.45 7.77 2.45 11.05 0a11.86 11.86 0 0 0 6.46 1.92c.75 0 1.49-.08 2.22-.22a8.79 8.79 0 0 0 2.33 1.92l-4.35 24.69a8.93 8.93 0 0 0-7.39 10.24 8.92 8.92 0 0 0 4.45 6.36l-1.57 8.92c-.29 1.63.8 3.18 2.43 3.47.17.03.35.04.52.04 1.45 0 2.69-1.05 2.94-2.48l1.47-8.39 31.47 5.55c1.63.29 3.18-.8 3.47-2.43s-.8-3.18-2.43-3.47l-34.41-6.05c-1.64-.24-2.77-1.76-2.53-3.4s1.76-2.77 3.4-2.53c.06 0 .11.02.17.03l82.61 14.57c1.63.29 2.72 1.84 2.43 3.47s-1.84 2.72-3.47 2.43h0l-36.4-6.42c-1.63-.29-3.18.8-3.47 2.43s.8 3.18 2.43 3.47h0l33.46 5.9-3.48 19.77h-9.13l.64-3.67a13.33 13.33 0 0 0 .19-2.1c.03-6.62-5.31-12.01-11.93-12.04-5.87-.03-10.89 4.2-11.87 9.99l-1.39 7.82H81.59l1.75-9.89a12.24 12.24 0 0 0 .19-2.1c.04-6.62-5.3-12.01-11.92-12.05-5.88-.03-10.91 4.21-11.89 10l-2.47 14.03h-9.13l2.32-13.13c.33-1.62-.71-3.2-2.33-3.54-1.62-.33-3.2.71-3.54 2.33l-.03.17-2.5 14.17H3c-1.65 0-3 1.34-3 3s1.34 3 3 3h173.76c1.65 0 3-1.34 3-3s-1.34-3-3-3h0zm-54.72-39.56l-5.9-1.04 1.56-8.85c.29-1.63 1.84-2.72 3.47-2.43s2.72 1.84 2.43 3.47l-1.56 8.85zm.17-18.22c-4.89-.86-9.55 2.4-10.41 7.29l-1.55 8.85-5.9-1.04 1.56-8.85c.93-4.88-2.26-9.58-7.14-10.52-4.88-.93-9.58 2.26-10.52 7.14-.02.09-.03.17-.05.26l-1.56 8.85-5.9-1.04 1.56-8.85c.86-4.89-2.4-9.55-7.29-10.41a9 9 0 0 0-6.72 1.49 8.87 8.87 0 0 0-3.69 5.8l-1.56 8.85-5.9-1.04 4.15-23.59 76.72 13.51-4.16 23.6-5.9-1.04 1.56-8.85c.85-4.89-2.41-9.54-7.29-10.41h0zm-23.78 14.06l-5.9-1.04 1.56-8.85a2.99 2.99 0 0 1 3.52-2.35c1.57.31 2.62 1.81 2.37 3.39l-1.56 8.85zm-23.6-4.16l-5.9-1.04 1.56-8.85c.29-1.63 1.84-2.72 3.47-2.43s2.72 1.84 2.43 3.47h0l-1.56 8.85zm69.4-19.08c-.65.46-1.46.64-2.24.5L59.38 92.74c-1.63-.29-2.72-1.84-2.43-3.47.25-1.43 1.49-2.48 2.95-2.48.18 0 .35.02.53.04l82.61 14.57c1.63.29 2.71 1.85 2.41 3.48-.14.77-.58 1.46-1.22 1.91h0zm-19.25-23.8c.29-1.63 1.85-2.71 3.48-2.41.77.14 1.46.58 1.91 1.22a3.02 3.02 0 0 1 .5 2.24l-1.56 8.85-5.9-1.04 1.57-8.85zm-23.6-4.16c.29-1.63 1.84-2.72 3.47-2.43s2.72 1.84 2.43 3.47l-1.56 8.85-5.9-1.04 1.56-8.85zm29.32-28.29l1.56-8.85c.87-4.89-2.39-9.55-7.28-10.42s-9.55 2.39-10.42 7.28v.02L113 47.44l-5.9-1.04 1.56-8.85c.93-4.88-2.26-9.58-7.14-10.52-4.88-.93-9.58 2.26-10.52 7.14-.02.09-.03.17-.05.26l-1.56 8.85-7.38-1.3 4.16-23.6 56.06 9.89-4.16 23.6-7.38-1.3zm-5.9-1.04l-5.9-1.04 1.56-8.85c.29-1.63 1.84-2.72 3.47-2.43s2.72 1.84 2.43 3.47l-1.56 8.85zm-23.6-4.16l-5.9-1.04 1.56-8.85a2.99 2.99 0 0 1 3.52-2.35c1.57.31 2.62 1.81 2.37 3.39l-1.56 8.85zm50.71-18.08a8.87 8.87 0 0 0 3.69-5.8c.03-.15.02-.3.04-.46 2.74-.06 5.17 1.75 5.9 4.39.43 1.6 2.08 2.54 3.67 2.11.12-.03.23-.07.34-.12 3.07-1.24 6.56.25 7.8 3.32s-.25 6.56-3.32 7.8c-.72.29-1.49.44-2.27.43-1.73 0-3.38-.77-4.49-2.1-1.08-1.25-2.98-1.38-4.23-.3-.27.23-.49.51-.66.82-.86 1.44-2.73 1.91-4.16 1.04-.43-.26-.79-.62-1.04-1.04-.47-.86-1.34-1.43-2.31-1.53s-1.93.28-2.58 1.02a6.2 6.2 0 0 1-1.73 1.37l1.67-9.45a9 9 0 0 0 3.68-1.5zM67.18 45.49a4.55 4.55 0 0 1 .52.04l82.61 14.57c1.63.29 2.72 1.84 2.43 3.47s-1.84 2.72-3.47 2.43L66.66 51.43c-1.63-.29-2.72-1.84-2.43-3.47.25-1.43 1.5-2.48 2.95-2.48h0zm-23.32 41.3a3.01 3.01 0 0 0-2.31 1.53c-.86 1.44-2.73 1.91-4.16 1.04-.43-.26-.79-.62-1.04-1.04-.47-.86-1.34-1.43-2.31-1.53a3.05 3.05 0 0 0-2.58 1.02c-1.12 1.32-2.76 2.09-4.49 2.09H6.5c1.27-3.59 4.67-5.99 8.48-5.99h3.55a2.99 2.99 0 0 0 2.82-1.99c1.09-3.1 4.49-4.73 7.59-3.64l.24.09a3 3 0 0 0 3.9-1.65c.05-.11.08-.23.12-.34.83-3.18 4.07-5.08 7.25-4.25a5.94 5.94 0 0 1 4.25 4.25c.43 1.6 2.08 2.54 3.67 2.11.12-.03.23-.07.34-.12 2.99-1.18 6.38.23 7.65 3.18-.57.24-1.11.54-1.62.9a8.87 8.87 0 0 0-3.69 5.8c-.09.52-.13 1.06-.12 1.59-1.72 0-3.35-.73-4.49-2.02a3.05 3.05 0 0 0-2.57-1.02h0zm57.18 80.23a5.98 5.98 0 0 1 6.86-4.97c2.93.47 5.08 3.01 5.05 5.98 0 .36-.04.72-.1 1.07l-.82 4.68H99.85l1.2-6.76zm-35.41-6.23a5.93 5.93 0 0 1 2.48-3.89c1.3-.92 2.91-1.28 4.47-.99 2.85.53 4.92 3 4.96 5.89 0 .36-.04.71-.1 1.07l-1.94 10.92H63.34l2.29-12.99z" fill="#1a1716"/></svg>