<svg xmlns="http://www.w3.org/2000/svg" viewBox="0 0 218.1 218.1" fill="#1a1716" xmlns:v="https://vecta.io/nano"><path d="M109.05 133.67c7.76 0 14.07-6.31 14.07-14.07s-6.31-14.07-14.07-14.07-14.07 6.31-14.07 14.07 6.31 14.07 14.07 14.07zm0-21.1c3.88 0 7.04 3.16 7.04 7.04s-3.16 7.04-7.04 7.04-7.04-3.16-7.04-7.04 3.16-7.04 7.04-7.04z"/><path d="M207.54 211.06V45.73h3.52v-7.04h-10.55V10.55h-7.04v14.07h-.43c-1.73-7.07-8.58-12.6-17.16-13.81V0h-7.04v10.82c-8.59 1.21-15.43 6.73-17.16 13.81h-.43V10.56h-7.04V38.7h-10.55v7.04h3.52v24.62H80.89V45.74h3.52V38.7H73.86V10.55h-7.04v14.07h-.43c-1.73-7.07-8.58-12.6-17.16-13.81V0h-7.04v10.82c-8.59 1.21-15.43 6.73-17.16 13.81h-.43V10.56h-7.04V38.7H7.04v7.04h3.52v165.33H0v7.04h218.1v-7.04h-10.55zM172.37 17.59c6.11 0 11.26 2.95 13.21 7.04h-26.41c1.94-4.08 7.1-7.04 13.21-7.04zm-21.11 14.07h42.21v7.04h-42.21v-7.04zM45.73 17.59c6.11 0 11.26 2.95 13.21 7.04H32.53c1.95-4.08 7.1-7.04 13.21-7.04zM24.62 31.66h42.21v7.04H24.62v-7.04zm0 179.4h-7.04v-7.04h7.04v7.04zm0-14.07h-7.04v-31.66h7.04v31.66zm0-38.69h-7.04v-24.62h7.04v24.62zm28.15 52.76H31.66v-7.04h21.11v7.04zm0-52.76H31.66v-24.62h21.11v24.62zm0 7.03v31.66H31.66v-31.66h21.11zm14.07 45.73H59.8v-7.04h7.04v7.04zm0-14.07H59.8v-31.66h7.04v31.66zm0-38.69H59.8v-24.62h7.04v24.62zm0-31.66H59.8V91.46h-7.04v35.18H31.65V91.46h-7.04v35.18h-7.04V45.73h56.28v24.62h-7.04v56.28zm14.07 84.42h-7.04v-56.28h7.04v56.28zm0-63.32h-7.04v-24.62h7.04v24.62zm35.17 63.32h-14.07v-21.11h14.07v21.11zm14.08 0h-7.04v-28.14H94.98v28.14h-7.04v-35.18h42.21v35.18zm-24.63-63.56v7.28h-3.52v-3.52h-7.04v17.59h-7.04v-14.07h0v-16.62c4.43 5.03 10.61 8.47 17.59 9.35zm-17.59-27.9c0-11.64 9.47-21.11 21.11-21.11s21.11 9.47 21.11 21.11-9.47 21.11-21.11 21.11-21.11-9.47-21.11-21.11zm28.14 42.21v7.04h-14.07v-7.04h14.07zm14.08-14.07v7.04h0v14.07h-7.04v-17.59h-7.04v3.52h-3.52v-7.28c6.98-.88 13.16-4.31 17.59-9.35v9.59h0zm-.01-56.28v9.59c-5.16-5.86-12.7-9.59-21.11-9.59s-15.95 3.73-21.11 9.59v-9.59h-7.04v24.62h-7.04V77.39h7.04v7.04h7.04v-7.04h7.04v7.04h7.04v-7.04h14.07v7.04h7.04v-7.04h7.04v7.04h7.04v-7.04h7.04v38.69h-7.04V91.46h-7.04zm14.08 119.6h-7.04v-56.28h7.04v56.28zm0-63.32h-7.04v-24.62h7.04v24.62zm14.07 63.32h-7.04v-7.04h7.04v7.04zm0-14.07h-7.04v-31.66h7.04v31.66zm0-38.69h-7.04v-24.62h7.04v24.62zm28.14 52.76h-21.11v-7.04h21.11v7.04zm0-14.07h-21.11v-31.66h21.11v31.66zm0-38.69h-21.11v-24.62h21.11v24.62zm14.07 52.76h-7.04v-7.04h7.04v7.04zm0-14.07h-7.04v-31.66h7.04v31.66zm0-38.69h-7.04v-24.62h7.04v24.62zm0-31.66h-7.04V91.46h-7.04v35.18h-21.11V91.46h-7.04v35.18h-7.04V70.36h-7.04V45.74h56.28v80.91zM38.69 98.5h7.04v7.04h-7.04zm133.68 0h7.04v7.04h-7.04zM38.69 186.44h7.04v7.04h-7.04zm133.68 0h7.04v7.04h-7.04zM38.69 172.37h7.04v7.04h-7.04zM189.96 66.84c0-7.76-6.31-14.07-14.07-14.07s-14.07 6.31-14.07 14.07v17.59h28.14V66.84zm-21.11 10.55V66.84c0-3.88 3.16-7.04 7.04-7.04s7.04 3.16 7.04 7.04v10.55h-14.07zM42.21 52.77c-7.76 0-14.07 6.31-14.07 14.07v17.59h28.14V66.84h0c0-7.76-6.31-14.07-14.07-14.07zm-7.03 24.62V66.84c0-3.88 3.16-7.04 7.04-7.04s7.04 3.16 7.04 7.04v10.55H35.19z"/></svg>