<?xml version="1.0" encoding="UTF-8"?>
<svg id="Layer_2" data-name="Layer 2" xmlns="http://www.w3.org/2000/svg" viewBox="0 0 193.73 167.23">
  <defs>
    <style>
      .cls-1 {
        fill: #f74e25;
        stroke-width: 0px;
      }
    </style>
  </defs>
  <g id="desktop">
    <g>
      <polygon class="cls-1" points="77.26 61.19 77.26 61.2 77.26 61.2 77.26 61.19"/>
      <path class="cls-1" d="M77.26,69.05s0,.03,0,.04c0,0,.02-.02.03-.03,0,0-.02,0-.03-.01Z"/>
      <path class="cls-1" d="M55,29.99l-.18.06-.12.07-.93.68-1.15-.27-1.24.08-1.25-.36-.31.1-.17.51-.2.76-.76.21-.44.1-.4.23-.77.37-.8-.35-.34-.19-.37.04-1.23-.06-.97-.72-.5-.34-.59.17-.37.12-.36-.06-1.36-.19-1.14.74-.62.3-.66-.02-.3-.4.14-.55.05-.17-.08-.13-.43-.17-.09-.42.37-.65.58-.49.31-.13.28-.19.14-.6-.53-.32-.51-.19-.13-.5-.21-.5-.45.04-2.27.6-2.33.18-.5.19-.4.34-.8.93-1.08.59-.81-.08v-.79s.13-.71.13-.71l-.07-.71-.08-.31.06-.26.86-1.06.95-.98.19-.08.2-.07.38-.21.12-.36-.3-.19-.39.08-.65.07-.38-.44.2-.58.59-.24.69-.32.42-.64-.55-.05-.51.13-.59-.07-.42-.39v-.65s.41-.45.41-.45l.47-.41.08-.58.11-.35.3-.24.25-.39-.18-.42-.33-.12-.25.28-.07.07-.06.03s-.9.08-.9.08c-1.51,2.06-1.82.4-1.61-1.14l.9-1.1.33-.18-.03-.35-.46-.35-.56.14-.33.35-.46-.11-.22-.49.3-.44.13-.25-.19-.22-.23-.3-.1-.36.14-.33-.14-.29-.49-.04-.46.25-.23.27-.3.06-.18-.35.07-.43.07-.31.15-.23.34-.52-.26-.55-.02-.29.17-.22.94-.57.88-.54-.21-.12-.21.04h-.29s-.19-.2-.19-.2v-.29s.2-.22.2-.22l.19-.13.18-.05,1.42-.08,1.33-.6-.17-.63.62-.27.76-.31.38-.77.32.76.57.48.8.07.81-.1,1.1-.15,1.01-.49.66-.24.32.88.62-.88.82.33.66-.2.55-.45-.09-.13-.14-.07-.25.04-.24.02-.43-.08-.32-.24.15-.29.26-.27-.25-.1-.27.07-.17.03-.14-.08-.06-.36.17-.26.14-.54.39-.3.42-.04.33-.22.81-.51.87-.41.87-.6.85-.7.82-.33.47.72.14.2.23-.05.44-.26.44-.26.39-.39.41-.08.51.4.11.7.03.27.12.35.38-.54.59-.27.6.22.44.42.27.2.3.17.7.51.4.72.47.88.99.16,2.31-.07,2.29.11,2.01.31,2.02.12,2.58-.07,2.58.11.57-.06.51-.31,1.03-.61s.89.79.9.8c1.68,1.49,5.2,1.36,7.5,2.25,5.15,1.98,11,2.06,16.2.22-.35.38-.51.93-.42,1.43.8-.98,2.14-1.48,3.38-1.26.59.1,1.05,1.1.46,1.09,1.87.31,3.7.88,5.42,1.69.63-1.76,3.14-1.84,4.86-1.11,3.45,1.46,5.21,2.11,8.71,1.04l.25-.29.17-.32.57-.35.54.34.39.46.33.47.62.7.9.21h.5s.39-.27.39-.27l.61-.42.75.07.42.53-.03.65-.11.96-.42.89-.15.52.33.43.43.03.2-.39.16-.2.16-.2.19-.23h.28s.24.22.24.22l-.02.34.04.78.72.3,1.56.38,1.5.57.71.07.69-.2.99-.06.51.84.25.53.4.44,1.59.81,1.72.2.85-.13.91.02,1.09.49.73.84.82.74,1.03-.31.81-.36.84-.32.45-.03.35.19.67.43.58-.53.17-.11.2.09.78.38.86-.12.59-.04h.6s.47-.11.47-.11v-.49s-.27-.89-.27-.89l.3-.76.95-.23,1.01.28,1.31.5,1.38.17.54.07.4.26.89.61,1.04-.15,1.05.12.66.76.39.99.06,1.11.14.84.62.69.69.06.61-.38,1.55-.43,1.52.41.63.04.5-.3.4-.21.36.05-.02.36-.36.22-.13.56.34.45.55.36.62-.27.39-.45.51-.38,1.8-.21,1.53.8,1.31.45h1.33s.22-.08.22-.08l.16-.2.95-1.2,1.38-.62,1.29-.46,1.37.52.45.1.55-.02.14,1.05,1.09.49.58.29.03.65-.46.65h-.77s-.54-.24-.54-.24l-.52.19-.17.63.3.61.49.73.61.65.54,1.71-.62,1.67-1.17,1.25-1.2,1.2-.46.35-.51.31-.73.4-.56.64-.32.39-.47.22-2.33,1-2.1,1.42-1.39,1.15-.92,1.57-.73.85-1.1.39-3.06.85-3.02.97-1.6.48-1.46.73-1.19.64-1.26.37-1.38.74-1.06,1.16-.69.96-.73.95-.24.6.58.33.41.11.23.33.15.2.2.15.37-.03.23.19-.17.48-.44.26-1.16.46-1.22.31-.48.14-.37.45-.99,2.07-1.15,1.96-.94,1.62-1.26,1.4-.46.46-.22.59-.43,1.01-.83.7-.22.15-.15.19-1.28,2.08-1.26,2.09-.02.04v.04s-.84,2.08-.84,2.08l-1.05,1.98-.17.79.12.78.51,1.43.58,1.4.29,1.11.2,1.12,1.25,2.13,2.08,1.31,1.36.8,1.05,1.16v.31s-.23.25-.23.25l-.84.6-.47.94-.21.19-.37-.06-.91.02-.33.84-.22.5-.49.22-1.24.43-1.25.4-.71.37-.38.62-.38.85-.77.47-.72.69.06.98-.03.54-.36.27-1.15.98-.2,1.46-.14.82-.43.71-.34.45-.14.6-.05.82-.63.65-.4.56-.2.84.35.6.68.45.48.17.25.41-.33.41-.54.09-.9.21-.88.32-.44.08-.43-.23-.27-.2-.33-.08-2.9.29-2.7,1.08-.12.06-.09.08-1.46,1.38-1.56,1.13-1.34,1.27-.57,1.78-.06.48-.32.43-.38.52-.16.6-.24,1.12-.89.73-.12.11-.06.16-.61,1.23-.97.98-.83.58-.88-.6-.51-.62-.64-.49-.68-.22-.68.17-.32.1-.32-.07h-1.34s-.9,1.05-.9,1.05l-.91,1.06-1.08.21-.84-.27-.77-.39-.58-.26-.61-.06h-1.41s-1.41,0-1.41,0l-1.43.05-1.38.4-1.45.14-1.38-.5-.29-.18-.31-.07-1.61.02-1.56-.14h-1.93s-1.91.28-1.91.28l-1.38.15-1.39-.15-.55.08-.44.38-1.34,1.42-1.5,1.25-1.01.34-1.1-.23-.6-.2-.55.05-2.17.79-2.16.8-.12.07-.08.09-1.06,1.49-1.09,1.47-.28.43-.55.03-.61.09-.16.6.14.89-.42.71-1.16.27-1.14-.32-1.11-.53-1.08-.58-.42-.28-.37-.35-.82-.79-1.09-.3-.35-.07-.23-.22-1.11-1.87-1.16-1.84-.27-.63-.25-.63-.14-.74.7-.33.33-.15-.17-.34-.63-.48-.78-.22-.93-.34-.43-1.32.27-.67.69-.26.24-.09.23-.08-1.56-2.14-1.79-1.96-1.07-.83-1.16-.7-1.01-.53-.99-.58-1.07-.56-1.23-.19-1.54-.02-1.53-.19-.45.3-.42-.09-.41-1.01-.06-1.11.07-1.8-.65-1.67-.07-.29.13-.25.57-.93.34-1.04.56-.97.89-.69,1.12-1.36.56-1.64.31-.51.52.04.46.07.35-.35.41-.22.47.2.8.11.46-.61.11-.3.26-.2.29-.28v-.43s-.31-.9-.31-.9l-.93.2-.72.08-.47-.52-.92-2.09-1.2-1.94-.09-.83.34-.75.41-.88.07-1.02.21-.72.64-.56,1.08-.89,1.18-.74.18-.14v-.18s-.08-1.06-.08-1.06l.7-.78.4-.71-.14-.82-.48-.48-.64-.04-.66.02-.27-.59-.15-.35-.32-.21-.48-.42-.17-.59-.17-.98-.59-.81-.21-.46.12-.5.07-.66-.52-.38-.39-.28v-.5s-.05-.46-.05-.46l-.31-.34-.53-.72-.41-.78-.09-.19.05-.19.2-.12.25.05,1.33.31,1.39-.14h.9s.93.15.93.15l1.33-.1.56-1.2.23-.63.34-.58.89-1.87-.13-2.09-.24-.47-.43-.34-.42-.58-.1-.75.14-.44.45-.28.27-.13.28-.08.81-.32.61-.66.34-.87-.11-.88-.04-.66.35-.59.33-.48-.18-.56-.17-.33.03-.31.23-1.17-.21-1.17-.08-.79.29-.77.05-.25-.13-.22-.51-1.2-.5-1.21-.07-.33.38-.11,1.21-.11.51-1.16.34-.38.38-.27,1.21-1.07,1.52-.52.41-.21.37-.3.68-.75.81-.62.25-.25.15-.37.41-.92.67-.75.32-.6-.28-.66-1.25-1.03-1.62-.04-.95-.44.02-1.27.25-1.43-.11-1.39-.12-.28h-.35s-.37.08-.37.08l-.38.03-1.03-.13-.07-1.03Z"/>
      <g>
        <polygon class="cls-1" points="20.5 158.18 21.73 157.54 21.75 157.46 22.01 156.99 22 156.95 21.85 156.57 21.52 156.55 21.06 156.78 21.01 156.79 20.76 156.82 19.96 156.72 19.47 156.88 19.31 156.99 19.07 157.09 19.06 157.11 19.05 157.1 18.78 157.18 18.52 157.44 18.43 157.69 18.43 157.69 18.13 157.98 18.12 157.98 17.98 158.14 17.94 158.2 17.39 158.63 17.34 158.63 16.83 158.85 16.69 158.93 16.65 158.94 16.49 158.97 16.39 158.98 16.14 158.98 15.99 158.97 15.32 159.13 14.55 159.27 14.45 159.28 14.24 159.29 14.23 159.28 13.95 159.24 13.51 159.17 13.18 159.33 12.96 159.42 12.87 159.44 12.72 159.53 12.71 159.57 12.72 159.71 12.93 159.92 12.96 159.93 13.1 160.07 13.12 160.11 13.17 160.16 13.17 160.16 13.26 160.32 13.27 160.35 13.5 160.82 13.53 161.16 13.57 161.31 13.82 161.66 13.87 161.69 13.87 161.69 14.1 162.06 14.11 162.11 14.16 162.21 14.16 162.21 14.64 162.8 14.75 162.96 14.75 162.96 14.89 163.2 15.08 163.47 15.24 164 15.3 164.09 15.4 164.14 15.99 164 16.33 163.84 16.33 163.84 16.79 163.7 17.28 163.53 17.68 163.05 17.89 162.76 18.14 162.42 18.14 162.41 18.42 162.16 18.42 162.16 18.42 162.16 18.48 161.96 18.62 161.45 18.62 161.45 18.63 161.41 18.82 160.91 18.84 160.87 18.97 160.61 19.07 160.42 19.07 160.42 19.07 160.42 19.22 160.17 19.22 160.17 19.22 160.17 19.22 159.79 19.2 159.68 19.52 159.12 19.52 159.12 20.15 158.53 20.26 158.42 20.5 158.18 20.5 158.18"/>
        <polygon class="cls-1" points="48.58 156.67 48.59 156.54 48.58 156.3 48.58 156.3 48.58 156.3 48.44 154.95 48.34 154.76 48.33 154.74 48.14 154.56 48.04 154.42 48.04 154.42 47.21 154.46 46.61 154.75 46.37 155.16 46.25 155.74 46.2 155.9 46.1 156.43 46.01 156.54 45.41 157.58 45.41 157.58 45.31 157.79 45.15 158.06 44.7 158.99 44.62 159.19 44.57 159.24 44.54 159.38 44.35 159.67 44.12 160.18 44.11 160.22 44.07 160.88 44.05 160.96 43.92 161.16 43.92 161.16 43.62 161.52 44.28 161.65 44.64 161.6 44.82 161.62 44.81 161.35 45.19 161.17 46.26 160.74 48.12 158.87 48.19 158.77 48.22 158.79 48.19 158.77 48.19 158.43 48.19 158.08 48.39 157.44 48.55 156.89 48.58 156.67 48.58 156.67"/>
        <polygon class="cls-1" points="30.56 164.9 30.61 164.65 30.62 164.02 30.55 163.71 30.2 162.85 30.09 162.46 30.24 161.95 30.01 161.72 29.81 161.81 29.81 161.91 29.85 162.06 29.84 162.16 29.16 162.16 28.84 162.06 28.17 162.1 27.37 161.9 27.12 161.86 26.98 161.86 26.72 161.91 26.71 161.91 26.62 162.71 26.17 163.38 25.95 163.57 25.68 163.75 25.43 163.9 25.39 164.31 25.34 164.95 25.38 165.19 25.54 165.53 25.63 165.74 25.64 165.77 25.64 165.77 25.77 166.03 25.98 166.19 25.98 166.19 26.17 166.33 26.28 166.53 26.58 166.73 27.08 167.13 27.12 167.14 27.57 167.17 27.77 167.23 28.53 167.06 29.31 166.77 29.66 166.68 29.66 166.68 29.85 166.57 30.55 165.74 30.61 165.59 30.48 165.4 30.56 164.9 30.56 164.9"/>
        <polygon class="cls-1" points="49.53 152.6 49.53 152.6 49.68 152.41 50.23 152.26 50.28 152.27 50.58 152.28 50.72 152.22 51.17 151.92 51.31 151.82 51.77 151.77 52.11 151.51 52.11 151.51 52.26 151.42 52.4 151.32 52.45 151.27 52.65 150.93 52.65 150.93 52.65 150.93 52.67 150.88 52.76 150.28 52.76 150.28 52.79 150.23 52.79 150.23 52.82 149.94 52.76 149.74 52.76 149.53 52.76 149.53 52.79 149.43 53.01 149.25 53.05 149.23 53.15 148.93 53.15 148.93 53.15 148.93 53.15 148.93 53.15 148.93 53.17 148.79 53.17 148.79 53.1 148.4 52.81 148.16 52.81 148.16 52.34 148.37 52.22 148.65 52.22 148.65 52.21 148.69 52.12 148.94 52.12 148.94 52.12 148.94 51.96 149.39 51.96 149.39 51.96 149.39 51.49 149.53 51.12 149.44 51.01 149.49 50.83 149.59 50.78 149.59 50.23 149.83 50.17 149.93 50.17 149.93 49.63 150.14 49.41 150.14 49.15 150.24 49.12 150.27 49.18 150.28 48.75 150.68 48.71 150.74 48.5 151.03 48.4 151.32 48.4 151.84 48.41 151.86 48.4 151.87 48.39 152.07 48.04 152.51 47.94 152.62 48.19 153.06 48.64 153.07 48.9 153.11 49.04 153.17 49.18 153.16 49.53 152.6 49.53 152.6"/>
        <polygon class="cls-1" points="1.1 156.26 1.29 156.62 1.56 157.23 1.67 157.63 1.98 157.91 2.13 157.94 2.17 157.93 2.43 157.64 2.63 157.23 2.69 157.04 3.07 156.33 3.08 156.3 3.08 156 3.02 155.75 2.97 155.61 2.97 155.61 3.03 155.05 3.16 154.85 3.16 154.85 3.3 154.7 3.3 154.7 3.37 154.46 3.11 154.16 3.02 153.91 2.78 153.36 2.67 153.27 2.36 153.17 2.35 153.17 2.19 153.22 1.33 153.17 1.24 153.16 1.1 153.17 1.1 153.17 1.1 153.17 1.04 153.22 1.04 153.22 .94 153.27 .91 153.27 .81 153.29 .73 153.41 .73 153.41 .89 153.61 .31 154.07 .13 154.06 .14 154.02 .12 154.03 0 154.17 .05 154.4 .06 154.41 .34 154.65 .73 155.5 .79 155.61 1.1 156.26 1.1 156.26"/>
        <polygon class="cls-1" points="9.49 161.61 8.77 162 8.13 162.64 8.11 163 8.14 163.21 8.79 163.8 9.19 163.76 9.29 163.75 9.78 163.68 9.78 163.68 9.86 163.64 10.23 163.35 10.42 163.13 10.44 163.1 10.63 162.85 10.64 162.8 10.64 162.46 10.62 162.41 10.31 162.07 10.18 162.01 10.18 162.01 10.12 161.98 9.97 161.88 9.73 161.71 9.49 161.61 9.49 161.61"/>
      </g>
      <g>
        <path class="cls-1" d="M169.25,88.41c-.06-.05-.18-.09-.12-.19.05-.08.16-.06.24-.02,0-.05,0-.09-.01-.14.04-.14.17-.21.25-.31.15-.18.3-.38.47-.54.06-.05.11-.11.19-.13.09-.02.17-.09.26-.09.14.05.25-.04.33-.12.1-.09.2-.14.34-.16-.04-.04-.1-.06-.11-.13.02-.11.11-.16.2-.2.18-.02.27-.18.38-.29.02,0,0,0,.02,0,.36.02.67-.13.98-.29.01,0,.02,0,.03,0q.23.03.29-.19s.03-.01.05-.02c.2.02.36-.04.47-.22.04-.07.11-.1.17-.16.12-.08.25-.06.38-.1.06-.01.12-.01.18-.01.26-.02.53-.04.78-.13.14-.03.29-.07.43-.11.13-.04.25-.09.37-.14.09-.03.18-.07.26-.11.09-.02.17-.09.27-.07.02.01,0,0,.02,0,.02.01.04.03.07.04-.02-.02-.05-.03-.04-.07.03-.05.07-.07.12-.09.03-.01.07-.01.1,0,.12.07.22-.05.33-.04,0-.03-.04-.02-.05-.05,0-.03.02-.04.05-.04.1-.04.15,0,.19.09-.05.14.02.24.11.33-.06.1-.17.11-.26.17-.1.05-.21.08-.31.11-.12.04-.22.11-.29.22-.02.03-.05.06-.08.09-.04.03-.07.07-.12.09-.06.03-.12.03-.19,0-.06-.02-.1-.01-.12.06-.01.03-.01.06-.01.09q-.02.36.34.41c.15.04.28-.01.41-.06.08-.02.16-.05.24-.05l.34.12c.01-.07.05-.13.13-.05.04.08-.02.17.01.25,0,.03,0,.05,0,.08-.02.06-.05.11-.08.16-.02.03-.05.07-.08.09-.06.05-.13.08-.19.11-.05.02-.09.04-.15.04-.03,0-.07-.01-.08-.05l-.05.05s-.04.05-.07.07c-.04.01-.08.02-.12.03-.01,0-.03.01-.05.02-.08.03-.13.09-.16.17-.07.31.04.58.21.83.08.11.18.21.29.29.05.03.1.05.14.09.04.03.08.05.12.07.03.01.06.03.09.04.16.1.34.13.53.15.09,0,.18,0,.27,0,.09,0,.18,0,.27,0,.19-.01.39.04.58-.04.1-.04.18-.1.24-.18.08-.09.18-.17.25-.27.02-.03.05-.05.08-.07.15-.07.29-.13.43,0l.1.02c.14,0,.23.08.34.14.22.12.41.3.66.36.02,0,.03,0,.05.01.08.03.16.01.24.02.04,0,.07,0,.1.03.02.02.03.04.02.07-.09.11-.09.23-.04.35,0,.02,0,.03,0,.05-.09.13-.13.28-.09.44.04.18.12.37,0,.55-.08.19-.14.39-.26.56-.08.09-.17.15-.28.19-.07.03-.14.04-.2.09-.18.18-.2.39-.13.62.03.09.05.18-.03.25-.02.02-.03.04-.05.05-.13.12-.25.25-.39.37-.1.06-.14.17-.23.24-.01,0-.03.02-.04.02-.06.01-.1,0-.09-.07-.07.12-.14.24-.14.38-.26.36-.43.76-.61,1.16-.02.15-.05.3-.06.45-.04.18-.05.36-.08.54,0,.02-.01.03-.03.05-.2-.06-.26.07-.29.23-.02.09-.06.18-.08.28-.02.08-.03.16-.08.22-.04.04-.08.08-.14.08l-.18.24s-.05.07-.1.08c-.06,0-.09-.06-.15-.05,0,.04.06.08.02.13-.01.01-.02.02-.04.03-.06-.01-.11,0-.08.08-.06.12-.2.15-.29.23-.14.14-.3.25-.49.32-.11.04-.22.1-.31.18-.11.07-.2.16-.3.25-.14.12-.29.23-.38.39-.03.04-.05.09-.09.12-.08.06-.15.13-.26.14-.04,0-.07-.01-.09-.04-.1-.1-.16-.21-.23-.32-.05-.1-.11-.18-.18-.27-.06-.07-.15-.12-.23-.16-.14-.07-.24-.17-.28-.33-.02-.08-.04-.15-.05-.23,0-.06-.01-.13-.07-.16-.17-.08-.31-.22-.49-.29-.11-.05-.22,0-.33.05-.14.06-.3.04-.44.04-.03,0-.08,0-.11,0-.17,0-.33-.05-.5-.04-.19-.02-.38-.02-.57-.08-.09-.05-.2-.07-.28-.15-.02-.16.06-.3.06-.46l-.13-.24c-.06.02-.1-.03-.13-.07-.05-.06-.11-.11-.15-.18-.07-.12-.18-.19-.31-.22-.06-.11-.06-.22-.09-.34,0-.08-.05-.13-.11-.17-.05-.03-.1-.07-.09-.14.02-.08.01-.16.03-.24.02-.06.05-.13.07-.19.02-.05.05-.1.07-.16.01-.03.03-.06.04-.09.03-.19-.06-.33-.18-.46-.05-.05-.1-.1-.15-.15-.24-.26-.55-.43-.88-.54-.15-.05-.28-.01-.42.04-.14.06-.28.13-.42.21-.02.01-.04.03-.06.04-.06.04-.12.07-.19.11-.09.04-.18.08-.27.14-.04.03-.08.07-.12.11-.06.06-.1.13-.13.22-.03.08-.05.15-.08.23-.01.04-.02.08-.03.12-.02.05-.04.1-.09.12-.05,0-.11,0-.15.02-.05.02.02-.14-.04-.02-.02.04-.06.05-.11.06-.14.03-.21.09-.11.23.02.03.02.06-.01.08-.11.06-.22.08-.33.03-.07-.06-.1-.13-.11-.22,0-.11.03-.21-.02-.32-.03-.06,0-.15.02-.23.03-.09.02-.19-.04-.27-.01-.02,0,.03-.03.03-.01.01-.03.02-.04.02-.04-.03-.08-.07-.13-.09-.02-.01-.03-.03-.04-.06,0-.05-.02-.09-.08-.08-.07,0-.11.05-.16.08-.01,0-.03.01-.05.02-.08-.04-.16-.07-.24-.09-.05-.03-.1,0-.15.02-.02,0-.05,0-.07,0-.15-.04-.27,0-.38.1-.03,0-.05,0-.07-.02-.01-.01-.02-.02-.03-.04-.03-.06-.05-.12-.08-.19-.03-.16-.18-.22-.28-.33-.15-.25-.1-.53-.1-.8.02-.09.05-.19.09-.27.02-.03.05-.06.08-.07.04-.01.09-.02.14-.02.16,0,.24-.07.25-.23.03-.05.07-.07.13-.08.15.04.25-.07.37-.13.08-.03,0-.08.02-.12.06-.1.16-.11.26-.13.04,0,.07,0,.11,0,.16.07.22-.06.3-.14.01,0,.03-.02.05-.02q.19-.02.15-.2c0-.06.04-.09.09-.12.03,0,.06,0,.09.01.11.03.16,0,.15-.12,0-.05,0-.1,0-.14.03-.13.13-.21.23-.28.09-.06.18-.11.3-.12.24-.02.45-.13.64-.26.06,0,.1.09.18.04l.02.02c-.01-.06-.11-.07-.09-.15.02-.06.05-.11.12-.12.1.04.15-.06.22-.09.13-.05-.03-.13.02-.19.02-.08.06-.15.12-.2.09-.06.14.01.2.06l.11.05Z"/>
        <path class="cls-1" d="M153.84,109.29s-.01.04-.02.07c-.05.1-.15.12-.24.16-.11.08-.22.03-.33-.01-.04-.06-.1-.05-.16-.05-.02,0-.03,0-.04-.02-.05-.13-.16-.15-.28-.13-.02,0-.02-.02-.03-.04.02-.06.09-.07.1-.14-.17.04-.34,0-.51-.03-.17-.05-.34-.12-.52-.07-.04,0-.08-.03-.12-.05-.02.04.02.08,0,.12-.08.13-.22.14-.34.19-.17-.02-.28-.13-.39-.25.01-.13.01-.26.08-.39.08-.15.08-.28-.09-.37-.02-.07-.02-.14.04-.2.09-.11.25-.02.34-.11.04-.03.07-.06.1-.1.02-.03.03-.05.05-.08.03-.06.06-.12.13-.14.02,0,.03,0,.04.02.01.02,0,.05.01.06.01.02,0,.02,0,0,0-.03,0-.07-.03-.09.1-.09.13-.02.13.06,0,.07.02.13.07.17-.05-.04-.09-.09-.06-.16.02-.05.06-.02.09,0,.16.18.32.36.42.59,0,.01,0,.02,0,.03,0,.05-.04.11.05.11,0,.08.1.19-.07.22-.02-.02,0,0-.01-.01-.01-.01-.02-.03-.03-.04.01.01.02.03.03.04.11.04.22,0,.33.02.12.09.26.11.4.11.16,0,.32-.02.48.01.02,0,.03.02.05.04.04.02.07.04.11.05.17.02.25.11.22.28.02.05.03.1,0,.14Z"/>
        <path class="cls-1" d="M186.56,83.52c.21-.03-.07-.15.04-.2-.1-.03-.03-.09-.02-.14.01-.04.04-.12.03-.13-.05-.03-.11-.03-.16,0,0-.04,0-.07,0-.11.01-.05.03-.09.04-.14.01-.01.02-.03.04-.04.07-.05.11.01.16.04.04.03.08.12.14.06.06-.06-.03-.1-.05-.15-.02-.04-.06-.08-.03-.13.08-.03.17-.05.25-.08.18-.13.41-.11.61-.18.08-.01.15.02.23.04.14.08.29.12.45.06.14,0,.28-.03.42-.04.44-.05.87-.1,1.31-.06.13.01.25-.06.38-.1.2.02.32.16.47.26.15.1.29.21.38.38.05.09.13.11.22.1.59.45,1.2.87,1.74,1.39.03.09-.04.11-.11.12.09.11.21.09.33.07.08,0,.16.03.23.1.06.13.09.27.09.41,0,.02-.02.04-.04.06-.02.02-.05-.02-.03,0,.12.16-.02.33.02.49.02.07,0,.15.03.23,0,.25-.01.5,0,.76,0,.05,0,.1,0,.16,0,.14-.04.25-.19.29-.16.02-.31.04-.47.07-.12.02-.23.01-.33-.07-.02-.02-.04-.04-.05-.06-.04-.19-.22-.14-.34-.21-.04-.02-.09-.01-.14-.03-.01,0-.02-.02-.02-.04.05-.06.11-.1.14-.11-.13.14-.3-.06-.46-.02-.16-.03-.27-.15-.4-.22-.12-.09-.25-.17-.38-.25-.1-.09-.21-.16-.33-.23-.42-.29-.84-.57-1.26-.84-.09-.06-.19-.1-.3-.13-.16-.07-.32-.1-.49-.08-.13.01-.27-.02-.4.02-.06.02-.13.01-.19.03-.11.04-.22.08-.34.08-.06.01-.12.02-.18.03-.06.01-.12.02-.18.03-.12,0-.23-.06-.34-.09-.09-.05-.23-.03-.27-.16.01-.05.02-.11.03-.16-.03-.2-.03-.4.06-.6.14-.2.14-.2-.13-.29-.07-.05-.21-.04-.19-.18Z"/>
        <path class="cls-1" d="M148.72,105.17s-.04-.01-.06-.02c-.09-.02-.11-.1-.13-.17,0-.02,0-.05.02-.07.01-.01.04,0,.03,0-.02-.04-.11-.32-.11-.4h0s.08.06.04-.03c-.01-.03-.01-.05,0-.08h0c.05,0,.11-.07.16-.01-.01-.09-.07-.18-.09-.29-.02-.1.04-.18.04-.28-.02-.1-.15-.18-.04-.29.01-.01.02-.02.04-.03.13,0,.25-.05.38-.02.05.01.15,0,.18-.08.03-.04.08-.07.13-.09.02,0,.03-.01.05-.01.05,0,.11,0,.16,0,.1.01.15-.03.12-.13-.02-.09-.02-.18-.05-.27-.02-.08,0-.17-.04-.26-.02-.12,0-.24-.01-.36,0-.05,0-.1.01-.14.03-.11.1-.18.19-.23.22-.12.4-.29.57-.46.02-.02.04-.03.06-.03.07.02.12.01.07-.08,0-.05.04-.07.08-.08.06-.01.12,0,.17.03.06.02.12.02.16-.03.1-.11.21-.14.35-.07.03.01.06,0,.09,0,.06,0,.11.04.17.03.04,0,.08-.03.04-.07-.07-.08,0-.13.03-.18.18-.16.4-.23.62-.29.04-.01.09-.04.12-.03.24.07.41-.06.58-.19.14-.06.28-.04.39.05.14.12.3.16.48.18.19.02.34.11.44.27.02.04.02.07.01.11-.05.15.01.29.04.43.01.07.04.14.03.21-.02.17,0,.33.01.49-.02.03-.06.03-.09.03-.04,0-.07.02-.07.06-.02.05-.05.08-.08.12-.07.08-.11.18-.14.28-.02.17-.05.34-.22.43-.04.02-.08.04-.12.05-.06,0-.13,0-.14.08-.02.03-.04.05-.07.06-.12.04-.18.13-.2.25-.04.08-.06.19-.17.22-.1-.02-.13.04-.15.11-.03.11-.1.16-.2.18-.05,0-.12.06-.13-.02-.01-.08.03-.14.13-.12-.1-.02-.15.05-.14.13.04.16-.03.21-.15.21.05-.01.12-.05.09.08-.09.11-.22.16-.3.27-.05.04-.11.06-.15.02-.12-.14-.21-.06-.31.02-.27-.01-.36.13-.27.42.03.09-.03.17-.05.25-.01.03-.02.07-.03.1-.03.09-.06.18-.07.28,0,.02-.01.05-.02.07-.06.27-.1.28-.34.13-.01-.01-.02-.03-.03-.04.06-.11-.04-.06-.08-.07-.11-.04-.18-.14-.26-.21-.1-.08-.19-.14-.32-.07-.05.02-.11.01-.16,0-.04,0-.08-.02-.11,0-.02,0-.05,0-.07,0-.02-.01-.04-.03-.05-.05,0-.06-.02-.12-.06-.17,0-.02,0-.03,0-.05-.03-.13-.09-.09-.16-.03-.01,0-.03.01-.05.02-.08.02-.17.02-.25.07-.04.04-.05.09-.08.14-.12.13-.19.02-.26-.06,0-.06-.06-.06-.11-.08-.02,0-.03-.02-.04-.03.02-.07,0-.09-.07-.06Z"/>
      </g>
    </g>
  </g>
</svg>