<svg xmlns="http://www.w3.org/2000/svg" viewBox="0 0 68.16 133.96" fill="#77866a" xmlns:v="https://vecta.io/nano"><path d="M34.92 49.01v6.32a.83.83 0 0 0 .83.83h1.48c.62 0 1.02-.66.74-1.21l-3.05-5.94zm19.5.71h-2.29l.03-.7v-.78h-12.5v.78c0 4.67 2.8 8.47 6.25 8.47 2.63 0 4.88-2.21 5.8-5.34h2.02a.39.39 0 0 0 .39-.39c0-.21-.18-.39-.39-.39h-1.82c.06-.28.11-.57.15-.86h2.37a.39.39 0 0 0 .39-.39c0-.21-.18-.39-.39-.39zm-8.51 6.2c-2.4 0-4.39-2.68-4.65-6.12h1.95c-.06.7-.1 2.45.81 3.48a2.26 2.26 0 0 0 1.75.78 2.36 2.36 0 0 0 1.75-.74c1.04-1.07 1.12-2.94 1.11-3.51h1.93c-.26 3.44-2.25 6.12-4.65 6.12zm-15.24.24h1.48a.83.83 0 0 0 .83-.83v-6.32l-3.05 5.94c-.28.55.12 1.21.74 1.21zM11.52 90.73v9.77H8.07c-1.88 0-3.41 1.56-3.41 3.48v26.5c0 1.92 1.53 3.48 3.41 3.48h23.69c.88 0 1.67-.35 2.28-.91.61.56 1.4.91 2.28.91h23.69c1.88 0 3.41-1.56 3.41-3.48v-26.5c0-1.92-1.53-3.48-3.41-3.48h-3.75v-9.77c0-1.5-.98-2.75-2.31-3.17a9.21 9.21 0 0 0 3.39-6.21c.82.53 1.79.84 2.84.84 2.88 0 5.22-2.34 5.22-5.22V53.73c0-2.88-2.34-5.22-5.22-5.22H57.4v-5.87c0-3.01-1.45-5.68-3.68-7.38h14.46v-1.18C68.16 15.29 52.87 0 34.08 0S0 15.29 0 34.08v1.18h14.21c-2.23 1.69-3.68 4.36-3.68 7.38v5.87H7.91c-2.88 0-5.22 2.34-5.22 5.22v23.24c0 2.88 2.34 5.22 5.22 5.22.98 0 1.9-.28 2.69-.75a9.19 9.19 0 0 0 3.34 6.09c-1.38.39-2.41 1.67-2.41 3.2zm-4.51 13.25c0-.62.47-1.13 1.06-1.13h2.65l-3.71 2.22v-1.1zm0 3.14l2.67 1.59c0 .08-.02.15-.02.23v.39l-2.64 1.97v-4.18zm0 5.16l2.64-1.97v4.58l-2.64-1.87v-.74zm0 1.7l2.64 1.87v.68l-2.64 1.81v-4.36zm0 5.31l2.64-1.81v3.92l-2.64-1.55v-.56zm0 1.47l2.64 1.55v.53l-2.64 1.71v-3.79zm0 4.73l2.64-1.71v2.79l-2.64-.83v-.25zm0 1.07l2.64.83v.2c0 .08 0 .16.02.24L7 130.16v-3.6zm25.8 3.92c0 .62-.47 1.13-1.06 1.13h-3.9c.5-1.8 2.1-3.13 4.01-3.13h.95v2.01zm0-5.17h-5.04c.36-2 2.06-3.52 4.1-3.52h.95v3.52zm0-4.31h-.95c-2.47 0-4.52 1.87-4.89 4.31h-4.83a.78.78 0 0 0 0 1.56h10.67v.81h-.95c-2.34 0-4.3 1.67-4.81 3.92H8.07c-.38 0-.71-.22-.9-.54l2.93-2.56a1.16 1.16 0 0 0 .73.26c.65 0 1.18-.53 1.18-1.18v-10.06h2.13a.39.39 0 0 0 .39-.39c0-.21-.18-.39-.39-.39h-2.13v-.86h2.13a.39.39 0 0 0 .39-.39c0-.21-.18-.39-.39-.39h-2.13v-1.52c2.25-.48 3.94-2.53 3.94-4.99v-.78h1.48c.58 0 1.06.5 1.06 1.12 0 1.92 1.53 3.48 3.41 3.48h9.85c.56 0 1.01.46 1.05 1.04h-.94c-2.47 0-4.52 1.87-4.89 4.31h-4.83a.78.78 0 0 0 0 1.56h10.67v1.66zm-20.8-8.23v-3.83c0-.62.47-1.12 1.06-1.12h2.1v.78c0 2.02-1.35 3.71-3.16 4.17zm9.14-3.04l2.97-4.41 2.34 4.74h-4.55c-.29 0-.56-.13-.75-.34zm11.66 8.04h-5.04c.36-2 2.06-3.52 4.1-3.52h.95v3.52zm-1.05-7.7h-3.34l2.01-4.63 2.68 4.92c-.41-.18-.87-.29-1.35-.29zm2.26.33l-2.93-5.38h5.63l-2.7 5.38zm-.14-9.93l1.22 2.19h-2.45l1.22-2.19zm-1.22-7h2.45l-1.22 2.19-1.22-2.19zm4.76 11.91l2.62 4.69h-3.72a3.35 3.35 0 0 0-1.41.32l2.51-5.01zm-2.16 8.87h.95c2.04 0 3.74 1.52 4.1 3.52h-5.04v-3.52zm0 7.54h.95c2.04 0 3.74 1.52 4.1 3.52h-5.04v-3.52zm1.05 9.82c-.58 0-1.06-.5-1.06-1.13v-2.01h.95c1.9 0 3.51 1.33 4.01 3.13h-3.9zm24.75-1.13c0 .62-.47 1.13-1.06 1.13H41.02c-.52-2.24-2.48-3.92-4.81-3.92h-.95v-.81h10.67a.78.78 0 0 0 0-1.56H41.1c-.37-2.44-2.42-4.31-4.89-4.31h-.95v-1.66h10.67a.78.78 0 0 0 0-1.56H41.1c-.37-2.44-2.42-4.31-4.89-4.31h-.94c.04-.58.49-1.04 1.05-1.04h9.85c1.88 0 3.41-1.56 3.41-3.48 0-.62.47-1.12 1.06-1.12h1.48v.78c0 2.45 1.69 4.5 3.94 4.99v1.52h-2.29a.39.39 0 0 0-.39.39c0 .21.18.39.39.39h2.29v.86h-2.29a.39.39 0 0 0-.39.39c0 .21.18.39.39.39h2.29v10.06c0 .65.53 1.18 1.18 1.18s1.18-.53 1.18-1.18v-5.52h2.64v8.4zM42.1 110.07l1.97-4.44 2.6 4.3c-.15.08-.31.14-.49.14h-4.07zm10.8-1.47v-.78H55c.58 0 1.06.5 1.06 1.12v3.83c-1.81-.47-3.16-2.16-3.16-4.17zm8.16 12.7h-2.64v-5.28l2.64 2.11v3.18zm0-4.18l-2.64-2.11v-.81l2.64-1.93v4.85zm0-5.83l-2.64 1.93v-4.28c0-.08-.02-.16-.02-.24h2.67v2.59zm-5.03-8.43H60c.58 0 1.06.5 1.06 1.13v3.93h-2.81c-.43-1.41-1.71-2.45-3.24-2.45h-4.37c-1.88 0-3.41 1.56-3.41 3.48 0 .11-.02.22-.05.32l-2.57-4.25h8.38c1.39 0 2.58-.9 3.05-2.15zM54.4 82.85h-9.79v-7.86c0-1.5.97-2.72 2.16-2.72h5.48c1.19 0 2.16 1.22 2.16 2.72v7.86zm-.71 2.05c-1.02 1.25-2.46 2.16-4.1 2.5h-.72c-.2 0-.39.05-.55.14-.07 0-.14.01-.21.01H19.78c-.12 0-.24-.01-.36-.02-.16-.08-.34-.13-.54-.13h-.57c-1.64-.34-3.08-1.25-4.1-2.5h39.47zM23.32 68.18c0 1.5-.97 2.72-2.16 2.72h-5.48c-1.19 0-2.16-1.22-2.16-2.72v-7.9h9.79v7.9zm2.69 4.09h5.48c1.19 0 2.16 1.22 2.16 2.72v7.86h-9.79v-7.86c0-1.5.97-2.72 2.16-2.72zm-2.11-4.09v-7.9h9.79v7.9c0 1.5-.97 2.72-2.16 2.72h-5.48c-1.19 0-2.16-1.22-2.16-2.72zm12.49 4.09h5.48c1.19 0 2.16 1.22 2.16 2.72v7.86h-9.79v-7.86c0-1.5.97-2.72 2.16-2.72zm-2.11-4.09v-7.9h9.79v7.9c0 1.5-.97 2.72-2.16 2.72h-5.48c-1.19 0-2.16-1.22-2.16-2.72zm20.12 0c0 1.5-.97 2.72-2.16 2.72h-5.48c-1.19 0-2.16-1.22-2.16-2.72v-7.9h9.79v7.9zm.46 14.67c.06-.18.13-.36.18-.55a5.05 5.05 0 0 1-.18.55zm2.52-31.99h2.78a2.88 2.88 0 0 1 2.87 2.87v23.24a2.88 2.88 0 0 1-2.87 2.87c-1.35 0-2.48-.94-2.78-2.2V60.28h1.04c1.73 0 3.14-1.41 3.14-3.14 0-1.19-.97-2.16-2.16-2.16h-1.19c-.45 0-.82-.37-.82-.82v-3.3zm8.41-17.96h-7.72l5.37-1.53c.78-.22 1.26-.97 1.06-1.67l-1.6-5.65c-.1-.35-.35-.63-.7-.8a1.54 1.54 0 0 0-1.08-.07l-7.4 2.1c-.78.22-1.26.97-1.06 1.67l1.04 3.67c.1.35.35.63.7.8a1.54 1.54 0 0 0 1.08.07l4.55-1.29c.78-.22 1.26-.97 1.06-1.67l-.51-1.79c-.1-.35-.35-.63-.7-.8a1.54 1.54 0 0 0-1.08-.07l-2.14.61c-.78.22-1.26.97-1.06 1.67s1 1.09 1.78.87l.17-.05a.39.39 0 0 0 .27-.48.39.39 0 0 0-.48-.27l-.17.05c-.37.1-.73-.04-.81-.33s.15-.6.52-.71l2.14-.61c.19-.05.38-.04.54.03.14.06.24.17.27.3l.51 1.79c.08.29-.15.6-.52.71l-4.55 1.29c-.19.05-.38.04-.54-.03-.14-.06-.24-.17-.27-.3l-1.04-3.67c-.08-.29.15-.6.52-.71l7.4-2.1c.19-.05.38-.04.54.03.14.06.24.17.27.3l1.6 5.65c.08.29-.15.6-.52.71L55.2 32.9h-1.6a19.25 19.25 0 0 0-1.79-7.06l10.81-5.59c1.87 3.85 2.99 8.12 3.16 12.64zm-3.88-14.03l-10.4 5.37 7.52-6.2c.3-.24.49-.57.55-.93a1.26 1.26 0 0 0-.26-1.03l-3.74-4.53c-.46-.56-1.35-.6-1.98-.08l-5.94 4.89c-.63.52-.76 1.4-.3 1.96l2.43 2.95c.46.56 1.35.6 1.98.08l3.65-3.01c.3-.24.49-.57.55-.93a1.26 1.26 0 0 0-.26-1.03l-1.18-1.44c-.46-.56-1.35-.6-1.98-.08l-1.71 1.41c-.63.52-.76 1.39-.3 1.96.46.56 1.35.6 1.98.08l.13-.11c.17-.14.19-.38.05-.55s-.38-.19-.55-.05l-.13.11c-.29.24-.69.25-.87.02-.19-.23-.1-.62.19-.85l1.71-1.41c.29-.24.69-.25.88-.02l1.18 1.44c.08.1.12.24.09.39-.03.17-.13.34-.28.46l-3.65 3.01c-.29.24-.69.25-.88.02l-2.43-2.95c-.19-.23-.1-.62.19-.85l5.93-4.89c.29-.24.69-.25.87-.02l3.74 4.53c.08.1.12.24.09.39-.03.17-.13.34-.28.46l-7.79 6.42a19.73 19.73 0 0 0-6.09-6.21l7.7-9.48a32.03 32.03 0 0 1 9.56 10.71zm-17.7 9.23a.45.45 0 0 0-.3-.05c-.1.02-.19.09-.24.18l-2.56 4.24-3.4-4.45 12.47-.01c.53 1.4.87 2.89 1.02 4.43l-6.98-4.34zm6.24 4.8h-8.69l2.38-3.93 6.32 3.93zm-26.39-4.1l2.77 4.11h-9.17l6.4-4.11zm-7.09 3.61c.15-1.53.49-3.01 1.01-4.4h5.85l-6.86 4.4zm7.53-4.37l-.03-.03h5.63s-.04.03-.05.05l-2.6 4.37-2.96-4.39zm5.93.93l2.93 3.94h-5.27l2.34-3.94zm.28-.94l6.4-.01c-.03.03-3.08 4.48-3.08 4.48l-3.32-4.46zm6.7.9l3.04 3.98h-5.77l2.73-3.98zM34.87 2.37c5.94.15 11.47 1.93 16.17 4.91L44 15.96l2.49-8.63a1.54 1.54 0 0 0-.07-1.08c-.16-.35-.44-.6-.79-.7l-5.64-1.63c-.7-.2-1.45.27-1.68 1.05l-2.13 7.39a1.54 1.54 0 0 0 .07 1.08c.16.35.44.6.79.7l3.67 1.06a1.25 1.25 0 0 0 1.04-.17c.3-.2.53-.51.64-.88l1.31-4.54a1.54 1.54 0 0 0-.07-1.08c-.16-.35-.44-.6-.79-.7l-1.79-.52c-.7-.2-1.45.27-1.68 1.05l-.62 2.13a1.54 1.54 0 0 0 .07 1.08c.16.35.44.6.79.7a1.25 1.25 0 0 0 1.04-.17c.3-.2.53-.51.64-.88l.05-.17c.06-.21-.06-.43-.27-.49s-.43.06-.49.27l-.05.17c-.05.19-.16.34-.31.44-.13.08-.27.11-.4.07s-.23-.13-.3-.27c-.07-.16-.08-.35-.03-.54l.62-2.13c.1-.36.43-.6.71-.51l1.79.52c.13.04.23.13.3.27.07.16.08.35.03.54l-1.31 4.54c-.05.19-.17.34-.31.44-.13.08-.27.11-.4.07l-3.67-1.06c-.13-.04-.23-.13-.3-.27-.07-.16-.08-.35-.03-.54l2.13-7.39c.11-.37.42-.6.71-.51L45.4 6.3c.13.04.23.13.3.27.07.16.08.35.03.54l-2.76 9.55c-2.45-1.26-5.2-2.01-8.11-2.13V2.37zm14.62 24.07H18.68c2.82-5.66 8.66-9.57 15.4-9.57s12.59 3.9 15.4 9.57zM33.3 2.37v11.69l-3.47-9.34c-.13-.36-.38-.65-.7-.83a1.22 1.22 0 0 0-1.05-.09l-5.51 2.04c-.68.25-1.01 1.08-.73 1.84l2.68 7.21c.13.36.38.65.7.83.2.11.42.17.63.17.14 0 .28-.02.42-.08l3.58-1.33c.34-.13.6-.4.74-.76.13-.34.12-.73-.01-1.08l-1.65-4.43c-.13-.36-.38-.65-.7-.83a1.22 1.22 0 0 0-1.05-.09l-1.74.65c-.68.25-1.01 1.08-.73 1.84l.77 2.08c.28.76 1.07 1.18 1.75.92.68-.25 1.01-1.08.73-1.84l-.06-.16c-.08-.2-.3-.31-.5-.23s-.31.3-.23.5l.06.16c.13.35 0 .73-.26.83-.28.1-.61-.1-.74-.46l-.77-2.08c-.13-.35 0-.73.26-.83l1.74-.65c.12-.05.27-.03.4.04.15.09.28.23.34.42l1.65 4.43c.07.18.07.37.01.54a.45.45 0 0 1-.28.29L26 15.07c-.12.05-.27.03-.4-.04-.15-.09-.28-.23-.34-.42L22.58 7.4c-.13-.35 0-.73.26-.83l5.51-2.04c.13-.05.27-.03.4.04.15.09.28.23.34.42l3.56 9.58c-2.79.2-5.41.99-7.76 2.24l-7.75-9.55c4.7-2.98 10.23-4.76 16.15-4.9zM15.83 8.15l7.06 8.69-7.69-6.11c-.64-.51-1.52-.45-1.98.12l-3.66 4.6c-.45.57-.31 1.45.33 1.95l6.02 4.79c.29.23.64.35.97.35.39 0 .76-.16 1-.46l2.38-2.99a1.25 1.25 0 0 0 .24-1.03c-.07-.36-.27-.68-.57-.92l-3.7-2.94c-.64-.51-1.52-.45-1.98.12l-1.16 1.46a1.25 1.25 0 0 0-.24 1.03c.07.36.27.68.57.92l1.74 1.38c.3.24.66.35 1.03.35.39-.01.72-.18.95-.47.45-.57.31-1.45-.33-1.95l-.14-.11c-.17-.14-.42-.11-.55.06s-.11.42.06.55l.14.11c.29.23.39.62.21.85-.08.1-.21.16-.37.17-.17 0-.36-.06-.51-.18l-1.74-1.38c-.15-.12-.26-.28-.29-.46-.03-.15 0-.29.08-.39l1.16-1.46c.18-.23.58-.23.88 0l3.7 2.94a.81.81 0 0 1 .29.46.47.47 0 0 1-.08.39l-2.38 2.99c-.18.23-.58.23-.88 0l-6.02-4.79c-.29-.23-.39-.62-.21-.85l3.66-4.6c.19-.23.58-.23.88 0l8.32 6.61c-2.44 1.68-4.48 3.9-5.96 6.48L6.25 18.84a31.95 31.95 0 0 1 9.57-10.71zM2.37 32.9c.17-4.52 1.29-8.8 3.17-12.66l8.05 4.16-6.9-1.42c-.79-.16-1.56.28-1.71 1L3.8 29.74a1.29 1.29 0 0 0 .25 1.03 1.5 1.5 0 0 0 .93.56l7.53 1.55c.07.01.14.02.22.02H2.37zm10.54 0c.64-.03 1.19-.43 1.31-1.02l.77-3.74c.15-.71-.38-1.43-1.18-1.59l-4.63-.95a1.56 1.56 0 0 0-1.07.15 1.28 1.28 0 0 0-.64.84l-.37 1.82c-.15.71.38 1.43 1.18 1.59l2.18.45c.79.16 1.56-.28 1.71-1 .15-.71-.38-1.43-1.18-1.59l-.17-.03c-.21-.04-.42.09-.46.31-.04.21.09.42.31.46l.17.03c.37.08.63.38.57.67s-.42.46-.78.39l-2.18-.45c-.37-.08-.63-.38-.57-.67l.37-1.82c.03-.13.11-.24.25-.32.15-.09.35-.11.53-.07l4.63.95c.37.08.63.38.57.67l-.77 3.74c-.06.29-.42.46-.78.39l-7.53-1.55c-.19-.04-.36-.14-.46-.28-.09-.12-.13-.26-.1-.39l1.18-5.76c.06-.29.42-.46.78-.39l9.63 1.98.19.1a19.5 19.5 0 0 0-1.79 7.07h-1.65zm-2.38 45.23c-.45 1-1.45 1.71-2.62 1.71a2.88 2.88 0 0 1-2.87-2.87V53.73a2.88 2.88 0 0 1 2.87-2.87h2.62v3.3c0 .45-.37.82-.82.82H8.68c-1.19 0-2.16.97-2.16 2.16 0 1.73 1.41 3.14 3.14 3.14h.87v17.85zm2.52 4.72a5.05 5.05 0 0 1-.18-.55c.05.19.12.37.19.55h0zm-.45-24.64H9.65a1.07 1.07 0 0 1-1.07-1.07.09.09 0 0 1 .09-.09H9.7c.29 0 .56-.06.82-.13 1.19-.36 2.07-1.45 2.07-2.76V42.64a7.14 7.14 0 0 1 1.89-4.84c.11.06.24.11.37.11H31.2c.19 0 .3.11.3.15v5.88s-.11.15-.3.15h-7.69c-.19 0-.3-.11-.3-.15v-3.82s.11-.15.3-.15h4.73c.19 0 .3.11.3.15v1.86s-.1.15-.3.15h-2.22c-.19 0-.3-.11-.3-.15s.11-.15.3-.15h.17a.78.78 0 0 0 0-1.56h-.17c-1.03 0-1.87.77-1.87 1.71s.84 1.71 1.87 1.71h2.22c1.03 0 1.87-.77 1.87-1.71v-1.86c0-.95-.84-1.71-1.87-1.71h-4.73c-1.03 0-1.87.77-1.87 1.71v3.82c0 .95.84 1.71 1.87 1.71h7.69c1.03 0 1.87-.77 1.87-1.71v-5.88c0-.95-.84-1.71-1.87-1.71H16.32c1.03-.57 2.2-.89 3.46-.89h28.33c1.25 0 2.43.32 3.46.89H36.69c-1.03 0-1.87.77-1.87 1.71v5.88c0 .95.84 1.71 1.87 1.71h7.69c1.03 0 1.87-.77 1.87-1.71v-3.82c0-.95-.84-1.71-1.87-1.71h-4.73c-1.03 0-1.87.77-1.87 1.71v1.86c0 .95.84 1.71 1.87 1.71h2.22c1.03 0 1.87-.77 1.87-1.71s-.84-1.71-1.87-1.71h-.17a.78.78 0 0 0 0 1.56h.17c.19 0 .3.11.3.15s-.1.15-.3.15h-2.22c-.19 0-.3-.11-.3-.15v-1.86s.11-.15.3-.15h4.73c.19 0 .3.11.3.15v3.82s-.11.15-.3.15h-7.69c-.19 0-.3-.11-.3-.15v-5.88s.11-.15.3-.15h16.35c.14 0 .26-.05.37-.11a7.14 7.14 0 0 1 1.89 4.84v11.52c0 1.31.88 2.41 2.07 2.76.26.08.54.13.82.13h1.19s.09.04.09.09a1.07 1.07 0 0 1-1.07 1.07H12.6zm.92 24.64v-7.86c0-1.5.97-2.72 2.16-2.72h5.48c1.19 0 2.16 1.22 2.16 2.72v7.86h-9.79zm.35 7.88c0-.54.41-.98.91-.98h4.1c.2 0 .39-.06.55-.14.12 0 .23.02.34.02H48.1c.07 0 .14 0 .21-.01.16.09.35.14.54.14h4.1c.5 0 .91.44.91.98v10.95c0 .54-.41.98-.91.98H42.11c-.5 0-.91-.44-.91-.98v-7.38c0-.54.41-.98.91-.98h7.16c.5 0 .91.44.91.98v4.05c0 .54-.41.98-.91.98h-4.18c-.5 0-.91-.44-.91-.98v-.78c0-.54.41-.98.91-.98h1.2c.5 0 .91.44.91.98 0 .65.53 1.18 1.18 1.18s1.18-.53 1.18-1.18c0-1.84-1.47-3.33-3.27-3.33h-1.2c-1.8 0-3.27 1.49-3.27 3.33v.78c0 1.84 1.47 3.33 3.27 3.33h4.18c1.8 0 3.27-1.49 3.27-3.33v-4.05c0-1.84-1.47-3.33-3.27-3.33h-7.16c-1.8 0-3.27 1.49-3.27 3.33v7.38c0 1.84 1.47 3.33 3.27 3.33h1.34l-2.24 5.05h-.3l-3.01-5.38a.96.96 0 0 0 .2-.25c.21-.36.22-.81.01-1.17l-2.91-5.2 2.91-5.2a1.19 1.19 0 0 0-.01-1.17c-.21-.36-.6-.58-1.01-.58h-6.46c-.42 0-.8.22-1.01.58s-.22.81-.01 1.17l2.91 5.2-2.91 5.2a1.19 1.19 0 0 0 .01 1.17c.07.11.15.2.25.29l-2.33 5.35h-.23l-2.49-5.05h.78c1.8 0 3.27-1.49 3.27-3.33v-7.38c0-1.84-1.47-3.33-3.27-3.33h-7.16c-1.8 0-3.27 1.49-3.27 3.33v4.05c0 1.84 1.47 3.33 3.27 3.33h4.18c1.8 0 3.27-1.49 3.27-3.33v-.78c0-1.84-1.47-3.33-3.27-3.33h-1.2c-1.8 0-3.27 1.49-3.27 3.33 0 .65.53 1.18 1.18 1.18s1.18-.53 1.18-1.18c0-.54.41-.98.91-.98h1.2c.5 0 .91.44.91.98v.78c0 .54-.41.98-.91.98h-4.18c-.5 0-.91-.44-.91-.98v-4.05c0-.54.41-.98.91-.98h7.16c.5 0 .91.44.91.98v7.38c0 .54-.41.98-.91.98H14.76c-.5 0-.91-.44-.91-.98V90.75zm.92 14.28h8.6l-2.55 3.79c-.07-1.85-1.56-3.34-3.39-3.34h-4.37c-1.52 0-2.79 1.02-3.23 2.42l-2.82-1.68v-.21l4.83-2.9c.52 1.13 1.64 1.91 2.94 1.91z"/><rect x="6.51" y="65.59" width="2.38" height="12.53" rx="1.13"/><rect x="59.17" y="65.59" width="2.38" height="12.53" rx="1.13"/><path d="M15.75 49.01l.03.7h-2.31a.39.39 0 0 0-.39.39c0 .21.18.39.39.39h2.38l.15.86h-1.84a.39.39 0 0 0-.39.39c0 .21.18.39.39.39h2.04c.92 3.12 3.17 5.34 5.8 5.34 3.45 0 6.25-3.8 6.25-8.47v-.78h-12.5V49zm3.55.79c-.06.7-.1 2.45.81 3.48a2.26 2.26 0 0 0 1.75.78 2.36 2.36 0 0 0 1.75-.74c1.04-1.07 1.12-2.94 1.11-3.51h1.93c-.27 3.44-2.25 6.12-4.65 6.12s-4.39-2.68-4.65-6.12h1.95zm8.94-3.37H14.16a.39.39 0 0 0-.39.39c0 .21.18.39.39.39h14.08a.39.39 0 0 0 .39-.39c0-.21-.18-.39-.39-.39zm25.89.4a.39.39 0 0 0-.39-.39H39.66a.39.39 0 0 0-.39.39c0 .21.18.39.39.39h14.08a.39.39 0 0 0 .39-.39z"/></svg>