<?xml version="1.0" encoding="UTF-8"?>
<svg id="Layer_2" data-name="Layer 2" xmlns="http://www.w3.org/2000/svg" viewBox="0 0 114.88 111.18">
  <defs>
    <style>
      .cls-1, .cls-2 {
        fill: #77876a;
        stroke-width: 0px;
      }

      .cls-2 {
        fill-rule: evenodd;
      }
    </style>
  </defs>
  <g id="desktop">
    <g>
      <path class="cls-2" d="M23.7,60.31c15.26-7.35,30.64-24.62,37.57-32.56,1.41-1.61,3.94-4.87,6.3-5.25,1.42-.23,2.99.5,3.6,3.48,3.44,16.73.95,29.15-4.13,38.71-5.79,10.89-16.94,22.95-28.64,22.88-7.88-.05-15.11-5-18.25-13.45-1.8-4.82-3.5-10.42,3.55-13.81h0ZM66.34,40.39c-.53-4.17-7.9-1.71-7.66.68.24,2.38,8.19,3.49,7.66-.68h0ZM25.41,68.67c2.98.02,1.94-5.38.25-5.44-1.69-.06-3.22,5.42-.25,5.44h0ZM35.49,71.15c4.44-1.82-.46-9.22-3.02-8.25-2.56.97-1.42,10.07,3.02,8.25h0ZM46.08,69.01c3.31-1.58-1.26-6.88-3.12-5.93-1.86.95-.18,7.51,3.12,5.93h0ZM55.06,61.29c2.89-3.76-4.96-7.65-6.67-5.56-1.71,2.09,3.78,9.32,6.67,5.56h0ZM57.45,49.88c.35-3.61-6.32-2.95-6.58-.9-.26,2.05,6.23,4.51,6.58.9Z"/>
      <path class="cls-1" d="M6.09,90.01c4.52,9.08,10.62,14.68,17.42,17.7,19.74,8.76,48.26-.36,64.29-12.67,14.53-11.16,24.68-27.25,26.77-44.36,1.13-9.21-.82-19.63-7.26-29.08-2.62-3.85-5.98-7.54-10.18-10.9-5.83-4.68-12.58-8.26-19.63-10.69L0,69.25c.53,7.02,3.14,14.82,6.09,20.76h0ZM8.62,68.39h0L75.22,9.06c4.05,9.27,6.77,19.38,7.48,29.5.45,6.37-.02,12.67-1.48,18.65-2.19,9.28-5.96,17.32-10.76,23.88-5.05,6.9-11.21,12.14-17.84,15.44-21.63,10.77-40.84-6.35-44-28.14h0ZM85.16,68.68h0c2.46-6.53,4.13-13.62,4.78-20.52,1.08-11.5-1.12-25.44-5.9-35.97,4.61,2.53,9.52,6.34,13.37,10.88,15.86,18.7-1.7,59.11-25.79,68.07,5.57-6.83,10.4-14.12,13.54-22.46Z"/>
      <path class="cls-1" d="M13.24,62.04c4.46,24.35,23.79,38.48,42.17,23.87,8.81-7.04,27.72-30.83,20.73-62.38,10.88,33.91-6.76,56.7-18.62,66.19-20.42,16.29-41.36,2.54-47.36-25.09l3.08-2.6Z"/>
    </g>
  </g>
</svg>