<?xml version="1.0" encoding="UTF-8"?>
<svg id="Layer_2" data-name="Layer 2" xmlns="http://www.w3.org/2000/svg" viewBox="0 0 52.53 75.87">
  <defs>
    <style>
      .cls-1, .cls-2 {
        fill: #77876a;
        stroke-width: 0px;
      }

      .cls-2 {
        fill-rule: evenodd;
      }
    </style>
  </defs>
  <g id="desktop">
    <g>
      <path class="cls-2" d="M7.53,52.76c4.21-9.57,4.49-23.84,4.55-30.35.01-1.32-.11-3.86.84-4.99.57-.68,1.6-.97,3.09.19,8.33,6.46,12.14,13.29,13.6,19.81,1.66,7.43,1.27,17.56-4.24,22.22-3.71,3.14-9.09,3.72-13.96,1.02-2.78-1.54-5.82-3.48-3.88-7.9h0ZM19.52,26.31c-1.92-1.74-4.39,2.37-3.32,3.39,1.07,1.02,5.24-1.65,3.32-3.39h0ZM11.68,55.99c1.4-1.18-1.25-3.3-2.07-2.65-.82.65.66,3.83,2.07,2.65h0ZM17.4,53.11c1.35-2.64-3.91-4.14-4.73-2.66-.81,1.48,3.37,5.29,4.73,2.66h0ZM21.51,47.86c.92-2.07-3.36-2.72-3.84-1.53-.49,1.19,2.93,3.6,3.84,1.53h0ZM22.62,40.63c-.15-2.92-5.4-1.6-5.36.07.04,1.67,5.51,2.85,5.36-.07h0ZM19.16,34.33c-1.28-1.83-4.15,1.16-3.44,2.22s4.73-.39,3.44-2.22Z"/>
      <path class="cls-1" d="M11.19,73.75c5.76,2.44,10.87,2.62,15.27,1.31,12.77-3.82,22.48-19.54,25.06-31.75,2.33-11.06.64-22.68-5.25-31.55-3.17-4.77-8.27-8.87-15.07-10.72C28.42.29,25.37-.09,22.05.02c-4.61.15-9.21,1.18-13.49,2.87L0,66.47c3.07,3.08,7.42,5.69,11.19,7.29h0ZM3.69,62.6h0L11.11,8.05c5.62,2.72,10.95,6.37,15.35,10.83,2.76,2.81,5.07,5.95,6.79,9.34,2.7,5.23,4.15,10.51,4.54,15.51.4,5.26-.39,10.19-2.17,14.4-5.82,13.73-21.7,13.41-31.93,4.46h0ZM39.7,32.02h0c-1.47-4.05-3.53-8.05-6-11.54-4.11-5.83-10.74-11.48-17.2-14.5,3.17-.66,7.01-.85,10.63-.27,14.94,2.41,22.93,28.4,15.22,42.27-.13-5.44-.79-10.79-2.66-15.97Z"/>
      <path class="cls-1" d="M3.31,57.77c11.86,9.63,26.6,8.5,29.35-5.73,1.3-6.84.63-25.58-15.32-37.57,18.71,11.53,19.59,29.3,17.83,38.51-3.04,15.83-18.37,17.79-32.27,7.24l.4-2.45Z"/>
    </g>
  </g>
</svg>