<?xml version="1.0" encoding="UTF-8"?>
<svg id="Layer_2" data-name="Layer 2" xmlns="http://www.w3.org/2000/svg" viewBox="0 0 171.64 165.72">
  <defs>
    <style>
      .cls-1 {
        fill: #1a1716;
      }

      .cls-1, .cls-2 {
        stroke-width: 0px;
      }

      .cls-2 {
        fill: #f64e25;
      }
    </style>
  </defs>
  <g id="main_bg" data-name="main bg">
    <path class="cls-2" d="M109.72,72.38c-4.04-.39-7.81,2.4-9.99,5.83-2.18,3.43-3.15,7.45-4.5,11.28-1.35,3.83-3.51,7.35-6.62,9.97-4.91,4.12-10.04,3.67-12.99,2.86-1.14-.31-2.21-.8-3.22-1.4-5.5-3.3-12.67-2.13-15.49.89-3.15,3.38-3.83,8.59-2.46,13,1.37,4.41,4.51,8.1,8.12,10.97,8.65,6.88,20.48,9.59,31.27,7.17,10.79-2.42,20.32-9.93,25.2-19.85,4.88-9.92,5.01-22.05.34-32.08-1.91-4.1-5.15-8.2-9.65-8.64Z"/>
    <path class="cls-2" d="M103.42,62.82c-5.14,2.18-8.03,8.63-13.14,10.9-3.04,1.35-6.46,1.03-9.71.54-3.25-.49-6.57-1.14-9.77-.37-3.2.77-6.31,3.35-6.79,6.96-.47,3.55,1.76,6.99,4.58,8.73,2.82,1.75,6.12,2.18,9.32,2.63,3.2.44,6.58.86,9.24,2.89,3.72,2.84,5.48,7.13,6.31,10.91,1.27,5.75,6.52,9.28,11.7,7.9.04,0,.07-.02.11-.03,6.55-1.79,12.12-7.19,15.07-13.94,2.96-6.75,3.39-14.7,1.7-21.96-1.09-4.68-3.11-9.24-6.44-12.35-3.33-3.11-8.12-4.53-12.18-2.8Z"/>
    <path class="cls-2" d="M67.35,99.48c3.75,5.23,3.64,12.73,8.07,17.41,2.5,2.64,6.31,3.99,9.91,3.52,3.61-.48,6.93-2.76,8.66-5.96,2.87-5.3,1.25-11.87,2.57-17.75,1.03-4.57,3.79-8.51,6.1-12.59,2.31-4.07,4.26-8.71,3.45-13.32-.88-5.01-4.95-8.99-9.56-11.12-4.62-2.13-9.77-2.73-14.82-3.3-7.45-.84-27.93,1.7-27.93,18.91,0,6.79,3.09,13.44,7.83,18.31,1.91,1.97,4.13,3.66,5.73,5.89Z"/>
    <path class="cls-2" d="M62.13,37.69c5.23,2.72,11.63,2.78,17.16.76,3.5-1.28,6.72-3.35,10.37-4.12,3.13-.66,6.41-.34,9.52-1.09,7.73-1.86,12.7-11.16,9.95-18.61-2.34-6.03-7.12-11.45-10.87-13.35-3.75-1.91-8.51-1.66-12.04.64-2.83,1.84-4.84,4.82-7.85,6.33-4.81,2.41-10.72.46-15.9,1.92-5.67,1.6-9.63,7.51-9.52,13.4.11,5.89,3.94,11.41,9.17,14.13Z"/>
    <path class="cls-2" d="M89.57,91.4c.2-5.46-4.43-8.76-7.73-9.72-.96-.28-10.03-1.91-11.92,6.25-1.23,5.32-5.55,10.63-14.85,13.87-4.2,1.46-7.78,5.79-7.99,10.23-.23,4.77.24,9.82,5.96,12.51,10.04,4.73,13.32-2.54,22.75-2.54,7.92,0,9.32,4.97,16.99,4.97,3.39,0,7.02-.91,9.2-3.51,3.12-3.71,3.76-8.96-.19-13.65-3.12-3.71-12.64-7.34-12.23-18.41Z"/>
    <path class="cls-2" d="M64.39,109.23c7.62-5.4,7.95-17.25,15.19-23.15,3.68-2.99,8.82-4.14,11.75-7.87,2.9-3.7,2.74-9.23.35-13.28-2.39-4.05-6.64-6.75-11.12-8.18-.1-.03-.19-.06-.29-.09-9.56-2.96-19.88,1.52-24.27,10.52-1.35,2.76-3.1,5.23-4.36,6.45-3.5,3.36-7.77,6.11-10.17,10.33-1.63,2.88-2.25,6.25-2.12,9.56.23,6.02,3.09,12.05,8.06,15.46s12.07,3.75,16.98.27Z"/>
    <path class="cls-2" d="M65.69,104.73c1.44-3.52-.7-7.74.73-11.27,1.69-4.18,7.14-5.03,10.79-7.68,5.63-4.09,6.18-12.89,2.34-18.69-10.35-15.58-26.39-9.2-29.58-2.9-3.18,5.08-1.02,10.42-3.22,15.1-1.58,3.36-3.98,6.27-5.82,9.5-1.84,3.23-3.12,7.05-2.19,10.65,1.58,6.07,8.59,8.9,14.82,9.7,4.6.59,10.38-.11,12.14-4.41Z"/>
    <path class="cls-2" d="M160.11,121.95c-5.11-.96-10.32.81-13.92,4.56-4.89,5.11-11.69,8.41-18.76,8.88-3.59.24-7.36-.18-10.65,1.28-5.65,2.5-7.72,10.15-5.34,15.85,2.38,5.7,8.14,9.42,14.13,10.92,5.99,1.5,12.27,1.12,18.43.72,7.69-.49,16.16-1.33,21.48-6.91,5.32-5.58,6.82-14.12,5.9-21.77-1.06-8.81-5.66-12.46-11.28-13.53Z"/>
    <path class="cls-2" d="M19.91,122.46c-2.52-4.48-2.45-9.91-2.27-15.04.17-5.14.31-10.55-2.12-15.08-.25-.46-.53-.91-.85-1.34-3-4.05-9.26-3.63-11.61.84-.04.07-.07.14-.11.21-1.1,2.23-1.12,4.84-1.25,7.33-.45,8.35-.91,16.7-1.36,25.05-.43,7.95-.84,16.07,1.39,23.72,2.23,7.64,7.64,14.83,15.31,16.98,7.1,1.98,15.31-1.05,19.41-7.17,4.11-6.12,3.8-14.86-.73-20.68-4.46-5.73-12.24-8.48-15.8-14.81Z"/>
  </g>
  <g id="desktop">
    <path class="cls-1" d="M127.5,93.22c0,23.71-19.02,42.73-45.49,42.73s-45.49-19.02-45.49-42.73,19.02-42.73,45.49-42.73,45.49,19.02,45.49,42.73ZM120.6,93.22c0-12.54-6.48-23.57-16.95-29.91,1.52,3.03,2.34,6.75,2.34,10.89,0,13.23-9.24,19.85-17.92,19.85-7.86,0-15.3-5.38-15.3-16.27h6.89c0,6.2,4.14,9.37,8.55,9.37,5.24,0,10.89-4.41,10.89-12.96,0-11.03-8.41-16.82-17.09-16.82-22.47,0-38.6,16.13-38.6,35.84s16.13,35.84,38.6,35.84,38.6-15.99,38.6-35.84Z"/>
  </g>
</svg>